<svg width="1245" height="289" viewBox="0 0 1245 289" fill="none" xmlns="http://www.w3.org/2000/svg">
<path d="M185.2 260.77C177.48 260.77 170.16 257.42 165.11 251.58L167.65 249.38C172.06 254.48 178.46 257.41 185.2 257.41C197.99 257.41 208.4 247 208.4 234.21C208.4 221.42 197.99 211.01 185.2 211.01C172.41 211.01 162 221.42 162 234.21H158.64C158.64 219.57 170.55 207.65 185.2 207.65C199.85 207.65 211.76 219.56 211.76 234.21C211.76 248.85 199.85 260.77 185.2 260.77Z" fill="white"/>
<path d="M185.2 266.83C177.96 266.83 171.09 264.5 165.35 260.08L167.4 257.42C172.55 261.38 178.7 263.47 185.2 263.47C201.33 263.47 214.46 250.34 214.46 234.21C214.46 218.08 201.33 204.95 185.2 204.95C169.07 204.95 155.94 218.08 155.94 234.21H152.58C152.58 216.22 167.21 201.59 185.2 201.59C203.19 201.59 217.82 216.22 217.82 234.21C217.82 252.19 203.19 266.83 185.2 266.83ZM185.2 254.71C173.9 254.71 164.7 245.51 164.7 234.21C164.7 222.91 173.9 213.71 185.2 213.71C196.5 213.71 205.7 222.91 205.7 234.21C205.7 245.51 196.5 254.71 185.2 254.71ZM185.2 217.07C175.75 217.07 168.06 224.76 168.06 234.21C168.06 243.66 175.75 251.35 185.2 251.35C194.65 251.35 202.34 243.66 202.34 234.21C202.34 224.76 194.65 217.07 185.2 217.07Z" fill="white"/>
<path d="M155.94 234.21H152.58V284.12H155.94V234.21Z" fill="white"/>
<path d="M168.06 234.21H164.7V284.12H168.06V234.21Z" fill="white"/>
<path d="M162 234.21H158.64V288.89H162V234.21Z" fill="white"/>
<path d="M162.66 131.73H159.3V143.44H162.66V131.73Z" fill="white"/>
<path d="M155.94 143.43H152.58V129.05C152.58 121.23 146.22 114.88 138.41 114.88H131.89V111.52H138.41C148.08 111.52 155.94 119.38 155.94 129.05V143.43Z" fill="white"/>
<path d="M149.23 131.73H145.87V143.44H149.23V131.73Z" fill="white"/>
<path d="M119.41 135.58C117.63 135.58 115.13 134.32 113.28 128.34C112.02 124.27 111.33 118.9 111.33 113.21C111.33 107.52 112.02 102.14 113.28 98.0798C115.13 92.0898 117.64 90.8398 119.41 90.8398C121.09 90.8398 123.35 92.1999 128.47 102.1C131.14 107.27 133.41 112.5 133.44 112.55L133.73 113.22L133.44 113.89C133.42 113.94 131.15 119.18 128.47 124.34C123.35 134.22 121.09 135.58 119.41 135.58ZM119.31 94.1998C117.85 94.4898 114.68 100.95 114.68 113.21C114.68 125.47 117.84 131.93 119.31 132.22C121.2 131.27 126.28 121.84 130.06 113.21C126.28 104.57 121.2 95.1398 119.31 94.1998Z" fill="white"/>
<path d="M119.41 135.58H100.49C98.7099 135.58 96.2099 134.32 94.3599 128.34C93.0999 124.27 92.4099 118.9 92.4099 113.21C92.4099 107.52 93.0999 102.14 94.3599 98.0798C96.2099 92.0898 98.7199 90.8398 100.49 90.8398H119.41V94.1998H100.49C99.0799 94.1998 95.7599 100.67 95.7599 113.22C95.7599 125.77 99.0699 132.24 100.49 132.24H119.41V135.58Z" fill="white"/>
<path d="M89.1801 147.02C82.3601 147.02 76.8201 141.47 76.8201 134.65C76.8201 127.83 82.3701 122.29 89.1801 122.29C91.6601 122.29 94.0501 123.02 96.0901 124.4L94.2101 127.18C92.7201 126.17 90.9801 125.64 89.1801 125.64C84.2101 125.64 80.1701 129.68 80.1701 134.65C80.1701 139.62 84.2101 143.66 89.1801 143.66C94.1501 143.66 98.1901 139.62 98.1901 134.65H101.55C101.54 141.48 96.0001 147.02 89.1801 147.02Z" fill="white"/>
<path d="M86.31 125.75H82.95V82.75C82.95 80.05 80.76 77.86 78.06 77.86H72.73V74.5H78.06C82.61 74.5 86.31 78.2 86.31 82.75V125.75Z" fill="white"/>
<path d="M94.3599 125.75H90.9999V81.86C90.9999 75.26 85.6299 69.9 79.0399 69.9H61.8899V66.54H79.0399C87.4899 66.54 94.3599 73.41 94.3599 81.86V125.75Z" fill="white"/>
<path d="M40.22 114.25H16.31C7.32 114.25 0 106.93 0 97.9398V72.5098C0 65.0898 6.04001 59.0498 13.46 59.0498H13.99C21.41 59.0498 27.45 65.0898 27.45 72.5098V93.1298H40.23V114.25H40.22ZM13.46 62.4098C7.89001 62.4098 3.36 66.9398 3.36 72.5098V97.9398C3.36 105.08 9.17 110.89 16.31 110.89H36.87V96.4898H24.09V72.5098C24.09 66.9398 19.56 62.4098 13.99 62.4098H13.46Z" fill="white"/>
<path d="M8.14003 109.39H4.78003V133.9H8.14003V109.39Z" fill="white"/>
<path d="M65.2299 133.9H61.8699V76.7499C61.8699 65.1499 52.4299 55.7098 40.8299 55.7098H23.5699C18.5299 55.7098 13.7999 58.1799 10.9099 62.3199L8.15991 60.3998C11.6799 55.3698 17.4399 52.3599 23.5799 52.3599H40.8399C54.2899 52.3599 65.2399 63.2998 65.2399 76.7598V133.9H65.2299Z" fill="white"/>
<path d="M46.2899 51.1199C45.1799 51.1199 44.0599 50.9198 42.9999 50.5098L25.8699 43.9799C23.3599 43.0199 21.6699 40.5699 21.6699 37.8799V37.1398C18.7899 36.3898 16.6499 33.7699 16.6499 30.6599V23.9099H27.0499V28.8699H29.8799V20.6299H33.2399V32.2299H23.6899V27.2698H20.0099V30.6599C20.0099 32.4999 21.5099 33.9999 23.3499 33.9999H25.0299V37.8898C25.0299 39.1998 25.8499 40.3899 27.0699 40.8499L44.1999 47.3799C46.0399 48.0799 48.0199 47.8399 49.6399 46.7299C51.2599 45.6099 52.1899 43.8399 52.1899 41.8799V20.6398H55.5499V41.8699C55.5499 44.9099 54.0499 47.7599 51.5499 49.4899C49.9699 50.5699 48.1399 51.1199 46.2899 51.1199Z" fill="white"/>
<path d="M46.6701 48.1099H43.3101V54.0298H46.6701V48.1099Z" fill="white"/>
<path d="M70.9199 17.77H12.8899V21.1301H70.9199V17.77Z" fill="white"/>
<path d="M23.35 41.19H20.22C14.57 41.19 9.95996 36.59 9.95996 30.93V16.81C9.95996 7.54003 17.5 0 26.77 0H38.7299C48 0 55.5399 7.54003 55.5399 16.81V20.63H52.1799V16.81C52.1799 9.39003 46.15 3.36002 38.7299 3.36002H26.77C19.35 3.36002 13.3199 9.39003 13.3199 16.81V30.93C13.3199 34.73 16.41 37.83 20.22 37.83H23.35V41.19Z" fill="white"/>
<path d="M22.15 39.5098H18.79V54.0398H22.15V39.5098Z" fill="white"/>
<path d="M63.55 104.28V100.92C68.02 100.92 71.66 97.2802 71.66 92.8102V69.4702H75.0201V92.8102C75.0201 99.1302 69.87 104.28 63.55 104.28Z" fill="white"/>
<path d="M91.99 76.4298L89.82 73.8598L93.38 70.8498C95.31 69.2198 95.68 66.3198 94.21 64.2598L90.63 59.2298C88.68 56.4898 85.51 54.8598 82.15 54.8598H73.81C70.86 54.8598 68.04 56.1198 66.07 58.3198L60.47 64.5698L57.97 62.3298L63.57 56.0798C66.18 53.1698 69.91 51.5098 73.81 51.5098H82.15C86.6 51.5098 90.79 53.6698 93.36 57.2998L96.94 62.3298C99.41 65.8098 98.79 70.6798 95.54 73.4298L91.99 76.4298Z" fill="white"/>
<path d="M84.11 69.9102H79.04V66.5502H84.11C85.13 66.5502 85.97 65.7202 85.97 64.6902C85.97 63.6602 85.14 62.8302 84.11 62.8302H72.74V59.4702H84.12C87 59.4702 89.34 61.8102 89.34 64.6902C89.34 67.5702 86.99 69.9102 84.11 69.9102Z" fill="white"/>
<path d="M50.8901 114.25H38.5401V110.89H50.8901C53.3801 110.89 55.4001 108.87 55.4001 106.38V101.36C55.4001 98.87 53.3801 96.85 50.8901 96.85H44.5401V89.54C44.5401 86.94 43.4001 85.39 41.0501 84.8C40.7801 84.73 40.5801 84.85 40.4901 84.92C40.4101 84.98 40.2201 85.17 40.2201 85.48V96.19H36.8601V85.48C36.8601 84.22 37.4301 83.05 38.4301 82.27C39.4201 81.5 40.6701 81.24 41.8801 81.54C45.7601 82.52 47.9001 85.36 47.9001 89.54V93.49H50.8901C55.2301 93.49 58.7601 97.02 58.7601 101.36V106.38C58.7601 110.72 55.2301 114.25 50.8901 114.25Z" fill="white"/>
<path d="M89.18 138.85C91.4941 138.85 93.37 136.974 93.37 134.66C93.37 132.346 91.4941 130.47 89.18 130.47C86.8659 130.47 84.99 132.346 84.99 134.66C84.99 136.974 86.8659 138.85 89.18 138.85Z" fill="white"/>
<path d="M179.41 201.59H167.7V204.95H179.41V201.59Z" fill="white"/>
<path d="M179.41 198.23V194.87C188.64 194.87 196.15 187.36 196.15 178.13C196.15 168.9 188.64 161.39 179.41 161.39C170.18 161.39 162.67 168.9 162.67 178.13H159.31C159.31 167.04 168.33 158.03 179.41 158.03C190.5 158.03 199.51 167.05 199.51 178.13C199.51 189.21 190.49 198.23 179.41 198.23Z" fill="white"/>
<path d="M179.41 204.95V201.59C192.35 201.59 202.87 191.07 202.87 178.13C202.87 165.19 192.35 154.67 179.41 154.67C166.47 154.67 155.95 165.19 155.95 178.13H152.59C152.59 163.34 164.62 151.31 179.41 151.31C194.2 151.31 206.23 163.34 206.23 178.13C206.23 192.92 194.19 204.95 179.41 204.95ZM179.41 191.52V188.16C184.94 188.16 189.44 183.66 189.44 178.13C189.44 172.6 184.94 168.1 179.41 168.1C173.88 168.1 169.38 172.6 169.38 178.13H166.02C166.02 170.75 172.02 164.74 179.41 164.74C186.8 164.74 192.8 170.74 192.8 178.13C192.79 185.51 186.79 191.52 179.41 191.52Z" fill="white"/>
<path d="M155.95 178.13H152.59V236.85H155.95V178.13Z" fill="white"/>
<path d="M162.66 213.71L159.3 215.99V178.13H162.66V213.71Z" fill="white"/>
<path d="M169.38 178.13H166.02V209.66H169.38V178.13Z" fill="white"/>
<path d="M179.41 188.16H167.7V191.52H179.41V188.16Z" fill="white"/>
<path d="M179.41 194.87H167.7V198.23H179.41V194.87Z" fill="white"/>
<path d="M149.23 143.43H145.87V178.14H149.23V143.43Z" fill="white"/>
<path d="M153.03 196.37C148.41 191.39 145.87 184.92 145.87 178.14H149.23C149.23 184.07 151.46 189.73 155.5 194.09L153.03 196.37Z" fill="white"/>
<path d="M162.66 143.43H159.3V161.04H162.66V143.43Z" fill="white"/>
<path d="M155.94 143.43H152.58V178.14H155.94V143.43Z" fill="white"/>
<path d="M206.93 34.82C206.93 22.66 206.93 20.48 206.77 17.99C206.61 15.34 205.99 14.09 203.42 13.55C202.8 13.39 201.47 13.32 200.77 13.32C200.46 13.32 200.15 13.16 200.15 12.85C200.15 12.38 200.54 12.23 201.4 12.23C204.91 12.23 209.82 12.46 210.21 12.46C212.08 12.46 215.12 12.23 218.7 12.23C231.48 12.23 234.29 20.02 234.29 23.92C234.29 30.31 230.63 34.13 226.96 37.95C232.73 39.74 240.44 45.28 240.44 54.39C240.44 62.73 233.89 71.38 220.57 71.38C219.71 71.38 217.22 71.22 214.96 71.15C212.7 70.99 210.52 70.92 210.21 70.92C210.05 70.92 208.73 70.92 207.09 71C205.53 71 203.74 71.16 202.57 71.16C201.71 71.16 201.32 71 201.32 70.54C201.32 70.31 201.48 70.07 201.94 70.07C202.64 70.07 203.58 69.9099 204.28 69.7599C205.84 69.4499 206.23 67.73 206.54 65.47C206.93 62.2 206.93 56.04 206.93 48.56V34.82ZM213.17 36.54C213.17 37.09 213.33 37.24 213.72 37.4C214.19 37.48 215.59 37.71 218.47 37.71C222.83 37.71 223.93 37.55 225.56 35.68C227.2 33.81 228.37 31 228.37 27.81C228.37 21.34 225.49 14.41 217.85 14.41C216.99 14.41 215.36 14.49 214.11 14.8C213.41 14.96 213.17 15.19 213.17 15.66V36.54ZM213.17 44.8C213.17 50.8 213.17 60.46 213.25 61.63C213.48 65.45 213.48 66.54 215.9 67.71C218 68.72 221.35 68.88 222.76 68.88C226.97 68.88 233.75 66.62 233.75 57.81C233.75 53.13 232.19 46.35 226.19 42.22C223.54 40.43 221.59 40.19 219.72 39.96C218.71 39.8 214.81 39.8 213.64 39.8C213.33 39.8 213.17 39.96 213.17 40.35V44.8Z" fill="white"/>
<path d="M255.95 34.82C255.95 22.66 255.95 20.48 255.79 17.99C255.63 15.34 255.01 14.09 252.44 13.55C251.82 13.39 250.49 13.32 249.79 13.32C249.48 13.32 249.17 13.16 249.17 12.85C249.17 12.38 249.56 12.23 250.42 12.23C253.93 12.23 258.68 12.46 259.38 12.46C260.08 12.46 264.76 12.23 267.09 12.23C267.95 12.23 268.34 12.39 268.34 12.85C268.34 13.16 268.03 13.32 267.72 13.32C267.17 13.32 266.71 13.4 265.77 13.55C263.67 13.86 263.04 15.26 262.89 17.99C262.73 20.48 262.73 22.67 262.73 34.82V45.73C262.73 56.95 265.22 61.78 268.57 64.98C272.39 68.56 275.9 69.27 280.34 69.27C285.09 69.27 289.77 67.01 292.57 63.66C296.15 59.22 297.09 52.59 297.09 44.57V34.83C297.09 22.67 297.09 20.49 296.93 18C296.77 15.35 296.15 14.1 293.58 13.56C292.96 13.4 291.63 13.33 290.93 13.33C290.62 13.33 290.31 13.17 290.31 12.86C290.31 12.39 290.7 12.24 291.56 12.24C295.07 12.24 299.35 12.47 299.82 12.47C300.37 12.47 304.03 12.24 306.37 12.24C307.23 12.24 307.62 12.4 307.62 12.86C307.62 13.17 307.31 13.33 307 13.33C306.45 13.33 305.99 13.41 305.05 13.56C302.95 14.03 302.32 15.27 302.17 18C302.01 20.49 302.01 22.68 302.01 34.83V43.17C302.01 51.59 301.07 60.94 294.84 66.47C289.23 71.46 283.38 72.24 278.79 72.24C276.14 72.24 268.27 71.93 262.74 66.71C258.92 63.05 255.96 57.59 255.96 46.21V34.82H255.95Z" fill="white"/>
<path d="M325.15 34.8197C325.15 22.6597 325.15 20.4797 324.99 17.9897C324.83 15.3397 324.21 14.0896 321.64 13.5496C321.02 13.3896 319.69 13.3197 318.99 13.3197C318.68 13.3197 318.37 13.1596 318.37 12.8496C318.37 12.3796 318.76 12.2296 319.62 12.2296C323.13 12.2296 328.04 12.4596 328.43 12.4596C329.37 12.4596 334.27 12.2296 338.95 12.2296C346.66 12.2296 360.93 11.5296 370.2 21.1096C374.1 25.1596 377.76 31.6296 377.76 40.8996C377.76 50.7196 373.71 58.2797 369.34 62.8797C365.99 66.3897 358.98 71.8396 345.73 71.8396C342.38 71.8396 338.25 71.6097 334.9 71.3697C331.47 71.1397 328.82 70.8996 328.43 70.8996C328.27 70.8996 326.95 70.8996 325.31 70.9796C323.75 70.9796 321.96 71.1396 320.79 71.1396C319.93 71.1396 319.54 70.9796 319.54 70.5196C319.54 70.2896 319.7 70.0496 320.16 70.0496C320.86 70.0496 321.8 69.8897 322.5 69.7397C324.06 69.4297 324.45 67.7096 324.76 65.4496C325.15 62.1796 325.15 56.0196 325.15 48.5396V34.8197ZM331.69 43.2397C331.69 51.4997 331.77 58.6696 331.85 60.1496C331.93 62.0996 332.08 65.2197 332.71 66.0697C333.72 67.5497 336.76 69.1897 345.96 69.1897C353.21 69.1897 359.91 66.5397 364.51 61.9397C368.56 57.9697 370.74 50.4797 370.74 43.3197C370.74 33.4197 366.45 27.0297 363.26 23.6797C355.93 15.9697 347.05 14.8697 337.78 14.8697C336.22 14.8697 333.34 15.0996 332.71 15.4196C332.01 15.7296 331.77 16.1196 331.77 16.9796C331.69 19.6296 331.69 27.5796 331.69 33.5796V43.2397Z" fill="white"/>
<path d="M395.83 34.8197C395.83 22.6597 395.83 20.4797 395.67 17.9897C395.51 15.3397 394.89 14.0896 392.32 13.5496C391.7 13.3896 390.37 13.3197 389.67 13.3197C389.36 13.3197 389.05 13.1596 389.05 12.8496C389.05 12.3796 389.44 12.2296 390.3 12.2296C393.81 12.2296 398.72 12.4596 399.11 12.4596C400.05 12.4596 404.95 12.2296 409.63 12.2296C417.34 12.2296 431.61 11.5296 440.88 21.1096C444.78 25.1596 448.44 31.6296 448.44 40.8996C448.44 50.7196 444.39 58.2797 440.02 62.8797C436.67 66.3897 429.66 71.8396 416.41 71.8396C413.06 71.8396 408.93 71.6097 405.58 71.3697C402.15 71.1397 399.5 70.8996 399.11 70.8996C398.95 70.8996 397.63 70.8996 395.99 70.9796C394.43 70.9796 392.64 71.1396 391.47 71.1396C390.61 71.1396 390.22 70.9796 390.22 70.5196C390.22 70.2896 390.38 70.0496 390.84 70.0496C391.54 70.0496 392.48 69.8897 393.18 69.7397C394.74 69.4297 395.13 67.7096 395.44 65.4496C395.83 62.1796 395.83 56.0196 395.83 48.5396V34.8197ZM402.37 43.2397C402.37 51.4997 402.45 58.6696 402.53 60.1496C402.61 62.0996 402.76 65.2197 403.39 66.0697C404.4 67.5497 407.44 69.1897 416.64 69.1897C423.89 69.1897 430.59 66.5397 435.19 61.9397C439.24 57.9697 441.42 50.4797 441.42 43.3197C441.42 33.4197 437.13 27.0297 433.94 23.6797C426.61 15.9697 417.73 14.8697 408.46 14.8697C406.9 14.8697 404.02 15.0996 403.39 15.4196C402.69 15.7296 402.45 16.1196 402.45 16.9796C402.37 19.6296 402.37 27.5796 402.37 33.5796V43.2397Z" fill="white"/>
<path d="M458.48 8.79977C457.86 8.09977 457.78 7.86977 457.78 7.47977C457.78 7.24977 458.17 7.00977 458.48 7.00977C459.73 7.00977 462.69 7.93976 463.93 8.40976C464.87 8.87976 465.25 9.26976 465.25 10.4398C465.25 15.9698 461.28 22.5198 458.55 25.7898C458.24 26.2598 457.93 26.4098 457.54 26.4098C457.38 26.4098 457.15 26.2497 457.15 26.0197C457.15 25.7897 457.23 25.5497 457.46 25.0097C458.63 22.5197 460.03 18.3098 460.03 13.8698C460.04 11.4498 459.02 9.41977 458.48 8.79977Z" fill="white"/>
<path d="M477.88 70.1297C476.79 69.5797 476.71 69.2696 476.71 67.1696C476.71 63.2696 477.02 60.1596 477.1 58.9096C477.18 58.0496 477.33 57.6596 477.72 57.6596C478.19 57.6596 478.27 57.8896 478.27 58.5196C478.27 59.2196 478.27 60.3096 478.5 61.3996C479.67 67.1696 484.81 69.3496 490.03 69.3496C497.51 69.3496 501.17 63.9697 501.17 58.9897C501.17 53.6097 498.91 50.4996 492.21 44.9596L488.7 42.0796C480.44 35.2996 478.57 30.4696 478.57 25.1696C478.57 16.8296 484.8 11.1396 494.7 11.1396C497.74 11.1396 500 11.4496 501.95 11.9196C503.43 12.2296 504.05 12.3097 504.68 12.3097C505.3 12.3097 505.46 12.4696 505.46 12.8596C505.46 13.2496 505.15 15.8197 505.15 21.1197C505.15 22.3697 504.99 22.9096 504.6 22.9096C504.13 22.9096 504.05 22.5196 503.98 21.8996C503.9 20.9596 503.43 18.8597 502.97 17.9997C502.51 17.1397 500.4 13.8697 493.23 13.8697C487.85 13.8697 483.65 17.2196 483.65 22.9096C483.65 27.3496 485.68 30.1597 493.16 35.9997L495.34 37.7096C504.54 44.9596 506.72 49.7896 506.72 56.0196C506.72 59.2096 505.47 65.1396 500.1 68.9596C496.75 71.2996 492.54 72.2296 488.33 72.2296C484.66 72.2296 481.08 71.6897 477.88 70.1297Z" fill="white"/>
<path d="M552.61 34.8197C552.61 22.6597 552.61 20.4797 552.45 17.9897C552.29 15.3397 551.67 14.0896 549.1 13.5496C548.48 13.3896 547.15 13.3197 546.45 13.3197C546.14 13.3197 545.83 13.1596 545.83 12.8496C545.83 12.3796 546.22 12.2296 547.08 12.2296C550.59 12.2296 555.5 12.4596 555.89 12.4596C556.82 12.4596 561.74 12.2296 566.41 12.2296C574.12 12.2296 588.39 11.5296 597.66 21.1096C601.56 25.1596 605.22 31.6296 605.22 40.8996C605.22 50.7196 601.17 58.2797 596.8 62.8797C593.45 66.3897 586.44 71.8396 573.19 71.8396C569.84 71.8396 565.71 71.6097 562.36 71.3697C558.93 71.1397 556.28 70.8996 555.89 70.8996C555.73 70.8996 554.41 70.8996 552.77 70.9796C551.21 70.9796 549.42 71.1396 548.25 71.1396C547.39 71.1396 547 70.9796 547 70.5196C547 70.2896 547.16 70.0496 547.62 70.0496C548.32 70.0496 549.26 69.8897 549.96 69.7397C551.52 69.4297 551.91 67.7096 552.22 65.4496C552.61 62.1796 552.61 56.0196 552.61 48.5396V34.8197ZM559.16 43.2397C559.16 51.4997 559.24 58.6696 559.32 60.1496C559.4 62.0996 559.55 65.2197 560.18 66.0697C561.19 67.5497 564.23 69.1897 573.43 69.1897C580.68 69.1897 587.38 66.5397 591.98 61.9397C596.03 57.9697 598.21 50.4797 598.21 43.3197C598.21 33.4197 593.92 27.0297 590.73 23.6797C583.4 15.9697 574.52 14.8697 565.25 14.8697C563.69 14.8697 560.81 15.0996 560.18 15.4196C559.48 15.7296 559.25 16.1196 559.25 16.9796C559.17 19.6296 559.17 27.5796 559.17 33.5796V43.2397H559.16Z" fill="white"/>
<path d="M623.29 34.82C623.29 22.66 623.29 20.48 623.13 17.99C622.97 15.34 622.35 14.09 619.78 13.55C619.16 13.39 617.83 13.32 617.13 13.32C616.82 13.32 616.51 13.16 616.51 12.85C616.51 12.38 616.9 12.23 617.76 12.23C621.27 12.23 626.18 12.46 626.57 12.46C627.43 12.46 633.35 12.23 635.77 12.23C640.68 12.23 645.9 12.7 650.03 15.66C651.98 17.06 655.41 20.8799 655.41 26.2599C655.41 32.0299 652.99 37.7899 645.98 44.2599C652.37 52.4399 657.67 59.38 662.19 64.21C666.4 68.65 669.75 69.51 671.7 69.82C673.18 70.05 674.27 70.05 674.74 70.05C675.13 70.05 675.44 70.28 675.44 70.52C675.44 70.99 674.97 71.14 673.57 71.14H668.04C663.68 71.14 661.73 70.75 659.7 69.66C656.35 67.87 653.62 64.05 649.18 58.2C645.91 53.91 642.24 48.69 640.69 46.67C640.38 46.36 640.14 46.2 639.68 46.2L630.1 46.04C629.71 46.04 629.55 46.27 629.55 46.66V48.53C629.55 56.01 629.55 62.17 629.94 65.44C630.17 67.7 630.64 69.41 632.98 69.73C634.07 69.89 635.78 70.04 636.49 70.04C636.96 70.04 637.11 70.2699 637.11 70.5099C637.11 70.8999 636.72 71.13 635.86 71.13C631.57 71.13 626.66 70.9 626.28 70.9C626.2 70.9 621.29 71.13 618.95 71.13C618.09 71.13 617.7 70.9699 617.7 70.5099C617.7 70.2799 617.86 70.04 618.32 70.04C619.02 70.04 619.96 69.88 620.66 69.73C622.22 69.42 622.61 67.7 622.92 65.44C623.31 62.17 623.31 56.01 623.31 48.53V34.82H623.29ZM629.52 41.6C629.52 41.99 629.68 42.3 630.07 42.53C631.24 43.23 634.82 43.78 638.25 43.78C640.12 43.78 642.3 43.55 644.09 42.3C646.82 40.43 648.84 36.22 648.84 30.3C648.84 20.56 643.7 14.71 635.36 14.71C633.02 14.71 630.92 14.94 630.14 15.18C629.75 15.34 629.52 15.65 629.52 16.12V41.6Z" fill="white"/>
<path d="M693.66 14.1699C694.59 11.5999 694.91 11.1299 695.37 11.1299C695.84 11.1299 696.15 11.5199 697.08 13.9399C698.25 16.8999 710.48 49.0899 715.24 60.9299C718.05 67.8699 720.31 69.1099 721.94 69.5799C723.11 69.9699 724.28 70.0499 725.06 70.0499C725.53 70.0499 725.84 70.1299 725.84 70.5199C725.84 70.9899 725.14 71.1399 724.28 71.1399C723.11 71.1399 717.42 71.1399 712.05 70.9799C710.57 70.8999 709.71 70.8999 709.71 70.4299C709.71 70.1199 709.94 69.9599 710.26 69.8799C710.73 69.7199 711.19 69.0199 710.73 67.7799L703.48 48.6099C703.32 48.2999 703.17 48.1399 702.78 48.1399H686.03C685.64 48.1399 685.41 48.3699 685.25 48.7599L680.57 62.5499C679.87 64.4999 679.48 66.3699 679.48 67.7699C679.48 69.3299 681.12 70.0299 682.44 70.0299H683.22C683.77 70.0299 684 70.1899 684 70.4999C684 70.9699 683.53 71.1199 682.83 71.1199C680.96 71.1199 677.61 70.8899 676.75 70.8899C675.89 70.8899 671.61 71.1199 667.94 71.1199C666.93 71.1199 666.46 70.9599 666.46 70.4999C666.46 70.1899 666.77 70.0299 667.16 70.0299C667.71 70.0299 668.8 69.9499 669.42 69.8699C673.01 69.3999 674.56 66.4399 675.97 62.5399L693.66 14.1699ZM701.76 45.3499C702.15 45.3499 702.15 45.1199 702.07 44.7999L694.67 23.7599C694.28 22.5899 693.89 22.5899 693.5 23.7599L686.64 44.7999C686.48 45.1899 686.64 45.3499 686.87 45.3499H701.76Z" fill="white"/>
<path d="M743.53 48.54C743.53 56.02 743.53 62.18 743.92 65.45C744.15 67.71 744.62 69.42 746.96 69.74C748.05 69.9 749.77 70.05 750.47 70.05C750.94 70.05 751.09 70.28 751.09 70.52C751.09 70.91 750.7 71.14 749.84 71.14C745.55 71.14 740.64 70.91 740.25 70.91C739.86 70.91 734.95 71.14 732.61 71.14C731.75 71.14 731.36 70.98 731.36 70.52C731.36 70.29 731.52 70.05 731.98 70.05C732.68 70.05 733.62 69.89 734.32 69.74C735.88 69.43 736.27 67.71 736.58 65.45C736.97 62.18 736.97 56.02 736.97 48.54V34.82C736.97 22.66 736.97 20.48 736.81 17.99C736.65 15.34 735.88 14.02 734.16 13.63C733.3 13.4 732.29 13.32 731.74 13.32C731.43 13.32 731.12 13.16 731.12 12.85C731.12 12.38 731.51 12.23 732.37 12.23C734.94 12.23 739.85 12.46 740.24 12.46C740.63 12.46 745.54 12.23 747.88 12.23C748.74 12.23 749.13 12.39 749.13 12.85C749.13 13.16 748.82 13.32 748.51 13.32C747.96 13.32 747.5 13.4 746.56 13.55C744.46 13.94 743.83 15.26 743.68 17.99C743.52 20.48 743.52 22.67 743.52 34.82V48.54H743.53Z" fill="white"/>
<path d="M773.37 60.5399C773.53 66.9299 774.3 68.9599 776.41 69.5799C777.89 69.9699 779.6 70.0499 780.31 70.0499C780.7 70.0499 780.93 70.2099 780.93 70.5199C780.93 70.9899 780.46 71.1399 779.53 71.1399C775.09 71.1399 771.97 70.9099 771.27 70.9099C770.57 70.9099 767.3 71.1399 763.79 71.1399C763.01 71.1399 762.54 71.0599 762.54 70.5199C762.54 70.2099 762.77 70.0499 763.16 70.0499C763.78 70.0499 765.19 69.9699 766.35 69.5799C768.3 69.0299 768.69 66.7699 768.69 59.6799L768.77 15.0299C768.77 11.9899 769 11.1299 769.63 11.1299C770.25 11.1299 771.58 12.8399 772.36 13.6199C773.53 14.9399 785.14 27.4899 797.14 40.3499C804.85 48.6099 813.35 58.1199 815.84 60.6899L814.98 21.0999C814.9 16.0299 814.36 14.3199 811.94 13.6999C810.54 13.3899 808.74 13.3099 808.12 13.3099C807.57 13.3099 807.5 13.0799 807.5 12.7599C807.5 12.2899 808.12 12.2099 809.06 12.2099C812.57 12.2099 816.31 12.4399 817.16 12.4399C818.02 12.4399 820.59 12.2099 823.78 12.2099C824.64 12.2099 825.18 12.2899 825.18 12.7599C825.18 13.0699 824.87 13.3099 824.32 13.3099C823.93 13.3099 823.39 13.3099 822.45 13.5399C819.88 14.0899 819.57 15.7999 819.57 20.4799L819.41 66.1499C819.41 71.2899 819.25 71.6799 818.71 71.6799C818.09 71.6799 817.15 70.8199 813.02 66.6899C812.16 65.9099 800.94 54.4599 792.68 45.5699C783.64 35.8299 774.83 26.0099 772.34 23.1999L773.37 60.5399Z" fill="white"/>
<path d="M865.4 70.1297C864.31 69.5797 864.23 69.2696 864.23 67.1696C864.23 63.2696 864.54 60.1596 864.62 58.9096C864.7 58.0496 864.85 57.6596 865.24 57.6596C865.71 57.6596 865.79 57.8896 865.79 58.5196C865.79 59.2196 865.79 60.3096 866.02 61.3996C867.19 67.1696 872.33 69.3496 877.55 69.3496C885.03 69.3496 888.69 63.9697 888.69 58.9897C888.69 53.6097 886.43 50.4996 879.73 44.9596L876.22 42.0796C867.96 35.2996 866.09 30.4696 866.09 25.1696C866.09 16.8296 872.32 11.1396 882.22 11.1396C885.26 11.1396 887.52 11.4496 889.47 11.9196C890.95 12.2296 891.57 12.3097 892.2 12.3097C892.82 12.3097 892.98 12.4696 892.98 12.8596C892.98 13.2496 892.67 15.8197 892.67 21.1197C892.67 22.3697 892.51 22.9096 892.12 22.9096C891.65 22.9096 891.57 22.5196 891.5 21.8996C891.42 20.9596 890.95 18.8597 890.49 17.9997C890.02 17.1397 887.92 13.8697 880.75 13.8697C875.37 13.8697 871.17 17.2196 871.17 22.9096C871.17 27.3496 873.2 30.1597 880.68 35.9997L882.86 37.7096C892.06 44.9596 894.24 49.7896 894.24 56.0196C894.24 59.2096 892.99 65.1396 887.62 68.9596C884.27 71.2996 880.06 72.2296 875.85 72.2296C872.18 72.2296 868.6 71.6897 865.4 70.1297Z" fill="white"/>
<path d="M914.81 34.8199C914.81 22.6599 914.81 20.4799 914.65 17.9899C914.49 15.3399 913.87 14.0899 911.3 13.5499C910.68 13.3899 909.35 13.3199 908.65 13.3199C908.34 13.3199 908.03 13.1599 908.03 12.8499C908.03 12.3799 908.42 12.2299 909.28 12.2299C911.07 12.2299 913.18 12.2299 914.89 12.3099L918.08 12.4698C918.63 12.4698 934.13 12.4698 935.93 12.3898C937.41 12.3098 938.66 12.1598 939.28 11.9998C939.67 11.9198 939.98 11.6099 940.37 11.6099C940.6 11.6099 940.68 11.9199 940.68 12.3099C940.68 12.8599 940.29 13.7898 940.06 15.9698C939.98 16.7498 939.83 20.1799 939.67 21.1099C939.59 21.4999 939.44 21.9698 939.12 21.9698C938.65 21.9698 938.5 21.5798 938.5 20.9598C938.5 20.4098 938.42 19.0898 938.03 18.1498C937.48 16.8998 936.7 15.9699 932.5 15.4999C931.17 15.3399 922.68 15.2698 921.82 15.2698C921.51 15.2698 921.35 15.4999 921.35 16.0499V37.5599C921.35 38.1099 921.43 38.3398 921.82 38.3398C922.83 38.3398 932.42 38.3399 934.21 38.1799C936.08 38.0199 937.17 37.8698 937.87 37.0898C938.42 36.4698 938.73 36.0798 939.04 36.0798C939.27 36.0798 939.43 36.2398 939.43 36.6998C939.43 37.1698 939.04 38.4899 938.81 41.0599C938.65 42.6199 938.5 45.4999 938.5 46.0499C938.5 46.6699 938.5 47.5298 937.95 47.5298C937.56 47.5298 937.4 47.2198 937.4 46.8298C937.4 46.0498 937.4 45.2698 937.09 44.2598C936.78 43.1698 936.08 41.8398 933.04 41.5298C930.94 41.2998 923.22 41.1398 921.9 41.1398C921.51 41.1398 921.35 41.3699 921.35 41.6899V48.5499C921.35 51.1999 921.27 60.2399 921.35 61.8799C921.58 67.2599 922.75 68.2698 930.39 68.2698C932.42 68.2698 935.85 68.2699 937.87 67.4099C939.9 66.5499 940.83 64.9899 941.38 61.7999C941.54 60.9399 941.69 60.6299 942.08 60.6299C942.55 60.6299 942.55 61.2499 942.55 61.7999C942.55 62.4199 941.93 67.7199 941.54 69.3599C940.99 71.3899 940.37 71.3898 937.33 71.3898C931.49 71.3898 927.2 71.2299 924.16 71.1599C921.12 70.9999 919.25 70.9299 918.08 70.9299C917.92 70.9299 916.6 70.9298 914.96 71.0098C913.4 71.0098 911.61 71.1699 910.44 71.1699C909.58 71.1699 909.19 71.0099 909.19 70.5499C909.19 70.3199 909.35 70.0798 909.81 70.0798C910.51 70.0798 911.45 69.9198 912.15 69.7698C913.71 69.4598 914.1 67.7399 914.41 65.4799C914.8 62.2099 914.8 56.0499 914.8 48.5699V34.8199H914.81Z" fill="white"/>
<path d="M962.34 34.82C962.34 22.66 962.34 20.48 962.18 17.99C962.02 15.34 961.4 14.09 958.83 13.55C958.21 13.39 956.88 13.32 956.18 13.32C955.87 13.32 955.56 13.16 955.56 12.85C955.56 12.38 955.95 12.23 956.81 12.23C960.32 12.23 965.23 12.46 965.62 12.46C966.48 12.46 972.4 12.23 974.82 12.23C979.73 12.23 984.95 12.7 989.08 15.66C991.03 17.06 994.46 20.8799 994.46 26.2599C994.46 32.0299 992.04 37.7899 985.03 44.2599C991.42 52.4399 996.72 59.38 1001.24 64.21C1005.45 68.65 1008.8 69.51 1010.75 69.82C1012.23 70.05 1013.32 70.05 1013.79 70.05C1014.18 70.05 1014.49 70.28 1014.49 70.52C1014.49 70.99 1014.02 71.14 1012.62 71.14H1007.09C1002.73 71.14 1000.78 70.75 998.75 69.66C995.4 67.87 992.67 64.05 988.23 58.2C984.96 53.91 981.29 48.69 979.74 46.67C979.43 46.36 979.19 46.2 978.73 46.2L969.15 46.04C968.76 46.04 968.6 46.27 968.6 46.66V48.53C968.6 56.01 968.6 62.17 968.99 65.44C969.22 67.7 969.69 69.41 972.03 69.73C973.12 69.89 974.83 70.04 975.54 70.04C976.01 70.04 976.16 70.2699 976.16 70.5099C976.16 70.8999 975.77 71.13 974.91 71.13C970.62 71.13 965.71 70.9 965.33 70.9C965.25 70.9 960.34 71.13 958 71.13C957.14 71.13 956.75 70.9699 956.75 70.5099C956.75 70.2799 956.91 70.04 957.37 70.04C958.07 70.04 959.01 69.88 959.71 69.73C961.27 69.42 961.66 67.7 961.97 65.44C962.36 62.17 962.36 56.01 962.36 48.53V34.82H962.34ZM968.58 41.6C968.58 41.99 968.74 42.3 969.13 42.53C970.3 43.23 973.88 43.78 977.31 43.78C979.18 43.78 981.36 43.55 983.15 42.3C985.88 40.43 987.9 36.22 987.9 30.3C987.9 20.56 982.76 14.71 974.42 14.71C972.08 14.71 969.98 14.94 969.2 15.18C968.81 15.34 968.58 15.65 968.58 16.12V41.6Z" fill="white"/>
<path d="M1036.06 61.63C1040.58 51.19 1051.02 23.99 1052.74 18.38C1053.13 17.21 1053.44 16.12 1053.44 15.42C1053.44 14.8 1053.21 14.02 1052.43 13.63C1051.5 13.32 1050.33 13.32 1049.47 13.32C1049 13.32 1048.61 13.24 1048.61 12.85C1048.61 12.38 1049.08 12.23 1050.32 12.23C1053.44 12.23 1057.02 12.46 1057.96 12.46C1058.43 12.46 1061.78 12.23 1064.04 12.23C1064.9 12.23 1065.37 12.39 1065.37 12.78C1065.37 13.17 1065.06 13.33 1064.43 13.33C1063.88 13.33 1062.17 13.3299 1060.69 14.2599C1059.68 14.9599 1058.51 16.29 1056.4 21.59C1055.54 23.77 1051.65 33.12 1047.67 42.71C1042.92 54.09 1039.41 62.5 1037.62 66.32C1035.44 71 1035.13 72.24 1034.35 72.24C1033.41 72.24 1033.02 71.15 1031.54 67.41L1012.45 19.64C1010.74 15.28 1009.57 14.42 1006.84 13.64C1005.67 13.33 1004.35 13.33 1003.88 13.33C1003.41 13.33 1003.26 13.1 1003.26 12.78C1003.26 12.31 1004.04 12.23 1005.29 12.23C1009.03 12.23 1013.47 12.46 1014.41 12.46C1015.19 12.46 1018.7 12.23 1021.66 12.23C1023.06 12.23 1023.76 12.39 1023.76 12.78C1023.76 13.17 1023.53 13.33 1022.98 13.33C1022.12 13.33 1020.72 13.41 1020.02 13.72C1019.16 14.11 1019.01 14.73 1019.01 15.28C1019.01 16.29 1019.95 18.71 1021.11 21.75L1036.06 61.63Z" fill="white"/>
<path d="M1083.52 48.54C1083.52 56.02 1083.52 62.18 1083.91 65.45C1084.14 67.71 1084.61 69.42 1086.95 69.74C1088.04 69.9 1089.76 70.05 1090.46 70.05C1090.93 70.05 1091.08 70.28 1091.08 70.52C1091.08 70.91 1090.69 71.14 1089.83 71.14C1085.54 71.14 1080.63 70.91 1080.24 70.91C1079.85 70.91 1074.94 71.14 1072.6 71.14C1071.74 71.14 1071.35 70.98 1071.35 70.52C1071.35 70.29 1071.51 70.05 1071.97 70.05C1072.67 70.05 1073.61 69.89 1074.31 69.74C1075.87 69.43 1076.26 67.71 1076.57 65.45C1076.96 62.18 1076.96 56.02 1076.96 48.54V34.82C1076.96 22.66 1076.96 20.48 1076.8 17.99C1076.64 15.34 1075.87 14.02 1074.15 13.63C1073.29 13.4 1072.28 13.32 1071.73 13.32C1071.42 13.32 1071.11 13.16 1071.11 12.85C1071.11 12.38 1071.5 12.23 1072.36 12.23C1074.93 12.23 1079.84 12.46 1080.23 12.46C1080.62 12.46 1085.53 12.23 1087.87 12.23C1088.73 12.23 1089.12 12.39 1089.12 12.85C1089.12 13.16 1088.81 13.32 1088.5 13.32C1087.95 13.32 1087.49 13.4 1086.55 13.55C1084.45 13.94 1083.82 15.26 1083.67 17.99C1083.51 20.48 1083.51 22.67 1083.51 34.82V48.54H1083.52Z" fill="white"/>
<path d="M1110.63 63.8099C1103.07 57.0299 1101.2 48.1499 1101.2 40.7399C1101.2 35.5199 1102.99 26.3999 1109.93 19.4699C1114.61 14.7899 1121.7 11.1299 1133.7 11.1299C1136.82 11.1299 1141.18 11.3599 1145 12.0599C1147.96 12.6099 1150.45 13.0699 1152.95 13.2299C1153.81 13.3099 1153.96 13.6199 1153.96 14.0899C1153.96 14.7099 1153.73 15.6499 1153.57 18.4499C1153.41 21.0199 1153.41 25.3099 1153.34 26.4799C1153.26 27.6499 1153.11 28.1199 1152.64 28.1199C1152.09 28.1199 1152.02 27.5699 1152.02 26.4799C1152.02 23.4399 1150.77 20.2499 1148.75 18.5299C1146.02 16.1899 1140.02 14.0899 1133.16 14.0899C1122.8 14.0899 1117.96 17.1299 1115.24 19.7799C1109.55 25.2399 1108.23 32.1699 1108.23 40.1199C1108.23 54.9999 1119.69 68.6399 1136.36 68.6399C1142.2 68.6399 1146.8 67.9399 1149.92 64.7399C1151.56 63.0299 1152.57 59.5999 1152.8 58.1899C1152.96 57.3299 1153.11 57.0199 1153.58 57.0199C1153.97 57.0199 1154.13 57.5699 1154.13 58.1899C1154.13 58.7399 1153.19 65.5199 1152.42 68.1599C1151.95 69.6399 1151.8 69.7999 1150.39 70.4199C1147.27 71.6699 1141.35 72.2099 1136.36 72.2099C1124.66 72.2299 1116.79 69.3499 1110.63 63.8099Z" fill="white"/>
<path d="M1172.82 34.8199C1172.82 22.6599 1172.82 20.4799 1172.66 17.9899C1172.5 15.3399 1171.88 14.0899 1169.31 13.5499C1168.69 13.3899 1167.36 13.3199 1166.66 13.3199C1166.35 13.3199 1166.04 13.1599 1166.04 12.8499C1166.04 12.3799 1166.43 12.2299 1167.29 12.2299C1169.08 12.2299 1171.19 12.2299 1172.9 12.3099L1176.09 12.4698C1176.64 12.4698 1192.14 12.4698 1193.94 12.3898C1195.42 12.3098 1196.67 12.1598 1197.29 11.9998C1197.68 11.9198 1197.99 11.6099 1198.38 11.6099C1198.61 11.6099 1198.69 11.9199 1198.69 12.3099C1198.69 12.8599 1198.3 13.7898 1198.07 15.9698C1197.99 16.7498 1197.84 20.1799 1197.68 21.1099C1197.6 21.4999 1197.45 21.9698 1197.13 21.9698C1196.66 21.9698 1196.51 21.5798 1196.51 20.9598C1196.51 20.4098 1196.43 19.0898 1196.04 18.1498C1195.49 16.8998 1194.72 15.9699 1190.51 15.4999C1189.18 15.3399 1180.69 15.2698 1179.83 15.2698C1179.52 15.2698 1179.36 15.4999 1179.36 16.0499V37.5599C1179.36 38.1099 1179.44 38.3398 1179.83 38.3398C1180.84 38.3398 1190.43 38.3399 1192.22 38.1799C1194.09 38.0199 1195.18 37.8698 1195.88 37.0898C1196.43 36.4698 1196.74 36.0798 1197.05 36.0798C1197.28 36.0798 1197.44 36.2398 1197.44 36.6998C1197.44 37.1698 1197.05 38.4899 1196.82 41.0599C1196.66 42.6199 1196.51 45.4999 1196.51 46.0499C1196.51 46.6699 1196.51 47.5298 1195.96 47.5298C1195.57 47.5298 1195.41 47.2198 1195.41 46.8298C1195.41 46.0498 1195.41 45.2698 1195.1 44.2598C1194.79 43.1698 1194.09 41.8398 1191.05 41.5298C1188.95 41.2998 1181.23 41.1398 1179.91 41.1398C1179.52 41.1398 1179.36 41.3699 1179.36 41.6899V48.5499C1179.36 51.1999 1179.28 60.2399 1179.36 61.8799C1179.59 67.2599 1180.76 68.2698 1188.4 68.2698C1190.43 68.2698 1193.85 68.2699 1195.88 67.4099C1197.91 66.5499 1198.84 64.9899 1199.39 61.7999C1199.55 60.9399 1199.7 60.6299 1200.09 60.6299C1200.56 60.6299 1200.56 61.2499 1200.56 61.7999C1200.56 62.4199 1199.94 67.7199 1199.55 69.3599C1199 71.3899 1198.38 71.3898 1195.34 71.3898C1189.5 71.3898 1185.21 71.2299 1182.17 71.1599C1179.13 70.9999 1177.26 70.9299 1176.09 70.9299C1175.93 70.9299 1174.61 70.9298 1172.97 71.0098C1171.41 71.0098 1169.62 71.1699 1168.45 71.1699C1167.59 71.1699 1167.2 71.0099 1167.2 70.5499C1167.2 70.3199 1167.36 70.0798 1167.82 70.0798C1168.52 70.0798 1169.46 69.9198 1170.16 69.7698C1171.72 69.4598 1172.11 67.7399 1172.42 65.4799C1172.81 62.2099 1172.81 56.0499 1172.81 48.5699V34.8199H1172.82Z" fill="white"/>
<path d="M1215.36 70.1297C1214.27 69.5797 1214.19 69.2696 1214.19 67.1696C1214.19 63.2696 1214.5 60.1596 1214.58 58.9096C1214.66 58.0496 1214.81 57.6596 1215.2 57.6596C1215.67 57.6596 1215.75 57.8896 1215.75 58.5196C1215.75 59.2196 1215.75 60.3096 1215.98 61.3996C1217.15 67.1696 1222.29 69.3496 1227.51 69.3496C1234.99 69.3496 1238.65 63.9697 1238.65 58.9897C1238.65 53.6097 1236.39 50.4996 1229.69 44.9596L1226.18 42.0796C1217.92 35.2996 1216.05 30.4696 1216.05 25.1696C1216.05 16.8296 1222.28 11.1396 1232.18 11.1396C1235.22 11.1396 1237.48 11.4496 1239.43 11.9196C1240.91 12.2296 1241.53 12.3097 1242.16 12.3097C1242.78 12.3097 1242.94 12.4696 1242.94 12.8596C1242.94 13.2496 1242.63 15.8197 1242.63 21.1197C1242.63 22.3697 1242.47 22.9096 1242.08 22.9096C1241.61 22.9096 1241.53 22.5196 1241.46 21.8996C1241.38 20.9596 1240.91 18.8597 1240.45 17.9997C1239.98 17.1397 1237.88 13.8697 1230.71 13.8697C1225.33 13.8697 1221.13 17.2196 1221.13 22.9096C1221.13 27.3496 1223.16 30.1597 1230.64 35.9997L1232.82 37.7096C1242.02 44.9596 1244.2 49.7896 1244.2 56.0196C1244.2 59.2096 1242.95 65.1396 1237.58 68.9596C1234.23 71.2996 1230.02 72.2296 1225.81 72.2296C1222.14 72.2296 1218.56 71.6897 1215.36 70.1297Z" fill="white"/>
<path d="M207.91 140.88C201.69 135.3 200.16 128 200.16 121.91C200.16 117.62 201.63 110.12 207.34 104.42C211.18 100.58 217.02 97.5596 226.88 97.5596C229.44 97.5596 233.03 97.7495 236.17 98.3295C238.61 98.7795 240.66 99.1596 242.71 99.2896C243.41 99.3496 243.54 99.6096 243.54 99.9996C243.54 100.51 243.35 101.28 243.22 103.59C243.09 105.7 243.09 109.23 243.03 110.19C242.97 111.15 242.84 111.54 242.45 111.54C242 111.54 241.94 111.09 241.94 110.19C241.94 107.69 240.91 105.06 239.25 103.65C237.01 101.73 232.07 99.9996 226.43 99.9996C217.91 99.9996 213.93 102.5 211.69 104.68C207.01 109.17 205.92 114.87 205.92 121.41C205.92 133.65 215.34 144.86 229.05 144.86C233.86 144.86 237.64 144.28 240.2 141.66C241.55 140.25 242.38 137.43 242.57 136.28C242.7 135.58 242.83 135.32 243.21 135.32C243.53 135.32 243.66 135.77 243.66 136.28C243.66 136.73 242.89 142.3 242.25 144.48C241.87 145.7 241.74 145.83 240.58 146.34C238.02 147.37 233.15 147.81 229.05 147.81C219.44 147.8 212.97 145.43 207.91 140.88Z" fill="white"/>
<path d="M275.51 131.199C275.51 139.209 275.64 142.479 276.66 143.439C277.56 144.339 279.74 144.719 284.16 144.719C287.11 144.719 289.61 144.659 290.95 143.049C291.66 142.219 292.1 141.059 292.3 139.969C292.36 139.589 292.56 139.259 292.88 139.259C293.14 139.259 293.26 139.519 293.26 140.089C293.26 140.669 292.88 143.939 292.43 145.539C292.05 146.819 291.85 147.009 288.84 147.009C284.8 147.009 281.66 146.949 279.04 146.819C276.48 146.759 274.55 146.689 272.89 146.689C272.63 146.689 271.67 146.689 270.58 146.749C269.43 146.809 268.21 146.879 267.31 146.879C266.73 146.879 266.41 146.749 266.41 146.429C266.41 146.239 266.54 145.979 266.86 145.979C267.37 145.979 268.08 145.849 268.59 145.719C269.68 145.459 269.81 144.439 270.06 142.839C270.38 140.599 270.38 136.299 270.38 131.049V121.439C270.38 112.979 270.38 111.439 270.25 109.709C270.12 107.849 269.8 106.949 267.94 106.699C267.49 106.639 266.53 106.569 266.02 106.569C265.83 106.569 265.57 106.309 265.57 106.119C265.57 105.799 265.83 105.669 266.47 105.669C269.03 105.669 272.56 105.799 272.88 105.799C273.14 105.799 277.37 105.669 279.1 105.669C279.68 105.669 280 105.799 280 106.119C280 106.309 279.74 106.499 279.55 106.499C279.17 106.499 278.33 106.559 277.69 106.629C276.02 106.949 275.7 107.779 275.58 109.709C275.52 111.439 275.52 112.979 275.52 121.439V131.199H275.51Z" fill="white"/>
<path d="M317.48 121.46C317.48 113 317.48 111.46 317.35 109.73C317.22 107.87 316.9 106.97 315.04 106.72C314.59 106.66 313.63 106.59 313.12 106.59C312.93 106.59 312.67 106.33 312.67 106.14C312.67 105.82 312.93 105.69 313.57 105.69C316.13 105.69 319.79 105.82 320.11 105.82C320.49 105.82 332.29 105.88 333.57 105.82C334.66 105.76 335.68 105.56 336.13 105.5C336.39 105.44 336.64 105.24 336.9 105.24C337.09 105.24 337.16 105.5 337.16 105.75C337.16 106.13 336.84 106.78 336.71 108.31C336.65 108.82 336.52 111.26 336.39 111.9C336.33 112.16 336.13 112.48 335.88 112.48C335.56 112.48 335.43 112.22 335.43 111.78C335.43 111.4 335.37 110.5 335.11 109.86C334.73 108.96 334.15 108.58 331.07 108.19C330.11 108.06 323.57 108 322.93 108C322.67 108 322.61 108.19 322.61 108.58V123.38C322.61 123.76 322.61 123.96 322.93 123.96C323.63 123.96 331.07 123.96 332.35 123.83C333.7 123.7 334.53 123.64 335.11 123.06C335.49 122.68 335.75 122.36 335.94 122.36C336.13 122.36 336.26 122.49 336.26 122.81C336.26 123.13 335.94 124.03 335.81 125.82C335.68 126.91 335.55 128.96 335.55 129.34C335.55 129.79 335.42 130.37 335.04 130.37C334.78 130.37 334.66 130.18 334.66 129.86C334.66 129.35 334.66 128.77 334.4 128.07C334.21 127.3 333.7 126.66 331.52 126.4C329.98 126.21 323.96 126.14 323 126.14C322.68 126.14 322.62 126.33 322.62 126.52V131.07C322.62 132.93 322.56 139.27 322.62 140.36C322.75 144.01 323.77 144.72 329.35 144.72C330.82 144.72 333.52 144.72 334.99 144.14C336.46 143.5 337.23 142.54 337.55 140.36C337.68 139.72 337.81 139.53 338.13 139.53C338.45 139.53 338.51 139.98 338.51 140.36C338.51 140.74 338.06 144.46 337.74 145.61C337.36 147.02 336.78 147.02 334.6 147.02C330.37 147.02 327.1 146.89 324.8 146.83C322.43 146.7 320.95 146.7 320.12 146.7C319.99 146.7 318.9 146.7 317.68 146.76C316.59 146.82 315.31 146.89 314.41 146.89C313.83 146.89 313.51 146.76 313.51 146.44C313.51 146.25 313.64 145.99 313.96 145.99C314.47 145.99 315.18 145.8 315.69 145.73C316.78 145.54 316.91 144.45 317.16 142.85C317.48 140.61 317.48 136.31 317.48 131.06V121.46Z" fill="white"/>
<path d="M374.19 106.79C374.89 105 375.15 104.68 375.54 104.68C376.12 104.68 376.31 105.45 376.89 106.67C377.92 108.98 386.95 131.47 390.41 139.74C392.46 144.61 394 145.32 395.22 145.7C396.05 145.96 396.89 146.02 397.46 146.02C397.78 146.02 398.17 146.15 398.17 146.47C398.17 146.79 397.53 146.92 396.89 146.92C396.06 146.92 391.89 146.92 387.98 146.79C386.89 146.73 385.99 146.73 385.99 146.41C385.99 146.15 386.12 146.15 386.37 146.03C386.69 145.9 387.27 145.45 386.88 144.56L381.82 132.06C381.69 131.8 381.63 131.74 381.31 131.74H368.3C368.04 131.74 367.85 131.87 367.72 132.19L364.52 140.91C364.01 142.26 363.69 143.6 363.69 144.56C363.69 145.65 364.65 146.03 365.61 146.03H366.12C366.57 146.03 366.7 146.22 366.7 146.48C366.7 146.8 366.38 146.93 365.87 146.93C364.52 146.93 361.45 146.74 360.81 146.74C360.23 146.74 357.41 146.93 355.11 146.93C354.4 146.93 354.02 146.8 354.02 146.48C354.02 146.22 354.28 146.03 354.53 146.03C354.91 146.03 355.75 145.97 356.2 145.9C358.76 145.58 359.85 143.66 360.94 140.9L374.19 106.79ZM380.47 129.47C380.73 129.47 380.73 129.34 380.66 129.09L375.09 114.16C374.77 113.33 374.45 113.33 374.13 114.16L368.88 129.09C368.82 129.35 368.88 129.47 369.07 129.47H380.47Z" fill="white"/>
<path d="M420.78 139.47C420.91 143.96 421.42 145.3 422.96 145.69C423.99 145.95 425.27 146.01 425.78 146.01C426.04 146.01 426.23 146.2 426.23 146.46C426.23 146.78 425.85 146.91 425.2 146.91C422 146.91 419.75 146.72 419.24 146.72C418.73 146.72 416.36 146.91 413.79 146.91C413.21 146.91 412.89 146.85 412.89 146.46C412.89 146.2 413.08 146.01 413.34 146.01C413.79 146.01 414.81 145.95 415.65 145.69C417.06 145.31 417.25 143.83 417.25 138.9V107.69C417.25 105.51 417.57 104.93 418.02 104.93C418.66 104.93 419.62 106.02 420.2 106.6C421.1 107.5 429.3 116.21 438.01 125.18C443.59 130.95 449.61 137.42 451.34 139.21L450.76 111.91C450.7 108.39 450.38 107.17 448.65 106.85C447.62 106.66 446.34 106.59 445.89 106.59C445.51 106.59 445.44 106.27 445.44 106.08C445.44 105.76 445.89 105.7 446.53 105.7C449.09 105.7 451.78 105.83 452.43 105.83C453.07 105.83 454.93 105.7 457.24 105.7C457.82 105.7 458.27 105.76 458.27 106.08C458.27 106.27 458.01 106.59 457.63 106.59C457.37 106.59 456.93 106.59 456.28 106.72C454.42 107.1 454.29 108.19 454.29 111.46L454.16 143.37C454.16 146.96 454.1 147.28 453.71 147.28C453.13 147.28 452.56 146.83 449.42 143.95C448.84 143.44 440.7 135.43 434.75 129.21C428.21 122.35 421.87 115.69 420.14 113.77L420.78 139.47Z" fill="white"/>
<path d="M600.9 139.09C604.62 130.5 613.2 108.14 614.61 103.52C614.93 102.56 615.19 101.66 615.19 101.09C615.19 100.58 615 99.9398 614.36 99.6198C613.59 99.3598 612.63 99.3597 611.92 99.3597C611.54 99.3597 611.21 99.2997 611.21 98.9797C611.21 98.5997 611.59 98.4697 612.62 98.4697C615.18 98.4697 618.13 98.6597 618.9 98.6597C619.28 98.6597 622.04 98.4697 623.9 98.4697C624.61 98.4697 624.99 98.5997 624.99 98.9197C624.99 99.2397 624.73 99.3698 624.22 99.3698C623.77 99.3698 622.36 99.3697 621.14 100.14C620.31 100.72 619.35 101.81 617.62 106.16C616.91 107.95 613.71 115.64 610.44 123.53C606.53 132.89 603.65 139.81 602.17 142.95C600.38 146.79 600.12 147.82 599.48 147.82C598.71 147.82 598.39 146.92 597.17 143.85L581.47 104.57C580.06 100.98 579.1 100.28 576.86 99.6397C575.9 99.3797 574.81 99.3798 574.42 99.3798C574.03 99.3798 573.91 99.1897 573.91 98.9297C573.91 98.5497 574.55 98.4797 575.58 98.4797C578.66 98.4797 582.31 98.6697 583.08 98.6697C583.72 98.6697 586.6 98.4797 589.04 98.4797C590.19 98.4797 590.77 98.6097 590.77 98.9297C590.77 99.2497 590.58 99.3798 590.13 99.3798C589.43 99.3798 588.27 99.4397 587.69 99.6997C586.98 100.02 586.86 100.53 586.86 100.98C586.86 101.81 587.63 103.8 588.59 106.3L600.9 139.09Z" fill="white"/>
<path d="M651.01 131.08C651.01 136.33 651.01 140.63 651.27 142.87C651.46 144.47 651.65 145.5 653.32 145.75C654.15 145.88 655.37 146.01 655.88 146.01C656.2 146.01 656.33 146.27 656.33 146.46C656.33 146.72 656.07 146.91 655.43 146.91C652.29 146.91 648.64 146.72 648.38 146.72C648.06 146.72 644.54 146.91 642.81 146.91C642.23 146.91 641.91 146.78 641.91 146.46C641.91 146.27 642.04 146.01 642.36 146.01C642.87 146.01 643.58 145.88 644.09 145.75C645.18 145.49 645.37 144.47 645.56 142.87C645.82 140.63 645.88 136.33 645.88 131.08V121.47C645.88 113.01 645.88 111.47 645.75 109.74C645.62 107.88 645.17 107.05 643.96 106.79C643.32 106.66 642.61 106.6 642.23 106.6C641.97 106.6 641.78 106.34 641.78 106.15C641.78 105.83 642.04 105.7 642.68 105.7C644.54 105.7 648.06 105.83 648.38 105.83C648.64 105.83 652.29 105.7 654.02 105.7C654.66 105.7 654.92 105.83 654.92 106.15C654.92 106.34 654.66 106.6 654.47 106.6C654.09 106.6 653.7 106.6 653.06 106.73C651.52 107.05 651.2 107.82 651.07 109.74C651.01 111.47 651.01 113.01 651.01 121.47V131.08Z" fill="white"/>
<path d="M682.35 121.459C682.35 112.999 682.35 111.459 682.22 109.729C682.09 107.869 681.77 106.969 679.91 106.719C679.46 106.659 678.5 106.589 677.99 106.589C677.8 106.589 677.54 106.329 677.54 106.139C677.54 105.819 677.8 105.689 678.44 105.689C681 105.689 684.66 105.82 684.98 105.82C685.62 105.82 689.21 105.689 692.54 105.689C698.18 105.689 708.5 105.179 715.16 111.909C717.98 114.729 720.67 119.279 720.67 125.749C720.67 132.609 717.72 137.86 714.58 141.07C712.14 143.57 707.08 147.349 697.47 147.349C695.03 147.349 692.02 147.159 689.59 147.029C687.16 146.839 685.23 146.709 684.98 146.709C684.85 146.709 683.83 146.769 682.67 146.769C681.52 146.829 680.17 146.899 679.27 146.899C678.69 146.899 678.37 146.769 678.37 146.449C678.37 146.259 678.5 145.999 678.82 145.999C679.33 145.999 680.04 145.869 680.55 145.739C681.64 145.479 681.77 144.459 682.02 142.859C682.34 140.619 682.34 136.32 682.34 131.07V121.459H682.35ZM687.48 127.359C687.48 133.129 687.48 138.189 687.54 139.209C687.6 140.559 687.73 142.539 688.18 143.119C688.89 144.149 690.87 145.299 697.54 145.299C702.73 145.299 707.35 143.569 710.74 140.369C713.69 137.609 715.16 132.419 715.16 127.429C715.16 120.509 712.15 116.089 709.84 113.779C704.52 108.399 698.31 107.689 691.58 107.689C690.49 107.689 688.7 107.88 688.18 108.07C687.67 108.26 687.48 108.519 687.48 109.159V127.359Z" fill="white"/>
<path d="M746.43 121.46C746.43 113 746.43 111.46 746.3 109.73C746.17 107.87 745.85 106.97 743.99 106.72C743.54 106.66 742.58 106.59 742.07 106.59C741.88 106.59 741.62 106.33 741.62 106.14C741.62 105.82 741.88 105.69 742.52 105.69C745.08 105.69 748.74 105.82 749.06 105.82C749.44 105.82 761.24 105.88 762.52 105.82C763.61 105.76 764.63 105.56 765.08 105.5C765.34 105.44 765.59 105.24 765.85 105.24C766.04 105.24 766.11 105.5 766.11 105.75C766.11 106.13 765.79 106.78 765.66 108.31C765.6 108.82 765.47 111.26 765.34 111.9C765.28 112.16 765.08 112.48 764.83 112.48C764.51 112.48 764.38 112.22 764.38 111.78C764.38 111.4 764.32 110.5 764.06 109.86C763.68 108.96 763.1 108.58 760.02 108.19C759.06 108.06 752.52 108 751.88 108C751.62 108 751.56 108.19 751.56 108.58V123.38C751.56 123.76 751.56 123.96 751.88 123.96C752.59 123.96 760.02 123.96 761.3 123.83C762.65 123.7 763.48 123.64 764.06 123.06C764.44 122.68 764.7 122.36 764.89 122.36C765.08 122.36 765.21 122.49 765.21 122.81C765.21 123.13 764.89 124.03 764.76 125.82C764.63 126.91 764.5 128.96 764.5 129.34C764.5 129.79 764.37 130.37 763.99 130.37C763.73 130.37 763.61 130.18 763.61 129.86C763.61 129.35 763.61 128.77 763.35 128.07C763.16 127.3 762.64 126.66 760.47 126.4C758.93 126.21 752.91 126.14 751.95 126.14C751.63 126.14 751.57 126.33 751.57 126.52V131.07C751.57 132.93 751.51 139.27 751.57 140.36C751.7 144.01 752.72 144.72 758.3 144.72C759.77 144.72 762.46 144.72 763.94 144.14C765.41 143.5 766.18 142.54 766.5 140.36C766.63 139.72 766.76 139.53 767.08 139.53C767.4 139.53 767.46 139.98 767.46 140.36C767.46 140.74 767.01 144.46 766.69 145.61C766.31 147.02 765.73 147.02 763.55 147.02C759.32 147.02 756.05 146.89 753.75 146.83C751.38 146.7 749.91 146.7 749.07 146.7C748.94 146.7 747.85 146.7 746.64 146.76C745.55 146.82 744.27 146.89 743.37 146.89C742.79 146.89 742.47 146.76 742.47 146.44C742.47 146.25 742.6 145.99 742.92 145.99C743.43 145.99 744.14 145.8 744.65 145.73C745.74 145.54 745.87 144.45 746.12 142.85C746.44 140.61 746.44 136.31 746.44 131.06V121.46H746.43Z" fill="white"/>
<path d="M810.51 104.93C823.2 104.93 832.81 112.68 832.81 125.37C832.81 137.55 823.77 147.61 810.19 147.61C794.75 147.61 788.15 136.01 788.15 126.21C788.14 117.43 794.94 104.93 810.51 104.93ZM811.79 145.37C816.85 145.37 827.04 142.68 827.04 126.91C827.04 113.84 819.09 106.98 810.19 106.98C800.77 106.98 793.98 112.88 793.98 124.73C793.97 137.42 801.6 145.37 811.79 145.37Z" fill="white"/>
<path d="M961.54 117.04C961.54 107.04 961.54 105.25 961.41 103.2C961.28 101.02 960.77 99.9997 958.65 99.5497C958.14 99.4197 957.05 99.3597 956.47 99.3597C956.21 99.3597 955.96 99.2297 955.96 98.9797C955.96 98.5997 956.28 98.4697 956.99 98.4697C959.87 98.4697 963.91 98.6597 964.23 98.6597C964.94 98.6597 969.81 98.4697 971.79 98.4697C975.83 98.4697 980.12 98.8497 983.52 101.29C985.12 102.44 987.94 105.58 987.94 110.01C987.94 114.75 985.95 119.49 980.19 124.81C985.45 131.54 989.8 137.24 993.52 141.21C996.98 144.86 999.74 145.57 1001.34 145.82C1002.56 146.01 1003.45 146.01 1003.84 146.01C1004.16 146.01 1004.42 146.2 1004.42 146.39C1004.42 146.77 1004.04 146.9 1002.88 146.9H998.33C994.74 146.9 993.14 146.58 991.47 145.68C988.71 144.21 986.47 141.07 982.82 136.26C980.13 132.74 977.12 128.44 975.84 126.78C975.58 126.52 975.39 126.4 975.01 126.4L967.13 126.27C966.81 126.27 966.68 126.46 966.68 126.78V128.32C966.68 134.47 966.68 139.53 967 142.23C967.19 144.09 967.58 145.5 969.5 145.75C970.4 145.88 971.81 146.01 972.38 146.01C972.76 146.01 972.89 146.2 972.89 146.39C972.89 146.71 972.57 146.9 971.86 146.9C968.34 146.9 964.3 146.71 963.98 146.71C963.92 146.71 959.88 146.9 957.96 146.9C957.25 146.9 956.93 146.77 956.93 146.39C956.93 146.2 957.06 146.01 957.44 146.01C958.02 146.01 958.79 145.88 959.36 145.75C960.64 145.49 960.96 144.08 961.22 142.23C961.54 139.54 961.54 134.48 961.54 128.32V117.04ZM966.67 122.62C966.67 122.94 966.8 123.2 967.12 123.39C968.08 123.97 971.03 124.42 973.85 124.42C975.39 124.42 977.18 124.23 978.66 123.2C980.9 121.66 982.57 118.2 982.57 113.33C982.57 105.32 978.34 100.51 971.48 100.51C969.56 100.51 967.83 100.7 967.19 100.89C966.87 101.02 966.68 101.27 966.68 101.66V122.62H966.67Z" fill="white"/>
<path d="M1021.2 121.46C1021.2 113 1021.2 111.46 1021.07 109.73C1020.94 107.87 1020.62 106.97 1018.76 106.72C1018.31 106.66 1017.35 106.59 1016.84 106.59C1016.65 106.59 1016.39 106.33 1016.39 106.14C1016.39 105.82 1016.65 105.69 1017.29 105.69C1019.85 105.69 1023.51 105.82 1023.83 105.82C1024.21 105.82 1036.01 105.88 1037.29 105.82C1038.38 105.76 1039.4 105.56 1039.85 105.5C1040.11 105.44 1040.36 105.24 1040.62 105.24C1040.81 105.24 1040.88 105.5 1040.88 105.75C1040.88 106.13 1040.56 106.78 1040.43 108.31C1040.37 108.82 1040.24 111.26 1040.11 111.9C1040.05 112.16 1039.85 112.48 1039.6 112.48C1039.28 112.48 1039.15 112.22 1039.15 111.78C1039.15 111.4 1039.09 110.5 1038.83 109.86C1038.45 108.96 1037.87 108.58 1034.79 108.19C1033.83 108.06 1027.29 108 1026.65 108C1026.39 108 1026.33 108.19 1026.33 108.58V123.38C1026.33 123.76 1026.33 123.96 1026.65 123.96C1027.36 123.96 1034.79 123.96 1036.07 123.83C1037.42 123.7 1038.25 123.64 1038.83 123.06C1039.21 122.68 1039.47 122.36 1039.66 122.36C1039.85 122.36 1039.98 122.49 1039.98 122.81C1039.98 123.13 1039.66 124.03 1039.53 125.82C1039.4 126.91 1039.27 128.96 1039.27 129.34C1039.27 129.79 1039.14 130.37 1038.76 130.37C1038.5 130.37 1038.38 130.18 1038.38 129.86C1038.38 129.35 1038.38 128.77 1038.12 128.07C1037.93 127.3 1037.41 126.66 1035.24 126.4C1033.7 126.21 1027.68 126.14 1026.72 126.14C1026.4 126.14 1026.34 126.33 1026.34 126.52V131.07C1026.34 132.93 1026.28 139.27 1026.34 140.36C1026.47 144.01 1027.49 144.72 1033.07 144.72C1034.54 144.72 1037.23 144.72 1038.71 144.14C1040.18 143.5 1040.95 142.54 1041.27 140.36C1041.4 139.72 1041.53 139.53 1041.85 139.53C1042.17 139.53 1042.23 139.98 1042.23 140.36C1042.23 140.74 1041.78 144.46 1041.46 145.61C1041.08 147.02 1040.5 147.02 1038.32 147.02C1034.09 147.02 1030.82 146.89 1028.52 146.83C1026.15 146.7 1024.68 146.7 1023.84 146.7C1023.71 146.7 1022.62 146.7 1021.4 146.76C1020.31 146.82 1019.03 146.89 1018.13 146.89C1017.55 146.89 1017.23 146.76 1017.23 146.44C1017.23 146.25 1017.36 145.99 1017.68 145.99C1018.19 145.99 1018.9 145.8 1019.41 145.73C1020.5 145.54 1020.63 144.45 1020.88 142.85C1021.2 140.61 1021.2 136.31 1021.2 131.06V121.46Z" fill="white"/>
<path d="M1069.32 121.459C1069.32 112.999 1069.32 111.459 1069.19 109.729C1069.06 107.869 1068.74 106.969 1066.88 106.719C1066.43 106.659 1065.47 106.589 1064.96 106.589C1064.77 106.589 1064.51 106.329 1064.51 106.139C1064.51 105.819 1064.77 105.689 1065.41 105.689C1067.97 105.689 1071.5 105.819 1071.95 105.819C1073.17 105.819 1077.4 105.689 1079.96 105.689C1087.2 105.689 1089.76 107.929 1090.73 108.769C1092.01 109.919 1093.55 112.359 1093.55 115.309C1093.55 123.129 1087.65 128.319 1079 128.319C1078.68 128.319 1077.72 128.319 1077.4 128.259C1077.14 128.259 1076.82 127.999 1076.82 127.749C1076.82 127.299 1077.14 127.169 1078.29 127.169C1084.38 127.169 1088.74 123.319 1088.74 118.389C1088.74 116.599 1088.55 113.069 1085.54 110.119C1082.59 107.169 1079.2 107.489 1077.91 107.489C1076.95 107.489 1075.35 107.749 1074.77 107.869C1074.45 107.929 1074.32 108.319 1074.32 108.899V131.069C1074.32 136.319 1074.32 140.619 1074.58 142.859C1074.77 144.459 1075.09 145.489 1076.82 145.739C1077.59 145.869 1078.81 145.999 1079.32 145.999C1079.64 145.999 1079.77 146.259 1079.77 146.449C1079.77 146.709 1079.51 146.899 1078.87 146.899C1075.79 146.899 1072.08 146.709 1071.82 146.709C1071.63 146.709 1067.98 146.899 1066.25 146.899C1065.67 146.899 1065.35 146.769 1065.35 146.449C1065.35 146.259 1065.48 145.999 1065.8 145.999C1066.31 145.999 1067.02 145.869 1067.53 145.739C1068.62 145.479 1068.75 144.459 1069 142.859C1069.32 140.619 1069.32 136.319 1069.32 131.069V121.459Z" fill="white"/>
<path d="M1125.65 106.79C1126.35 105 1126.61 104.68 1127 104.68C1127.58 104.68 1127.77 105.45 1128.35 106.67C1129.38 108.98 1138.41 131.47 1141.87 139.74C1143.92 144.61 1145.46 145.32 1146.68 145.7C1147.51 145.96 1148.35 146.02 1148.92 146.02C1149.24 146.02 1149.63 146.15 1149.63 146.47C1149.63 146.79 1148.99 146.92 1148.35 146.92C1147.52 146.92 1143.35 146.92 1139.44 146.79C1138.35 146.73 1137.45 146.73 1137.45 146.41C1137.45 146.15 1137.58 146.15 1137.83 146.03C1138.15 145.9 1138.73 145.45 1138.34 144.56L1133.28 132.06C1133.15 131.8 1133.09 131.74 1132.77 131.74H1119.76C1119.5 131.74 1119.31 131.87 1119.18 132.19L1115.98 140.91C1115.47 142.26 1115.15 143.6 1115.15 144.56C1115.15 145.65 1116.11 146.03 1117.07 146.03H1117.58C1118.03 146.03 1118.16 146.22 1118.16 146.48C1118.16 146.8 1117.84 146.93 1117.33 146.93C1115.98 146.93 1112.91 146.74 1112.27 146.74C1111.69 146.74 1108.87 146.93 1106.57 146.93C1105.86 146.93 1105.48 146.8 1105.48 146.48C1105.48 146.22 1105.74 146.03 1105.99 146.03C1106.37 146.03 1107.21 145.97 1107.66 145.9C1110.22 145.58 1111.31 143.66 1112.4 140.9L1125.65 106.79ZM1131.93 129.47C1132.19 129.47 1132.19 129.34 1132.12 129.09L1126.54 114.16C1126.22 113.33 1125.9 113.33 1125.58 114.16L1120.33 129.09C1120.27 129.35 1120.33 129.47 1120.52 129.47H1131.93Z" fill="white"/>
<path d="M1174.99 131.08C1174.99 136.33 1174.99 140.63 1175.25 142.87C1175.44 144.47 1175.63 145.5 1177.3 145.75C1178.13 145.88 1179.35 146.01 1179.86 146.01C1180.18 146.01 1180.31 146.27 1180.31 146.46C1180.31 146.72 1180.05 146.91 1179.41 146.91C1176.27 146.91 1172.62 146.72 1172.36 146.72C1172.04 146.72 1168.52 146.91 1166.79 146.91C1166.21 146.91 1165.89 146.78 1165.89 146.46C1165.89 146.27 1166.02 146.01 1166.34 146.01C1166.85 146.01 1167.56 145.88 1168.07 145.75C1169.16 145.49 1169.35 144.47 1169.54 142.87C1169.8 140.63 1169.86 136.33 1169.86 131.08V121.47C1169.86 113.01 1169.86 111.47 1169.73 109.74C1169.6 107.88 1169.15 107.05 1167.94 106.79C1167.3 106.66 1166.59 106.6 1166.21 106.6C1165.95 106.6 1165.76 106.34 1165.76 106.15C1165.76 105.83 1166.02 105.7 1166.66 105.7C1168.52 105.7 1172.04 105.83 1172.36 105.83C1172.62 105.83 1176.27 105.7 1178 105.7C1178.64 105.7 1178.9 105.83 1178.9 106.15C1178.9 106.34 1178.64 106.6 1178.45 106.6C1178.07 106.6 1177.68 106.6 1177.04 106.73C1175.5 107.05 1175.18 107.82 1175.05 109.74C1174.99 111.47 1174.99 113.01 1174.99 121.47V131.08Z" fill="white"/>
<path d="M1206.33 121.459C1206.33 112.999 1206.33 111.459 1206.2 109.729C1206.07 107.869 1205.75 106.969 1203.89 106.719C1203.44 106.659 1202.48 106.589 1201.97 106.589C1201.78 106.589 1201.52 106.329 1201.52 106.139C1201.52 105.819 1201.78 105.689 1202.42 105.689C1204.98 105.689 1208.76 105.819 1209.08 105.819C1209.66 105.819 1214.4 105.689 1216.13 105.689C1219.72 105.689 1223.69 106.009 1226.64 108.059C1228.05 109.089 1230.55 111.709 1230.55 115.489C1230.55 119.529 1228.88 123.439 1223.63 127.919C1228.24 133.689 1232.15 138.619 1235.42 142.019C1238.43 145.099 1240.29 145.609 1241.7 145.799C1242.79 145.989 1243.37 145.989 1243.69 145.989C1244.01 145.989 1244.2 146.249 1244.2 146.439C1244.2 146.759 1243.88 146.889 1242.85 146.889H1239.33C1236.13 146.889 1234.72 146.569 1233.31 145.799C1230.87 144.519 1228.82 141.889 1225.62 137.789C1223.25 134.839 1220.75 131.319 1219.53 129.839C1219.27 129.579 1219.15 129.519 1218.76 129.519L1211.58 129.389C1211.32 129.389 1211.2 129.519 1211.2 129.839V131.119C1211.2 136.369 1211.2 140.599 1211.46 142.849C1211.65 144.449 1211.97 145.479 1213.7 145.729C1214.47 145.859 1215.69 145.989 1216.2 145.989C1216.59 145.989 1216.65 146.249 1216.65 146.439C1216.65 146.699 1216.39 146.889 1215.75 146.889C1212.67 146.889 1209.09 146.699 1208.83 146.699C1208.77 146.699 1204.99 146.889 1203.26 146.889C1202.68 146.889 1202.36 146.759 1202.36 146.439C1202.36 146.249 1202.49 145.989 1202.81 145.989C1203.32 145.989 1204.03 145.859 1204.54 145.729C1205.63 145.469 1205.76 144.449 1206.01 142.849C1206.33 140.609 1206.33 136.309 1206.33 131.059V121.459ZM1211.2 126.079C1211.2 126.399 1211.33 126.589 1211.58 126.779C1212.41 127.229 1215.3 127.609 1217.8 127.609C1219.15 127.609 1220.68 127.549 1222.03 126.649C1223.95 125.369 1225.43 122.479 1225.43 118.319C1225.43 111.529 1221.71 107.619 1215.69 107.619C1214.02 107.619 1212.23 107.809 1211.65 107.939C1211.39 108.069 1211.2 108.259 1211.2 108.579V126.079Z" fill="white"/>
<path d="M514.97 130.33C518.173 130.33 520.77 127.733 520.77 124.53C520.77 121.327 518.173 118.73 514.97 118.73C511.767 118.73 509.17 121.327 509.17 124.53C509.17 127.733 511.767 130.33 514.97 130.33Z" fill="white"/>
<path d="M897.23 130.33C900.433 130.33 903.03 127.733 903.03 124.53C903.03 121.327 900.433 118.73 897.23 118.73C894.027 118.73 891.43 121.327 891.43 124.53C891.43 127.733 894.027 130.33 897.23 130.33Z" fill="white"/>
</svg>
