<svg width="40" height="40" viewBox="0 0 40 40" fill="none" xmlns="http://www.w3.org/2000/svg">
<circle cx="20" cy="20" r="19.5" stroke="#CAF908"/>
<g clip-path="url(#clip0_1442_360)">
<path d="M13.2422 16.3809H25.9922C26.0917 16.3809 26.187 16.3414 26.2574 16.271C26.3277 16.2007 26.3672 16.1053 26.3672 16.0059V11.8809C26.3672 11.483 26.2092 11.1015 25.9279 10.8202C25.6466 10.5389 25.265 10.3809 24.8672 10.3809H14.3672C13.9694 10.3809 13.5879 10.5389 13.3065 10.8202C13.0252 11.1015 12.8672 11.483 12.8672 11.8809V16.0059C12.8672 16.1053 12.9067 16.2007 12.977 16.271C13.0474 16.3414 13.1428 16.3809 13.2422 16.3809ZM15.8672 12.6309H17.3419C17.5357 12.628 17.7234 12.6986 17.8673 12.8286C18.0111 12.9585 18.1004 13.1381 18.1172 13.3312C18.124 13.4338 18.1097 13.5367 18.075 13.6335C18.0404 13.7303 17.9862 13.8189 17.9159 13.8939C17.8456 13.9689 17.7606 14.0287 17.6662 14.0694C17.5718 14.1102 17.47 14.1311 17.3672 14.1309H15.8925C15.6987 14.1337 15.511 14.0631 15.3672 13.9332C15.2233 13.8032 15.134 13.6237 15.1172 13.4305C15.1104 13.328 15.1248 13.2251 15.1594 13.1283C15.194 13.0314 15.2482 12.9428 15.3185 12.8678C15.3888 12.7928 15.4738 12.7331 15.5682 12.6923C15.6626 12.6515 15.7644 12.6306 15.8672 12.6309ZM28.6172 18.6365C28.618 18.5375 28.5991 18.4394 28.5617 18.3477C28.5244 18.2561 28.4693 18.1728 28.3995 18.1025C28.3298 18.0323 28.2469 17.9765 28.1555 17.9385C28.0642 17.9004 27.9662 17.8809 27.8672 17.8809H11.3672C11.2682 17.8809 11.1703 17.9004 11.0789 17.9385C10.9875 17.9765 10.9046 18.0323 10.8349 18.1025C10.7652 18.1728 10.71 18.2561 10.6727 18.3477C10.6353 18.4394 10.6165 18.5375 10.6172 18.6365C10.6196 20.2816 11.0724 21.8948 11.9264 23.3008C12.7805 24.7069 14.0033 25.8523 15.4622 26.6127L15.1369 28.888C15.0878 29.2088 15.1413 29.5369 15.2897 29.8255C15.4165 30.0681 15.6072 30.2714 15.8412 30.4133C16.0751 30.5553 16.3435 30.6305 16.6172 30.6309H22.5853C22.9111 30.6353 23.23 30.5369 23.4966 30.3496C23.718 30.1894 23.8915 29.9717 23.9983 29.7201C24.105 29.4684 24.1409 29.1924 24.1022 28.9218L23.7722 26.6155C25.2315 25.8549 26.4546 24.7091 27.3087 23.3024C28.1628 21.8958 28.6154 20.2821 28.6172 18.6365ZM16.6172 29.1309L16.8919 27.209C18.6652 27.7715 20.5692 27.7715 22.3425 27.209L22.6172 29.1309H16.6172Z" fill="#CAF908"/>
</g>
<defs>
<clipPath id="clip0_1442_360">
<rect width="24" height="24" fill="white" transform="translate(8 8)"/>
</clipPath>
</defs>
</svg>
