<svg width="40" height="40" viewBox="0 0 40 40" fill="none" xmlns="http://www.w3.org/2000/svg">
<circle cx="20" cy="20" r="19.5" stroke="#CAF908"/>
<path d="M28.8775 17.5798C28.5241 17.2104 28.1584 16.8298 28.0206 16.4951C27.8931 16.1886 27.8856 15.6804 27.8781 15.1882C27.8641 14.2732 27.8491 13.2364 27.1281 12.5154C26.4072 11.7945 25.3703 11.7795 24.4553 11.7654C23.9631 11.7579 23.455 11.7504 23.1484 11.6229C22.8147 11.4851 22.4331 11.1195 22.0637 10.7661C21.4169 10.1445 20.6819 9.44043 19.7031 9.44043C18.7244 9.44043 17.9903 10.1445 17.3425 10.7661C16.9731 11.1195 16.5925 11.4851 16.2578 11.6229C15.9531 11.7504 15.4431 11.7579 14.9509 11.7654C14.0359 11.7795 12.9991 11.7945 12.2781 12.5154C11.5572 13.2364 11.5469 14.2732 11.5281 15.1882C11.5206 15.6804 11.5131 16.1886 11.3856 16.4951C11.2478 16.8289 10.8822 17.2104 10.5287 17.5798C9.90719 18.2267 9.20312 18.9617 9.20312 19.9404C9.20312 20.9192 9.90719 21.6532 10.5287 22.3011C10.8822 22.6704 11.2478 23.0511 11.3856 23.3857C11.5131 23.6923 11.5206 24.2004 11.5281 24.6926C11.5422 25.6076 11.5572 26.6445 12.2781 27.3654C12.9991 28.0864 14.0359 28.1014 14.9509 28.1154C15.4431 28.1229 15.9513 28.1304 16.2578 28.2579C16.5916 28.3957 16.9731 28.7614 17.3425 29.1148C17.9894 29.7364 18.7244 30.4404 19.7031 30.4404C20.6819 30.4404 21.4159 29.7364 22.0637 29.1148C22.4331 28.7614 22.8138 28.3957 23.1484 28.2579C23.455 28.1304 23.9631 28.1229 24.4553 28.1154C25.3703 28.1014 26.4072 28.0864 27.1281 27.3654C27.8491 26.6445 27.8641 25.6076 27.8781 24.6926C27.8856 24.2004 27.8931 23.6923 28.0206 23.3857C28.1584 23.052 28.5241 22.6704 28.8775 22.3011C29.4991 21.6542 30.2031 20.9192 30.2031 19.9404C30.2031 18.9617 29.4991 18.2276 28.8775 17.5798ZM23.9838 18.2211L18.7338 23.4711C18.6641 23.5408 18.5814 23.5961 18.4903 23.6339C18.3993 23.6716 18.3017 23.691 18.2031 23.691C18.1046 23.691 18.007 23.6716 17.9159 23.6339C17.8249 23.5961 17.7422 23.5408 17.6725 23.4711L15.4225 21.2211C15.2818 21.0803 15.2027 20.8895 15.2027 20.6904C15.2027 20.4914 15.2818 20.3005 15.4225 20.1598C15.5632 20.0191 15.7541 19.94 15.9531 19.94C16.1521 19.94 16.343 20.0191 16.4838 20.1598L18.2031 21.8801L22.9225 17.1598C22.9922 17.0901 23.0749 17.0348 23.166 16.9971C23.257 16.9594 23.3546 16.94 23.4531 16.94C23.5517 16.94 23.6493 16.9594 23.7403 16.9971C23.8313 17.0348 23.9141 17.0901 23.9838 17.1598C24.0534 17.2295 24.1087 17.3122 24.1464 17.4033C24.1841 17.4943 24.2035 17.5919 24.2035 17.6904C24.2035 17.789 24.1841 17.8866 24.1464 17.9776C24.1087 18.0686 24.0534 18.1514 23.9838 18.2211Z" fill="#CAF908"/>
</svg>
