<svg width="124" height="48" viewBox="0 0 124 48" fill="none" xmlns="http://www.w3.org/2000/svg">
<g clip-path="url(#clip0_1239_12441)">
<path d="M21.0711 19.618C21.5707 18.0081 21.6845 16.3036 21.4036 14.6417C21.1226 12.9799 20.4547 11.407 19.4536 10.0498C18.4525 8.6925 17.1461 7.58874 15.6395 6.8273C14.133 6.06586 12.4684 5.66799 10.7797 5.66572C8.83391 5.66572 5.43514 7.08148 5.43514 7.08148C5.43514 7.08148 5.53931 5.40084 5.53931 3.76901L3.03195e-07 0L0.0172116 15.8065C0.00543544 16.0108 3.03195e-07 16.2125 3.03195e-07 16.4177C-0.000642243 19.123 1.02002 21.7293 2.85864 23.7172C4.69725 25.7052 7.21882 26.9288 9.92094 27.1443C9.48004 28.5521 9.33056 30.0346 9.4816 31.5019L9.42091 48L14.8452 44.1605C14.8452 40.8697 14.693 39.6592 14.693 39.6592C14.693 39.6592 18.2141 41.1861 20.2441 41.1861C23.0423 41.1859 25.7317 40.104 27.7478 38.1673C29.7638 36.2307 30.9498 33.5899 31.0568 30.7993C31.1638 28.0086 30.1835 25.2851 28.3217 23.2004C26.4598 21.1156 23.8612 19.8317 21.0711 19.618ZM13.8098 21.7019C12.4456 22.4771 10.8335 22.6946 9.31207 22.3087C7.79061 21.9229 6.47813 20.9637 5.65022 19.6326C4.82231 18.3015 4.54339 16.7021 4.87202 15.1701C5.20064 13.6381 6.11125 12.2928 7.41264 11.4167C8.71402 10.5405 10.3049 10.2017 11.8513 10.4713C13.3977 10.741 14.7793 11.5981 15.7059 12.8627C16.6325 14.1274 17.0321 15.7011 16.8208 17.2536C16.6094 18.806 15.8036 20.2163 14.5725 21.1884C14.5725 21.1884 14.5671 21.1884 14.5653 21.1938C14.3274 21.382 14.0754 21.5519 13.8116 21.7019H13.8098ZM20.2477 36.4995C18.9604 36.5006 17.7054 36.0969 16.6609 35.3458C15.6165 34.5946 14.8357 33.5342 14.4294 32.3151C14.0231 31.096 14.0119 29.7801 14.3974 28.5543C14.783 27.3284 15.5457 26.255 16.5772 25.4863C16.5869 25.4802 16.596 25.4732 16.6044 25.4655C16.742 25.3651 16.8843 25.2693 17.0301 25.1816C17.0301 25.1816 17.0355 25.1762 17.0392 25.1762C17.8458 24.682 18.7562 24.3812 19.699 24.2972C20.6417 24.2133 21.5912 24.3485 22.4727 24.6923C23.3543 25.036 24.1441 25.579 24.7801 26.2786C25.416 26.9782 25.8809 27.8154 26.1382 28.7245C26.3955 29.6335 26.4382 30.5897 26.263 31.518C26.0878 32.4462 25.6994 33.3214 25.1283 34.0747C24.5572 34.828 23.819 35.439 22.9716 35.8597C22.1242 36.2804 21.1906 36.4994 20.2441 36.4995H20.2477Z" fill="white"/>
<path d="M41.9231 34.9029V35.7862C41.9231 36.0273 41.9231 36.2425 41.9231 36.4317C41.9225 36.58 41.9301 36.7282 41.9457 36.8756C41.9498 36.9398 41.9652 37.0029 41.991 37.0618C42.0059 37.0888 42.0276 37.1114 42.054 37.1272C42.0804 37.1431 42.1106 37.1517 42.1414 37.1522C42.1786 37.1586 42.2202 37.164 42.2655 37.1676C42.3108 37.1712 42.3443 37.1721 42.3679 37.1721C42.3914 37.1721 42.4086 37.1821 42.4086 37.2029C42.4086 37.2237 42.3815 37.2426 42.328 37.2426C42.2574 37.2426 42.1867 37.2426 42.117 37.2426L41.9231 37.2381L41.7773 37.2327H41.7093H41.6414L41.5082 37.2381L41.3515 37.2426H41.2156C41.1622 37.2426 41.1359 37.2291 41.1359 37.2029C41.1359 37.1766 41.1486 37.1721 41.1758 37.1721C41.2009 37.1719 41.226 37.1704 41.251 37.1676C41.2766 37.1641 41.302 37.159 41.327 37.1522C41.3508 37.1481 41.373 37.1374 41.391 37.1215C41.4091 37.1055 41.4224 37.0849 41.4294 37.0618C41.4508 37.0016 41.4654 36.9391 41.4729 36.8756C41.4881 36.7281 41.4957 36.58 41.4955 36.4317C41.4955 36.2428 41.4955 36.0276 41.4955 35.7862V35.2582C41.4962 35.2542 41.4958 35.25 41.4945 35.2461C41.4932 35.2422 41.491 35.2387 41.4881 35.2358C41.4852 35.2329 41.4817 35.2307 41.4778 35.2294C41.4739 35.2281 41.4697 35.2278 41.4656 35.2284H39.3369C39.3328 35.2278 39.3287 35.2281 39.3248 35.2294C39.3208 35.2307 39.3173 35.2329 39.3144 35.2358C39.3115 35.2387 39.3093 35.2422 39.308 35.2461C39.3067 35.25 39.3064 35.2542 39.307 35.2582V35.7853C39.307 36.0264 39.307 36.2416 39.307 36.4308C39.3069 36.5791 39.3144 36.7272 39.3296 36.8747C39.3342 36.9389 39.3495 37.0018 39.3749 37.0609C39.3899 37.088 39.4118 37.1106 39.4384 37.1264C39.4649 37.1423 39.4952 37.1509 39.5262 37.1513C39.5633 37.1577 39.6041 37.1631 39.6494 37.1667C39.6947 37.1703 39.7291 37.1712 39.7527 37.1712C39.7762 37.1712 39.7925 37.1812 39.7925 37.202C39.7925 37.2228 39.7663 37.2417 39.7128 37.2417H39.5008L39.307 37.2372L39.1611 37.2318H39.0932H39.0253L38.8921 37.2372L38.7363 37.2417H38.6004C38.547 37.2417 38.5198 37.2282 38.5198 37.202C38.5198 37.1757 38.5334 37.1712 38.5606 37.1712C38.5877 37.1712 38.6086 37.1712 38.6357 37.1667C38.6611 37.1632 38.6862 37.158 38.7109 37.1513C38.7349 37.1473 38.7572 37.1368 38.7755 37.1208C38.7937 37.1048 38.8071 37.0841 38.8142 37.0609C38.8348 37.0005 38.8491 36.9381 38.8568 36.8747C38.8724 36.7273 38.88 36.5791 38.8794 36.4308C38.8794 36.2416 38.8794 36.0264 38.8794 35.7853V34.1264C38.8794 34.0513 38.8794 33.9908 38.8794 33.9455C38.8794 33.9003 38.8794 33.8551 38.8722 33.8181C38.8704 33.7497 38.853 33.6826 38.8214 33.6219C38.8015 33.5963 38.7764 33.5751 38.7479 33.5596C38.7194 33.544 38.688 33.5345 38.6557 33.5315C38.6285 33.5239 38.6005 33.5196 38.5723 33.5188H38.4818C38.4555 33.5188 38.4419 33.5089 38.4419 33.489C38.4419 33.4691 38.4682 33.4492 38.5225 33.4492H38.7037L38.8849 33.4546L39.0253 33.4601H39.0932H39.1611L39.2952 33.4546L39.451 33.4492H39.5869C39.6403 33.4492 39.6675 33.4628 39.6675 33.489C39.6675 33.5152 39.6539 33.5188 39.6268 33.5188H39.5742C39.5496 33.5218 39.5251 33.526 39.5008 33.5315C39.4725 33.5351 39.4454 33.5451 39.4215 33.5608C39.3976 33.5765 39.3777 33.5974 39.3632 33.6219C39.3332 33.6841 39.3169 33.7518 39.3151 33.8208C39.3115 33.8606 39.3088 33.9031 39.307 33.9483C39.307 33.9935 39.307 34.054 39.307 34.1291V35.0105C39.3064 35.0146 39.3067 35.0187 39.308 35.0226C39.3093 35.0265 39.3115 35.0301 39.3144 35.033C39.3173 35.0359 39.3208 35.0381 39.3248 35.0393C39.3287 35.0406 39.3328 35.041 39.3369 35.0404H41.4702C41.4742 35.041 41.4784 35.0406 41.4823 35.0393C41.4862 35.0381 41.4898 35.0359 41.4927 35.033C41.4956 35.0301 41.4978 35.0265 41.499 35.0226C41.5003 35.0187 41.5007 35.0146 41.5001 35.0105V34.1291C41.5001 34.054 41.5001 33.9935 41.5001 33.9483C41.5001 33.9031 41.4955 33.8579 41.4919 33.8208C41.4904 33.7525 41.4733 33.6854 41.4421 33.6246C41.4219 33.5992 41.3969 33.5782 41.3684 33.5627C41.3399 33.5471 41.3086 33.5374 41.2763 33.5342C41.2492 33.5267 41.2212 33.5224 41.193 33.5215H41.1024C41.0752 33.5215 41.0616 33.5116 41.0616 33.4917C41.0616 33.4655 41.0888 33.4519 41.1423 33.4519H41.3234L41.5046 33.4574L41.6459 33.4628H41.7138H41.7818L41.9149 33.4574L42.0708 33.4519H42.2066C42.2601 33.4519 42.2873 33.4655 42.2873 33.4917C42.2873 33.5179 42.2737 33.5215 42.2474 33.5215H42.194C42.1696 33.5245 42.1454 33.5288 42.1215 33.5342C42.0931 33.5379 42.0659 33.548 42.0419 33.5636C42.0179 33.5793 41.9977 33.6001 41.9829 33.6246C41.9534 33.6869 41.9371 33.7546 41.9349 33.8235C41.9349 33.8633 41.9294 33.9058 41.9276 33.951C41.9258 33.9962 41.9276 34.0567 41.9276 34.1318V34.9084L41.9231 34.9029Z" fill="white"/>
<path d="M43.5988 36.0022V34.5937C43.5988 34.5286 43.5988 34.4762 43.5988 34.4382C43.5988 34.4003 43.5988 34.3632 43.5916 34.3297C43.5885 34.2725 43.5746 34.2164 43.5508 34.1643C43.5345 34.1424 43.5134 34.1246 43.489 34.1124C43.4646 34.1002 43.4377 34.0938 43.4104 34.0938C43.3932 34.0938 43.3687 34.0884 43.337 34.0865H43.2591C43.2543 34.0873 43.2494 34.0869 43.2447 34.0855C43.2401 34.084 43.2359 34.0814 43.2324 34.0779C43.229 34.0745 43.2264 34.0703 43.2249 34.0656C43.2234 34.061 43.223 34.0561 43.2238 34.0513C43.2238 34.0278 43.2473 34.016 43.2944 34.016H43.4557H43.616C43.6667 34.016 43.7066 34.016 43.7447 34.016H43.8072H44.8643C44.9078 34.016 44.9476 34.0088 44.9848 34.0043L45.0654 33.9916L45.0953 33.979C45.1048 33.9739 45.1153 33.9711 45.1261 33.9708C45.1397 33.9708 45.146 33.9844 45.146 34.0115C45.1447 34.0346 45.1404 34.0573 45.1333 34.0793C45.1226 34.123 45.115 34.1674 45.1107 34.2122C45.1107 34.2222 45.1107 34.2402 45.1107 34.2646C45.1107 34.2891 45.1107 34.318 45.1034 34.3478C45.0962 34.3776 45.098 34.4066 45.0962 34.4337C45.0953 34.4538 45.0925 34.4738 45.088 34.4934C45.0845 34.5042 45.0797 34.5145 45.0735 34.5241C45.0709 34.5285 45.0672 34.5321 45.0628 34.5346C45.0583 34.5372 45.0533 34.5385 45.0482 34.5386C45.0246 34.5386 45.0129 34.5205 45.0129 34.4834C45.0124 34.4607 45.0105 34.4381 45.0074 34.4156C45.0043 34.3872 44.9976 34.3592 44.9875 34.3324C44.9811 34.3139 44.9705 34.2971 44.9565 34.2833C44.9425 34.2695 44.9255 34.2591 44.9069 34.2529C44.8777 34.2404 44.8474 34.231 44.8163 34.2249C44.7681 34.2146 44.7194 34.207 44.6704 34.2023C44.6286 34.1975 44.5866 34.1951 44.5445 34.195L44.3407 34.1896H44.1423H44.0246C44.0074 34.1896 43.9992 34.205 43.9992 34.2348V35.3947C43.9992 35.4255 44.0074 35.4399 44.0246 35.4399H44.3769C44.4603 35.4399 44.5391 35.4399 44.6134 35.4399C44.6876 35.4399 44.7375 35.4354 44.7637 35.4318L44.8951 35.4146C44.9273 35.41 44.9572 35.3951 44.9802 35.3721C45.0174 35.335 45.0391 35.317 45.0455 35.317C45.0518 35.317 45.0708 35.3287 45.0708 35.3513C45.0693 35.377 45.065 35.4025 45.0581 35.4273C45.0478 35.4802 45.0403 35.5336 45.0355 35.5873C45.0292 35.6316 45.0237 35.684 45.021 35.7455C45.0183 35.807 45.0156 35.8467 45.0156 35.8639C45.0153 35.8816 45.0129 35.8992 45.0083 35.9164C45.0072 35.9242 45.0033 35.9313 44.9973 35.9365C44.9913 35.9417 44.9836 35.9445 44.9757 35.9444C44.9549 35.9444 44.9449 35.9308 44.9449 35.9037C44.9449 35.8766 44.9449 35.8621 44.9449 35.8386C44.9423 35.8129 44.9363 35.7876 44.9268 35.7636C44.9189 35.7316 44.9004 35.7032 44.8743 35.6831C44.8213 35.6522 44.7616 35.6348 44.7003 35.6325C44.6704 35.6325 44.6215 35.6262 44.5545 35.6225L44.348 35.6153H44.1523H44.0309C44.011 35.6153 44.001 35.6252 44.001 35.646V36.7309C44.0027 36.7896 44.0112 36.8478 44.0264 36.9045C44.0381 36.9482 44.0659 36.986 44.1043 37.0103C44.1529 37.0382 44.207 37.0551 44.2628 37.06C44.3512 37.0698 44.4402 37.0741 44.5291 37.0726C44.5862 37.0726 44.6605 37.0726 44.7511 37.0681C44.8265 37.0674 44.9013 37.0536 44.9721 37.0274C45.0245 37.0049 45.0703 36.9694 45.1052 36.9244C45.1435 36.8665 45.1668 36.8 45.1732 36.7309C45.1832 36.6875 45.1986 36.6658 45.2185 36.6658C45.2244 36.6655 45.2302 36.6673 45.2349 36.671C45.2396 36.6747 45.2428 36.6799 45.2438 36.6857C45.2476 36.7005 45.2494 36.7157 45.2493 36.7309C45.2493 36.7381 45.2493 36.7589 45.2438 36.7942C45.2384 36.8295 45.2357 36.8692 45.2284 36.9144C45.2212 36.9596 45.2158 37.0048 45.2085 37.0455C45.2037 37.0784 45.197 37.111 45.1886 37.1432C45.184 37.1658 45.1744 37.1871 45.1605 37.2055C45.1499 37.2204 45.1351 37.2318 45.1179 37.2381C45.0962 37.2461 45.0732 37.2504 45.05 37.2507C45.0219 37.2507 44.9857 37.2507 44.9422 37.2507C44.7746 37.2507 44.627 37.2507 44.4992 37.2462L44.1722 37.2354C44.0816 37.229 44.0019 37.2254 43.943 37.2254H43.7392C43.7021 37.2254 43.6604 37.2254 43.6133 37.2309C43.5662 37.2363 43.5227 37.2363 43.4801 37.2381H43.3569C43.3098 37.2381 43.2863 37.2263 43.2863 37.2028C43.2855 37.198 43.2859 37.1931 43.2874 37.1885C43.2889 37.1838 43.2915 37.1796 43.2949 37.1762C43.2984 37.1727 43.3026 37.1702 43.3072 37.1687C43.3119 37.1672 43.3168 37.1668 43.3216 37.1676C43.3444 37.1671 43.3672 37.1647 43.3896 37.1603L43.4575 37.1477C43.4772 37.1466 43.496 37.1391 43.511 37.1264C43.5261 37.1136 43.5365 37.0964 43.5408 37.0772C43.555 37.0261 43.5658 36.9741 43.5734 36.9217C43.5893 36.7985 43.5968 36.6743 43.5961 36.5501C43.5979 36.3937 43.5988 36.2102 43.5988 36.0022Z" fill="white"/>
<path d="M46.004 36.7707L47.0457 34.0992C47.0613 34.0522 47.0813 34.0068 47.1055 33.9636C47.1099 33.9532 47.1176 33.9445 47.1274 33.9389C47.1371 33.9333 47.1485 33.931 47.1597 33.9324C47.1709 33.9339 47.1814 33.9389 47.1894 33.9469C47.1974 33.9548 47.2027 33.9651 47.2043 33.9763C47.216 34.0043 47.2332 34.0423 47.2568 34.0893C47.2704 34.1191 47.2994 34.1896 47.3474 34.2999L47.5113 34.6995L47.7197 35.2112L47.9434 35.7609L48.1554 36.2762C48.2224 36.4383 48.2777 36.573 48.3212 36.6803C48.3527 36.76 48.3906 36.8371 48.4344 36.9108C48.4634 36.9593 48.497 37.0047 48.535 37.0465C48.561 37.0748 48.5916 37.0986 48.6255 37.117C48.6499 37.1294 48.6753 37.1394 48.7016 37.1468C48.7311 37.1565 48.7615 37.1635 48.7922 37.1676C48.8221 37.1676 48.8493 37.1721 48.8729 37.1721C48.886 37.172 48.899 37.1748 48.9109 37.1803C48.9164 37.1822 48.921 37.186 48.9241 37.1909C48.9273 37.1958 48.9287 37.2016 48.9281 37.2074C48.9281 37.2209 48.9181 37.23 48.8982 37.2354C48.875 37.2404 48.8513 37.2428 48.8276 37.2426H48.5685H48.3574C48.2813 37.2426 48.2052 37.2426 48.1282 37.2354C48.0848 37.2354 48.0476 37.2291 48.0177 37.2282C47.9878 37.2273 47.9724 37.2182 47.9724 37.2056C47.9724 37.1929 47.9724 37.1893 47.9797 37.1875C47.9878 37.1844 47.9954 37.1801 48.0023 37.1748C48.0189 37.1662 48.0334 37.1542 48.0449 37.1396C48.0603 37.1233 48.0594 37.0962 48.0449 37.0591L47.6481 36.0773C47.6442 36.0699 47.6383 36.0638 47.6311 36.0595C47.624 36.0552 47.6157 36.0529 47.6074 36.0529H46.5828C46.5726 36.0531 46.5627 36.0565 46.5546 36.0627C46.5464 36.0688 46.5404 36.0775 46.5375 36.0872L46.2893 36.7707C46.2509 36.8614 46.2288 36.9581 46.2241 37.0564C46.222 37.0744 46.2253 37.0927 46.2337 37.1089C46.2421 37.125 46.2552 37.1382 46.2712 37.1468C46.303 37.1636 46.3385 37.1723 46.3745 37.1721H46.4153C46.4452 37.1721 46.4606 37.1839 46.4606 37.2074C46.4606 37.2309 46.4388 37.2426 46.3953 37.2426H46.2939L46.1734 37.2381L46.0656 37.2327H45.9977H45.9342L45.8237 37.2381L45.6879 37.2426H45.5493C45.4922 37.2426 45.4641 37.2309 45.4641 37.2074C45.4641 37.1839 45.4777 37.1721 45.504 37.1721H45.5701C45.592 37.1716 45.6138 37.1691 45.6353 37.1649C45.6802 37.1609 45.7237 37.1477 45.7631 37.1261C45.8026 37.1044 45.8371 37.0749 45.8645 37.0392C45.9217 36.9557 45.9686 36.8655 46.004 36.7707ZM46.6381 35.882H47.534C47.5476 35.882 47.5521 35.8721 47.5494 35.8513L47.111 34.6814C47.0847 34.6182 47.0593 34.6182 47.0358 34.6814L46.6236 35.8513C46.6209 35.8721 46.6263 35.882 46.6426 35.882H46.6381Z" fill="white"/>
<path d="M50.1546 34.2041V36.0005C50.1546 36.2084 50.1546 36.3928 50.1546 36.5537C50.1546 36.7147 50.1627 36.8385 50.1727 36.9262C50.1763 36.9792 50.1898 37.031 50.2126 37.079C50.2267 37.1008 50.246 37.1189 50.2688 37.1316C50.2915 37.1444 50.3169 37.1515 50.343 37.1522C50.3789 37.1594 50.4152 37.1646 50.4517 37.1676C50.4934 37.1676 50.5242 37.1721 50.5423 37.1721C50.5471 37.1713 50.552 37.1717 50.5567 37.1732C50.5613 37.1747 50.5655 37.1773 50.569 37.1807C50.5724 37.1842 50.575 37.1884 50.5765 37.193C50.578 37.1976 50.5784 37.2026 50.5776 37.2074C50.5776 37.2309 50.5541 37.2426 50.507 37.2426H50.3258L50.1546 37.2381L50.0241 37.2327H49.9607H49.8982L49.7723 37.2381L49.6265 37.2426H49.5033C49.4562 37.2426 49.4326 37.2309 49.4326 37.2074C49.4326 37.1839 49.4444 37.1739 49.4679 37.1775C49.4898 37.1774 49.5116 37.1756 49.5332 37.1721C49.5553 37.1694 49.5772 37.1646 49.5984 37.1577C49.6195 37.1541 49.6394 37.1453 49.6562 37.132C49.673 37.1187 49.6861 37.1014 49.6944 37.0817C49.713 37.0317 49.7249 36.9794 49.7297 36.9262C49.7397 36.8358 49.7451 36.7147 49.7469 36.5537C49.7488 36.3928 49.7469 36.2084 49.7469 36.0005V34.2041L49.1083 34.2149C49.0059 34.213 48.9036 34.224 48.8039 34.2475C48.7449 34.2631 48.6936 34.2997 48.6599 34.3506C48.6399 34.3758 48.6232 34.4034 48.6101 34.4328C48.6028 34.4518 48.5965 34.469 48.5893 34.4862C48.5881 34.4973 48.5828 34.5075 48.5744 34.5149C48.566 34.5223 48.5552 34.5262 48.544 34.5259C48.5368 34.5255 48.5299 34.523 48.524 34.5187C48.5204 34.515 48.5177 34.5106 48.5159 34.5058C48.5142 34.501 48.5136 34.4958 48.5141 34.4907C48.5169 34.4622 48.5211 34.4338 48.5268 34.4057C48.5349 34.3587 48.5449 34.309 48.5567 34.2574L48.5893 34.1146C48.6001 34.0703 48.6065 34.0432 48.6101 34.0341C48.6146 34.0165 48.6213 33.9995 48.63 33.9835C48.64 33.9636 48.6481 33.9537 48.6554 33.9537C48.6783 33.9554 48.7006 33.9622 48.7206 33.9736C48.7621 33.9907 48.8062 34.0008 48.8511 34.0034C48.9154 34.0106 48.9824 34.0152 49.0522 34.0188C49.1219 34.0224 49.1717 34.0188 49.1989 34.0188H50.8693C50.9427 34.0188 51.0052 34.0188 51.0505 34.0188C51.0945 34.0162 51.1384 34.0111 51.1818 34.0034C51.2153 33.9971 51.2416 33.9916 51.2624 33.9889C51.2774 33.9859 51.2925 33.984 51.3077 33.9835C51.3204 33.9835 51.3277 34.0007 51.3277 34.0341C51.3277 34.0676 51.3277 34.1074 51.3277 34.1562L51.3222 34.3026C51.3222 34.3506 51.3222 34.393 51.3222 34.4355C51.3222 34.478 51.3222 34.5024 51.3222 34.516C51.3222 34.5531 51.3086 34.5711 51.2824 34.5711C51.2775 34.5711 51.2727 34.5697 51.2687 34.5669C51.2647 34.5642 51.2615 34.5603 51.2597 34.5558C51.252 34.5368 51.2477 34.5166 51.247 34.4961L51.2416 34.4509C51.2386 34.4189 51.2283 34.388 51.2117 34.3605C51.1905 34.3295 51.1619 34.3043 51.1284 34.2873C51.0778 34.2618 51.0233 34.245 50.9671 34.2375C50.8814 34.2239 50.7948 34.2164 50.7081 34.2149L50.1546 34.2041Z" fill="white"/>
<path d="M52.6611 35.2492V36.0023C52.6611 36.2102 52.6611 36.3937 52.6611 36.5546C52.6611 36.7156 52.6692 36.8394 52.6792 36.9262C52.6829 36.9787 52.6948 37.0302 52.7145 37.079C52.7308 37.1179 52.7725 37.1423 52.8404 37.1522C52.877 37.1592 52.9139 37.1644 52.951 37.1676C52.9908 37.1676 53.0207 37.1721 53.0415 37.1721C53.0464 37.1713 53.0513 37.1717 53.0559 37.1732C53.0606 37.1747 53.0648 37.1773 53.0682 37.1807C53.0717 37.1842 53.0743 37.1884 53.0758 37.193C53.0773 37.1976 53.0776 37.2026 53.0769 37.2074C53.0769 37.2309 53.0533 37.2426 53.0062 37.2426H52.8196L52.6439 37.2381L52.5107 37.2327H52.4527H52.392L52.2743 37.2381L52.1357 37.2426H52.0152C51.9681 37.2426 51.9445 37.2309 51.9445 37.2074C51.9438 37.2026 51.9441 37.1976 51.9456 37.193C51.9471 37.1884 51.9497 37.1842 51.9532 37.1807C51.9566 37.1773 51.9608 37.1747 51.9655 37.1732C51.9701 37.1717 51.9751 37.1713 51.9799 37.1721C52.0026 37.1718 52.0253 37.1703 52.0478 37.1676C52.0708 37.1642 52.0935 37.159 52.1158 37.1522C52.1352 37.1488 52.1535 37.1402 52.1685 37.1273C52.1834 37.1144 52.1947 37.0977 52.2009 37.079C52.2168 37.0294 52.2268 36.9781 52.2308 36.9262C52.2408 36.8358 52.248 36.7156 52.2516 36.5546C52.2553 36.3937 52.2516 36.2102 52.2516 36.0023V34.5937C52.2516 34.5287 52.2516 34.4762 52.2516 34.4382C52.2516 34.4003 52.2516 34.3632 52.2444 34.3298C52.2423 34.2734 52.2287 34.218 52.2045 34.167C52.1936 34.1492 52.179 34.1339 52.1617 34.1222C52.1443 34.1105 52.1246 34.1027 52.104 34.0992C52.0791 34.0927 52.0536 34.0884 52.0279 34.0866H51.9681C51.9633 34.0873 51.9584 34.087 51.9537 34.0855C51.9491 34.084 51.9448 34.0814 51.9414 34.078C51.9379 34.0745 51.9354 34.0703 51.9339 34.0657C51.9324 34.061 51.932 34.0561 51.9328 34.0513C51.9328 34.0278 51.9563 34.0161 52.0025 34.0161H52.1312H52.2725C52.3178 34.0161 52.3567 34.0161 52.3902 34.0161H52.4509H52.5089C52.5442 34.0161 52.5841 34.0161 52.6294 34.0161H52.7707H52.8939C52.9401 34.0161 52.9636 34.0278 52.9636 34.0513C52.9644 34.0561 52.964 34.061 52.9625 34.0657C52.961 34.0703 52.9585 34.0745 52.955 34.078C52.9516 34.0814 52.9473 34.084 52.9427 34.0855C52.9381 34.087 52.9331 34.0873 52.9283 34.0866H52.8812C52.8598 34.0876 52.8385 34.091 52.8178 34.0965C52.7943 34.0993 52.7716 34.107 52.7513 34.1192C52.731 34.1313 52.7136 34.1476 52.7 34.167C52.6764 34.2191 52.6634 34.2753 52.662 34.3325C52.662 34.3662 52.662 34.4024 52.662 34.441C52.662 34.4789 52.662 34.5314 52.662 34.5965V35.2519L52.6611 35.2492Z" fill="white"/>
<path d="M54.2509 34.6462L54.3007 36.6605C54.3007 36.7509 54.3098 36.8205 54.3161 36.8783C54.3209 36.9278 54.3309 36.9766 54.346 37.0239C54.3552 37.0577 54.3726 37.0888 54.3967 37.1143C54.418 37.1331 54.444 37.1459 54.4719 37.1514C54.5132 37.162 54.5553 37.169 54.5978 37.1722C54.6413 37.1722 54.673 37.1767 54.6938 37.1767C54.7147 37.1767 54.7283 37.1884 54.7283 37.2119C54.7283 37.2354 54.702 37.2472 54.6486 37.2472C54.5208 37.2472 54.4157 37.2472 54.3333 37.24C54.2509 37.2327 54.2002 37.2318 54.1802 37.2318C54.1603 37.2318 54.1087 37.2318 54.0271 37.24C53.9456 37.2481 53.8532 37.2472 53.7554 37.2472C53.7083 37.2472 53.6847 37.2354 53.6847 37.2119C53.6839 37.2071 53.6843 37.2022 53.6858 37.1976C53.6873 37.1929 53.6899 37.1887 53.6933 37.1853C53.6968 37.1818 53.701 37.1793 53.7057 37.1778C53.7103 37.1763 53.7152 37.1759 53.7201 37.1767C53.7364 37.1767 53.7626 37.1767 53.798 37.1722C53.833 37.1689 53.8676 37.1619 53.9012 37.1514C53.9268 37.1458 53.9498 37.1318 53.9664 37.1116C53.9864 37.0851 53.9995 37.054 54.0045 37.0212C54.0143 36.969 54.0201 36.9161 54.0217 36.863C54.0217 36.7979 54.0271 36.7165 54.0271 36.6198V34.1734C54.0235 34.115 54.0293 34.0564 54.0443 33.9998C54.0561 33.9709 54.0706 33.9573 54.0878 33.9573C54.123 33.9606 54.1556 33.9774 54.1784 34.0043L54.2608 34.0875L54.4121 34.2457L54.7292 34.5802L55.1622 35.0323C55.3225 35.2004 55.4892 35.3704 55.6604 35.5449C55.7709 35.6588 55.8805 35.7733 55.9892 35.8884L56.2963 36.213C56.3923 36.3133 56.4775 36.4019 56.5481 36.4788C56.6188 36.5556 56.6731 36.6107 56.7067 36.6442L56.6614 34.5052C56.663 34.407 56.6511 34.309 56.626 34.2141C56.6162 34.1861 56.5988 34.1615 56.5758 34.1428C56.5528 34.1241 56.525 34.1122 56.4956 34.1083C56.4548 34.102 56.4132 34.0966 56.3697 34.0938C56.3262 34.0911 56.2954 34.0884 56.2791 34.0884C56.2628 34.0884 56.2519 34.0839 56.2483 34.0731C56.2473 34.065 56.2473 34.0568 56.2483 34.0486C56.2483 34.0279 56.2764 34.0179 56.3334 34.0179C56.434 34.0179 56.53 34.0179 56.6206 34.0233C56.7112 34.0288 56.7701 34.0233 56.7963 34.0233C56.8226 34.0233 56.8706 34.0233 56.9377 34.0233C57.0047 34.0233 57.0835 34.0179 57.1741 34.0179C57.2275 34.0179 57.2547 34.0279 57.2547 34.0486C57.2531 34.0579 57.2487 34.0664 57.242 34.0731C57.2374 34.0785 57.2315 34.0827 57.2249 34.0854C57.2183 34.0881 57.2111 34.0891 57.204 34.0884H57.1641C57.1421 34.0893 57.1202 34.0926 57.0989 34.0984C57.0662 34.1023 57.035 34.1144 57.0083 34.1336C56.9875 34.1519 56.9719 34.1753 56.963 34.2014C56.952 34.2366 56.9453 34.2731 56.9431 34.3099C56.9395 34.3533 56.9377 34.4067 56.9377 34.4699L56.9277 36.9706C56.9277 37.0411 56.9277 37.0962 56.9277 37.1369C56.9277 37.1776 56.9277 37.2074 56.9223 37.2273C56.9224 37.2412 56.919 37.2549 56.9123 37.2671C56.9074 37.2717 56.9009 37.2742 56.8942 37.2743C56.882 37.2741 56.8702 37.2706 56.8597 37.2644C56.8393 37.2538 56.8199 37.2414 56.8018 37.2273C56.7764 37.2083 56.7447 37.1821 56.7058 37.1487C56.6668 37.1152 56.6152 37.07 56.5572 37.0131L56.4168 36.8856C56.3377 36.8102 56.2429 36.7165 56.1323 36.6044L55.77 36.2374L55.3977 35.8586C55.27 35.7248 55.1459 35.5928 55.0227 35.4644L54.6839 35.1073L54.4121 34.8243L54.2509 34.6462Z" fill="white"/>
<path d="M60.3192 36.8955V36.1541C60.3192 36.0673 60.3174 35.9977 60.3138 35.9453C60.3122 35.9031 60.3046 35.8614 60.2911 35.8214C60.2809 35.7931 60.2601 35.7698 60.2332 35.7563C60.1997 35.7403 60.1644 35.7285 60.1281 35.7211C60.1052 35.7156 60.0819 35.7119 60.0583 35.7102H59.9804C59.9756 35.711 59.9707 35.7106 59.966 35.7091C59.9614 35.7076 59.9572 35.7051 59.9537 35.7016C59.9503 35.6982 59.9477 35.694 59.9462 35.6893C59.9447 35.6847 59.9443 35.6798 59.9451 35.675C59.9451 35.6515 59.9687 35.6397 60.0158 35.6397H60.1788H60.3428H60.4732H60.5394H60.5946H60.7124H60.851H60.9714C61.0186 35.6397 61.0421 35.6515 61.0421 35.675C61.0429 35.6798 61.0425 35.6847 61.041 35.6893C61.0395 35.694 61.0369 35.6982 61.0335 35.7016C61.03 35.7051 61.0258 35.7076 61.0212 35.7091C61.0165 35.7106 61.0116 35.711 61.0068 35.7102H60.9588C60.9376 35.7114 60.9167 35.7147 60.8963 35.7202C60.872 35.7218 60.8484 35.7288 60.8271 35.7405C60.8059 35.7522 60.7874 35.7684 60.7731 35.788C60.7466 35.8402 60.732 35.8976 60.7305 35.9561C60.7269 36.023 60.7251 36.0908 60.7251 36.1596V36.8747C60.7277 36.9351 60.7244 36.9957 60.7151 37.0555C60.7107 37.0672 60.704 37.078 60.6953 37.087C60.6865 37.096 60.676 37.1032 60.6644 37.1079C60.5916 37.1458 60.5151 37.1761 60.4361 37.1983C60.3537 37.2218 60.2703 37.2408 60.187 37.2562C60.1036 37.2715 60.0203 37.2824 59.9406 37.2887C59.8609 37.295 59.7875 37.2987 59.7241 37.2987C59.6398 37.2987 59.5429 37.2941 59.4242 37.286C59.2996 37.2765 59.176 37.2565 59.0547 37.2263C58.9175 37.1916 58.7836 37.1453 58.6543 37.088C58.5137 37.0243 58.3827 36.9415 58.2647 36.8421C58.1919 36.7788 58.126 36.7079 58.0682 36.6306C58.0022 36.543 57.9458 36.4488 57.8997 36.3494C57.849 36.2407 57.8095 36.1271 57.7819 36.0104C57.751 35.8847 57.7358 35.7556 57.7366 35.6262C57.7353 35.466 57.7554 35.3064 57.7964 35.1515C57.8338 35.014 57.8879 34.8817 57.9577 34.7574C58.0219 34.6442 58.1015 34.5405 58.1941 34.4491C58.436 34.2073 58.7489 34.0489 59.0873 33.997C59.2746 33.9681 59.4639 33.953 59.6534 33.9518C59.7241 33.9518 59.7947 33.9518 59.8672 33.9591C59.9397 33.9663 60.0067 33.9708 60.0683 33.979C60.1299 33.9871 60.1852 33.9961 60.2323 34.0043L60.3328 34.0215C60.3799 34.0323 60.437 34.0423 60.504 34.0522C60.564 34.0614 60.6245 34.0662 60.6852 34.0667C60.7223 34.0667 60.7405 34.0802 60.7405 34.1073C60.7415 34.1275 60.7415 34.1477 60.7405 34.1679C60.7359 34.2018 60.7332 34.2359 60.7323 34.2701C60.7323 34.3153 60.7323 34.3731 60.7251 34.4437C60.7178 34.5142 60.7205 34.6028 60.7205 34.7094C60.7228 34.7345 60.7184 34.7598 60.7078 34.7827C60.7033 34.7884 60.6975 34.7929 60.6909 34.7959C60.6843 34.7989 60.6771 34.8002 60.6698 34.7998C60.6499 34.7998 60.6399 34.7782 60.6399 34.7348C60.6399 34.7085 60.6281 34.667 60.6145 34.6118C60.5998 34.5548 60.5743 34.5011 60.5394 34.4536C60.4488 34.3497 60.3322 34.2717 60.2015 34.2276C59.9824 34.1489 59.7502 34.1133 59.5175 34.1227C59.3707 34.1236 59.2243 34.1378 59.08 34.1652C58.901 34.2035 58.7336 34.2837 58.5918 34.3994C58.4527 34.5111 58.3445 34.6564 58.2774 34.8215C58.1908 35.0284 58.1488 35.2511 58.1542 35.4752C58.153 35.6168 58.1697 35.7581 58.2041 35.8956C58.234 36.014 58.2752 36.1294 58.3273 36.24C58.3698 36.3305 58.4214 36.4165 58.4812 36.4968C58.5235 36.5542 58.5704 36.6081 58.6217 36.6577C58.7775 36.8088 58.9624 36.9269 59.1652 37.0048C59.3532 37.0721 59.5515 37.1061 59.7513 37.1052C59.8363 37.1046 59.9213 37.0994 60.0058 37.0898C60.0841 37.0839 60.1603 37.0618 60.2296 37.0247C60.2524 37.0104 60.2742 36.9944 60.2948 36.9768C60.3132 36.9539 60.322 36.9247 60.3192 36.8955Z" fill="white"/>
<path d="M64.3288 38.483H64.0576V33.4609H64.3288V38.483Z" fill="white"/>
<path d="M69.703 37.3131C69.3765 37.3208 69.0509 37.275 68.7392 37.1775C68.4818 37.0904 68.2448 36.952 68.0426 36.7707C67.9276 36.6673 67.8271 36.549 67.7436 36.419C67.6671 36.3009 67.6045 36.1744 67.557 36.042C67.5124 35.9174 67.4803 35.7887 67.461 35.6578C67.4432 35.5341 67.4342 35.4094 67.4338 35.2844C67.4372 35.0646 67.4754 34.8468 67.5471 34.6389C67.5922 34.5095 67.6505 34.385 67.721 34.2673C67.796 34.1381 67.8873 34.019 67.9928 33.913C68.0717 33.8352 68.1575 33.7647 68.2491 33.7023C68.3527 33.6324 68.4643 33.575 68.5816 33.5314C68.718 33.4814 68.8587 33.4436 69.0019 33.4184C69.1754 33.3888 69.3512 33.3746 69.5273 33.3759C69.6278 33.3759 69.7438 33.3805 69.8742 33.3886C70.0028 33.3965 70.1308 33.4126 70.2574 33.4365L70.5292 33.4817C70.6116 33.4944 70.6922 33.5043 70.7728 33.5116C70.7919 33.5123 70.8104 33.5182 70.8263 33.5287C70.835 33.5394 70.8392 33.553 70.838 33.5667C70.8378 33.597 70.8353 33.6272 70.8308 33.6571C70.8263 33.696 70.8199 33.7602 70.8136 33.8506C70.81 33.8904 70.8073 33.9365 70.8054 33.9889C70.8054 34.0404 70.8054 34.092 70.8054 34.1417C70.8054 34.1914 70.8054 34.2375 70.8054 34.2773C70.8054 34.3171 70.8054 34.3478 70.8054 34.3677C70.8054 34.4382 70.7873 34.4735 70.7601 34.4735C70.733 34.4735 70.7203 34.4382 70.7203 34.3677C70.7175 34.2696 70.696 34.1729 70.6569 34.0829C70.6249 33.9957 70.5713 33.9179 70.5011 33.8569C70.3823 33.7628 70.2454 33.6942 70.0989 33.6553C69.903 33.5964 69.6992 33.5677 69.4947 33.5703C69.3482 33.5687 69.2018 33.5796 69.0571 33.6029C68.9467 33.6213 68.8381 33.6497 68.7328 33.6878C68.6506 33.7181 68.5721 33.7578 68.4991 33.8063C68.4414 33.8445 68.3874 33.8881 68.3379 33.9365C68.1644 34.0979 68.039 34.3041 67.9755 34.5322C67.9141 34.7656 67.8836 35.006 67.885 35.2473C67.8856 35.7217 68.0669 36.178 68.3922 36.5239C68.5551 36.6954 68.7498 36.8335 68.9656 36.9307C69.1974 37.0344 69.449 37.0866 69.703 37.0835C69.8727 37.0859 70.0422 37.0698 70.2085 37.0356C70.3494 37.0063 70.4784 36.9358 70.579 36.8331C70.6362 36.7697 70.6796 36.6952 70.7067 36.6143C70.7324 36.5485 70.7518 36.4803 70.7647 36.4109C70.7746 36.3602 70.7919 36.3358 70.8154 36.3358C70.8219 36.3357 70.8282 36.338 70.8332 36.3421C70.8382 36.3463 70.8415 36.352 70.8426 36.3584C70.8484 36.3753 70.8511 36.393 70.8507 36.4109C70.8507 36.4208 70.8507 36.4516 70.8399 36.5013C70.829 36.551 70.8254 36.6125 70.8154 36.6821C70.8054 36.7517 70.7937 36.8168 70.7801 36.8855C70.7694 36.9422 70.7558 36.9983 70.7393 37.0537C70.7293 37.0856 70.715 37.116 70.6967 37.1441C70.6706 37.1678 70.6397 37.1857 70.6061 37.1965C70.5474 37.2191 70.4868 37.2367 70.425 37.2489C70.3502 37.265 70.2746 37.2767 70.1985 37.2842C70.1179 37.2923 70.0346 37.2996 69.9494 37.3041C69.8643 37.3086 69.7836 37.3131 69.703 37.3131Z" fill="white"/>
<path d="M71.3816 35.6199C71.3847 35.4322 71.4196 35.2463 71.4849 35.0702C71.5584 34.862 71.6725 34.6705 71.8207 34.5066C71.9689 34.3427 72.1482 34.2098 72.3481 34.1155C72.5954 34.0015 72.8657 33.9458 73.138 33.9528C73.3742 33.9506 73.609 33.9879 73.8328 34.0631C74.0376 34.1311 74.2264 34.2396 74.3881 34.3822C74.5455 34.5222 74.6709 34.6942 74.7559 34.8867C74.8474 35.0974 74.8928 35.3252 74.8891 35.5548C74.8904 35.7861 74.8468 36.0155 74.7604 36.2301C74.6787 36.4389 74.555 36.6288 74.3971 36.7882C74.2391 36.9475 74.0502 37.073 73.8419 37.1568C73.612 37.2507 73.3656 37.2978 73.1172 37.2951C72.8491 37.302 72.5828 37.2499 72.3373 37.1423C72.1317 37.0497 71.9482 36.9144 71.7992 36.7454C71.6603 36.5869 71.5541 36.4026 71.4867 36.203C71.4201 36.0156 71.3846 35.8187 71.3816 35.6199ZM71.84 35.5069C71.8367 35.7349 71.8726 35.9617 71.9459 36.1777C72.0093 36.3655 72.109 36.539 72.2394 36.6885C72.362 36.8272 72.5131 36.9379 72.6824 37.013C72.8576 37.0898 73.0472 37.1284 73.2386 37.126C73.3587 37.1234 73.478 37.1058 73.5937 37.0736C73.7383 37.0337 73.8722 36.9624 73.9859 36.8648C74.1242 36.7438 74.2335 36.5933 74.3057 36.4245C74.4016 36.1876 74.446 35.9331 74.4361 35.6777C74.4401 35.4478 74.4036 35.2189 74.3283 35.0015C74.2649 34.8199 74.1654 34.6529 74.0358 34.5106C73.918 34.3827 73.774 34.2816 73.6136 34.2141C73.4552 34.147 73.2848 34.1126 73.1127 34.1128C72.9383 34.1118 72.7652 34.1424 72.6018 34.2032C72.4499 34.2593 72.3125 34.3486 72.1996 34.4645C72.0819 34.5894 71.9918 34.7375 71.9351 34.8993C71.8689 35.0952 71.8373 35.3011 71.8418 35.5078L71.84 35.5069Z" fill="white"/>
<path d="M75.4497 35.6199C75.4524 35.4322 75.487 35.2463 75.5521 35.0702C75.6227 34.8712 75.7303 34.6872 75.8691 34.5278C76.0206 34.3552 76.2055 34.215 76.4126 34.1155C76.6599 34.0015 76.9302 33.9458 77.2025 33.9528C77.4387 33.9505 77.6735 33.9878 77.8973 34.0631C78.1022 34.1309 78.2911 34.2394 78.4526 34.3822C78.6102 34.522 78.7357 34.694 78.8204 34.8867C78.9119 35.0974 78.9573 35.3252 78.9536 35.5548C78.9549 35.7861 78.9113 36.0155 78.8249 36.2301C78.7429 36.4392 78.6188 36.6292 78.4604 36.7886C78.3019 36.948 78.1125 37.0733 77.9037 37.1568C77.6738 37.2507 77.4274 37.2978 77.179 37.2951C76.9109 37.302 76.6446 37.2499 76.399 37.1423C76.2001 37.0533 76.0218 36.9242 75.8754 36.763C75.729 36.6018 75.6177 36.412 75.5484 36.2057C75.4834 36.0172 75.45 35.8193 75.4497 35.6199ZM75.9072 35.5069C75.9039 35.7349 75.9398 35.9617 76.0132 36.1777C76.0765 36.3657 76.1765 36.5393 76.3076 36.6885C76.4296 36.8274 76.5804 36.9381 76.7496 37.013C76.9248 37.0898 77.1145 37.1284 77.3058 37.126C77.4259 37.1234 77.5452 37.1058 77.6609 37.0736C77.8055 37.0337 77.9394 36.9624 78.0531 36.8648C78.1914 36.7438 78.3007 36.5933 78.3729 36.4245C78.4688 36.1876 78.5132 35.9331 78.5034 35.6777C78.5073 35.4478 78.4708 35.2189 78.3956 35.0015C78.3321 34.8201 78.2329 34.6532 78.1039 34.5106C77.9856 34.3829 77.8414 34.2818 77.6808 34.2141C77.5224 34.147 77.352 34.1126 77.1799 34.1128C77.0055 34.1119 76.8324 34.1425 76.669 34.2032C76.5171 34.2593 76.3797 34.3486 76.2668 34.4645C76.1488 34.5883 76.0584 34.7355 76.0014 34.8966C75.9354 35.0934 75.9047 35.3003 75.9108 35.5078L75.9072 35.5069Z" fill="white"/>
<path d="M80.2852 35.2492V36.0122C80.2852 36.1695 80.2852 36.3042 80.2852 36.4163C80.2852 36.5284 80.2915 36.6224 80.2978 36.6975C80.3023 36.7584 80.3116 36.8189 80.3259 36.8783C80.333 36.914 80.3496 36.9471 80.3739 36.9741C80.4283 37.0187 80.495 37.0458 80.5651 37.0519C80.6965 37.0697 80.8292 37.0772 80.9618 37.0745C81.0672 37.0753 81.1725 37.0696 81.2771 37.0573C81.3617 37.0491 81.4399 37.0086 81.4954 36.9443C81.5231 36.9099 81.5459 36.8718 81.5633 36.8313C81.5815 36.7903 81.5943 36.7472 81.6014 36.7029C81.6077 36.6658 81.6231 36.6478 81.6467 36.6478C81.6702 36.6478 81.6766 36.6695 81.6766 36.7129C81.6766 36.7228 81.6766 36.7454 81.6766 36.7807C81.6766 36.8159 81.6675 36.8548 81.6612 36.8964C81.6548 36.938 81.6476 36.9814 81.6412 37.0266C81.6358 37.0648 81.6273 37.1026 81.6159 37.1396C81.6111 37.1615 81.6034 37.1828 81.5932 37.2029C81.5841 37.218 81.57 37.2295 81.5534 37.2354C81.5277 37.2432 81.5013 37.2484 81.4746 37.2508C81.441 37.2508 81.3948 37.2553 81.3341 37.2553C81.0253 37.2553 80.7689 37.2508 80.5642 37.2399L80.2978 37.2327H80.0813H80.0161C79.9826 37.2327 79.9437 37.2327 79.9002 37.2381C79.8567 37.2435 79.8096 37.2435 79.7643 37.2453H79.6438C79.5967 37.2453 79.5732 37.2336 79.5732 37.2101C79.5724 37.2053 79.5728 37.2004 79.5743 37.1957C79.5758 37.1911 79.5783 37.1869 79.5818 37.1834C79.5852 37.18 79.5895 37.1774 79.5941 37.1759C79.5987 37.1744 79.6037 37.174 79.6085 37.1748C79.6312 37.1745 79.6539 37.173 79.6764 37.1703C79.6994 37.1669 79.7221 37.1617 79.7444 37.1549C79.7636 37.1518 79.7816 37.1432 79.7962 37.1302C79.8108 37.1173 79.8214 37.1004 79.8268 37.0817C79.8412 37.0316 79.8521 36.9805 79.8594 36.9289C79.8757 36.8058 79.8833 36.6816 79.8821 36.5574C79.8821 36.3964 79.8821 36.2129 79.8821 36.005V34.5937C79.8821 34.5287 79.8821 34.4762 79.8821 34.4382C79.8821 34.4003 79.8821 34.3632 79.8748 34.3298C79.8724 34.2726 79.8589 34.2164 79.835 34.1643C79.8183 34.1427 79.7969 34.1251 79.7724 34.1129C79.7479 34.1007 79.721 34.0941 79.6936 34.0938C79.6696 34.0902 79.6454 34.0877 79.6212 34.0866H79.5424C79.5376 34.0872 79.5328 34.0867 79.5283 34.0851C79.5237 34.0836 79.5197 34.081 79.5163 34.0775C79.513 34.0741 79.5105 34.07 79.509 34.0654C79.5076 34.0609 79.5072 34.056 79.5079 34.0513C79.5079 34.0278 79.5306 34.0161 79.5777 34.0161H79.7389H79.8975C79.9464 34.0161 79.988 34.0161 80.0207 34.0161H80.0813H80.1466C80.1864 34.0161 80.2317 34.0161 80.2825 34.0161H80.4383H80.5696C80.6158 34.0161 80.6394 34.0278 80.6394 34.0513C80.6394 34.0748 80.6276 34.082 80.6049 34.082C80.5823 34.082 80.566 34.082 80.5388 34.082L80.4582 34.0902C80.4328 34.0918 80.4081 34.0992 80.386 34.1117C80.3639 34.1243 80.3449 34.1416 80.3305 34.1625C80.3071 34.2156 80.2942 34.2727 80.2924 34.3307C80.2924 34.3644 80.2924 34.4006 80.2924 34.4392C80.2924 34.4771 80.2924 34.5296 80.2924 34.5946V35.2501L80.2852 35.2492Z" fill="white"/>
<path d="M82.9764 35.2492V36.0023C82.9764 36.2102 82.9764 36.3937 82.9764 36.5546C82.9764 36.7156 82.9836 36.8394 82.9936 36.9262C82.9981 36.9785 83.01 37.03 83.0289 37.079C83.0414 37.1023 83.0599 37.1218 83.0826 37.1354C83.1052 37.1491 83.1311 37.1565 83.1575 37.1567C83.1911 37.1631 83.2282 37.1685 83.2681 37.1721C83.3079 37.1757 83.3387 37.1766 83.3586 37.1766C83.3635 37.1759 83.3684 37.1762 83.373 37.1777C83.3777 37.1792 83.3819 37.1818 83.3854 37.1852C83.3888 37.1887 83.3914 37.1929 83.3929 37.1975C83.3944 37.2022 83.3948 37.2071 83.394 37.2119C83.394 37.2354 83.3704 37.2472 83.3242 37.2472H83.1376L82.9619 37.2426L82.8278 37.2372H82.7698H82.7101L82.5914 37.2426L82.4537 37.2472H82.3323C82.2852 37.2472 82.2626 37.2354 82.2626 37.2119C82.2626 37.1884 82.2734 37.1766 82.297 37.1766C82.3197 37.1764 82.3424 37.1749 82.3649 37.1721C82.388 37.1689 82.4107 37.1637 82.4329 37.1567C82.4533 37.1542 82.4726 37.146 82.4886 37.133C82.5046 37.1201 82.5167 37.1029 82.5234 37.0835C82.5393 37.0339 82.5494 36.9826 82.5533 36.9307C82.5633 36.8403 82.5706 36.7201 82.5733 36.5592C82.576 36.3982 82.5787 36.2147 82.5787 36.0068V34.5937C82.5787 34.5287 82.5787 34.4762 82.5787 34.4382C82.5787 34.4003 82.5787 34.3632 82.5715 34.3298C82.5691 34.2733 82.5553 34.2179 82.5307 34.167C82.52 34.149 82.5054 34.1336 82.488 34.1219C82.4706 34.1102 82.4509 34.1024 82.4301 34.0992C82.4055 34.0926 82.3804 34.0884 82.355 34.0866H82.2943C82.2894 34.0873 82.2845 34.087 82.2799 34.0855C82.2752 34.084 82.271 34.0814 82.2676 34.078C82.2641 34.0745 82.2615 34.0703 82.26 34.0657C82.2585 34.061 82.2582 34.0561 82.2589 34.0513C82.2589 34.0278 82.2825 34.0161 82.3296 34.0161H82.4582H82.5986C82.6439 34.0161 82.6838 34.0161 82.7173 34.0161H82.7771H82.8351C82.8704 34.0161 82.9112 34.0161 82.9565 34.0161H83.0969H83.2201C83.2672 34.0161 83.2907 34.0278 83.2907 34.0513C83.2915 34.0561 83.2911 34.061 83.2896 34.0657C83.2881 34.0703 83.2855 34.0745 83.2821 34.078C83.2786 34.0814 83.2744 34.084 83.2698 34.0855C83.2651 34.087 83.2602 34.0873 83.2554 34.0866H83.2074C83.1862 34.0877 83.1653 34.0911 83.1449 34.0965C83.1212 34.0993 83.0985 34.107 83.078 34.1192C83.0576 34.1313 83.0399 34.1476 83.0262 34.167C83.0035 34.2193 82.9909 34.2755 82.9891 34.3325C82.9891 34.3662 82.9891 34.4024 82.9891 34.441C82.9891 34.4789 82.9891 34.5314 82.9891 34.5965V35.2519L82.9764 35.2492Z" fill="white"/>
<path d="M84.5672 34.6462L84.617 36.6605C84.617 36.7509 84.6252 36.8205 84.6324 36.8783C84.6368 36.9278 84.6468 36.9767 84.6623 37.0239C84.6712 37.0579 84.6886 37.089 84.7131 37.1143C84.7344 37.1331 84.7603 37.1459 84.7882 37.1514C84.8295 37.1621 84.8716 37.1691 84.9142 37.1722C84.9576 37.1722 84.9893 37.1767 85.0093 37.1767C85.0141 37.1759 85.019 37.1763 85.0237 37.1778C85.0283 37.1793 85.0325 37.1818 85.036 37.1853C85.0394 37.1887 85.042 37.1929 85.0435 37.1976C85.045 37.2022 85.0454 37.2071 85.0446 37.2119C85.0446 37.2354 85.0183 37.2472 84.964 37.2472C84.8372 37.2472 84.7321 37.2472 84.6496 37.24C84.5672 37.2327 84.5165 37.2318 84.4966 37.2318C84.4766 37.2318 84.425 37.2318 84.3426 37.24C84.2601 37.2481 84.1696 37.2472 84.0708 37.2472C84.0237 37.2472 84.0002 37.2354 84.0002 37.2119C83.9994 37.2071 83.9997 37.2022 84.0012 37.1976C84.0027 37.1929 84.0053 37.1887 84.0088 37.1853C84.0122 37.1818 84.0164 37.1793 84.0211 37.1778C84.0257 37.1763 84.0307 37.1759 84.0355 37.1767C84.0518 37.1767 84.0781 37.1767 84.1134 37.1722C84.1484 37.1689 84.1831 37.1619 84.2167 37.1514C84.2421 37.1454 84.2649 37.1315 84.2819 37.1116C84.3011 37.0847 84.3141 37.0538 84.3199 37.0212C84.3293 36.9689 84.3351 36.916 84.3371 36.863C84.3371 36.7979 84.3426 36.7165 84.3426 36.6198V34.1734C84.3389 34.115 84.3447 34.0564 84.3598 33.9998C84.3716 33.9709 84.386 33.9573 84.4024 33.9573C84.4198 33.9587 84.4369 33.9636 84.4524 33.9716C84.468 33.9797 84.4818 33.9908 84.4929 34.0043L84.5763 34.0875L84.7276 34.2457L85.0446 34.5802C85.1714 34.714 85.3164 34.8641 85.4767 35.0323C85.637 35.2004 85.8037 35.3704 85.9749 35.5449C86.0866 35.6588 86.1966 35.7733 86.3047 35.8884C86.4128 36.0035 86.5151 36.1117 86.6117 36.213C86.7078 36.3133 86.7929 36.4019 86.8636 36.4788C86.9342 36.5556 86.9886 36.6107 87.0221 36.6442L86.9768 34.5052C86.9785 34.407 86.9666 34.309 86.9415 34.2141C86.9315 34.1861 86.914 34.1614 86.8908 34.1427C86.8676 34.124 86.8397 34.1121 86.8101 34.1083C86.7703 34.102 86.7286 34.0966 86.6851 34.0938C86.6416 34.0911 86.6108 34.0884 86.5945 34.0884C86.5782 34.0884 86.5673 34.0839 86.5637 34.0731C86.5627 34.065 86.5627 34.0568 86.5637 34.0486C86.5637 34.0279 86.5918 34.0179 86.6489 34.0179C86.7494 34.0179 86.8455 34.0179 86.936 34.0233C87.0266 34.0288 87.0846 34.0233 87.1118 34.0233C87.1389 34.0233 87.1861 34.0233 87.2531 34.0233C87.3201 34.0233 87.3989 34.0179 87.4895 34.0179C87.543 34.0179 87.5701 34.0279 87.5701 34.0486C87.5678 34.0602 87.5614 34.0706 87.5521 34.0778C87.5428 34.0851 87.5312 34.0889 87.5194 34.0884H87.4796C87.4572 34.0893 87.435 34.0927 87.4134 34.0984C87.3826 34.1032 87.3534 34.1152 87.3283 34.1336C87.3075 34.1519 87.2918 34.1753 87.283 34.2014C87.2715 34.2365 87.2647 34.273 87.263 34.3099C87.2594 34.3533 87.2576 34.4067 87.2576 34.4699L87.2477 36.9706C87.2477 37.0411 87.2477 37.0962 87.2477 37.1369C87.2477 37.1776 87.2477 37.2074 87.2477 37.2273C87.2478 37.2412 87.2444 37.2549 87.2377 37.2671C87.2327 37.2717 87.2263 37.2742 87.2196 37.2743C87.2072 37.274 87.195 37.2706 87.1842 37.2644C87.164 37.2536 87.1446 37.2412 87.1263 37.2273C87.1018 37.2083 87.0692 37.1821 87.0357 37.1487C87.0022 37.1152 86.9451 37.07 86.8871 37.0131L86.7331 36.8856C86.654 36.8102 86.5592 36.7165 86.4487 36.6044L86.0863 36.2374L85.714 35.8586L85.339 35.4644L84.9993 35.1073C84.8948 34.9988 84.8043 34.9045 84.7276 34.8243L84.5672 34.6462Z" fill="white"/>
<path d="M90.6346 36.8955V36.1541C90.6346 36.0637 90.6346 35.9977 90.6346 35.9453C90.633 35.9032 90.6254 35.8614 90.6119 35.8215C90.6017 35.7931 90.5809 35.7698 90.554 35.7564C90.5201 35.7405 90.4845 35.7287 90.448 35.7211C90.4241 35.7165 90.3998 35.7141 90.3755 35.7139H90.2976C90.2928 35.7146 90.2878 35.7143 90.2832 35.7128C90.2786 35.7113 90.2743 35.7087 90.2709 35.7053C90.2674 35.7018 90.2649 35.6976 90.2634 35.693C90.2619 35.6883 90.2615 35.6834 90.2623 35.6786C90.2623 35.6551 90.2858 35.6434 90.3329 35.6434H90.496H90.6599H90.7904H90.8556H90.9109H91.0295H91.1681H91.2886C91.3357 35.6434 91.3593 35.6551 91.3593 35.6786C91.36 35.6834 91.3597 35.6883 91.3582 35.693C91.3567 35.6976 91.3541 35.7018 91.3506 35.7053C91.3472 35.7087 91.343 35.7113 91.3383 35.7128C91.3337 35.7143 91.3287 35.7146 91.3239 35.7139H91.2759C91.2548 35.7149 91.2338 35.7182 91.2134 35.7238C91.1892 35.7255 91.1656 35.7324 91.1443 35.7441C91.123 35.7558 91.1046 35.772 91.0902 35.7916C91.0633 35.8437 91.0485 35.9012 91.0467 35.9598C91.0467 36.0267 91.0467 36.0945 91.0467 36.1632V36.8783C91.0494 36.9387 91.046 36.9993 91.0368 37.0591C91.0324 37.0709 91.0257 37.0816 91.0169 37.0907C91.0082 37.0997 90.9977 37.1068 90.986 37.1115C90.913 37.1495 90.8362 37.1798 90.7569 37.2019C90.6753 37.2255 90.592 37.2444 90.5087 37.2598C90.4253 37.2752 90.342 37.286 90.2614 37.2924C90.1807 37.2987 90.1092 37.3023 90.0449 37.3023C89.9615 37.3023 89.8637 37.2978 89.7459 37.2896C89.6213 37.2801 89.4976 37.2602 89.3763 37.23C89.2392 37.1954 89.1052 37.1491 88.9759 37.0917C88.8354 37.0279 88.7043 36.9452 88.5864 36.8457C88.5133 36.7826 88.4474 36.7117 88.3899 36.6342C88.3239 36.5467 88.2674 36.4524 88.2214 36.353C88.1707 36.2442 88.131 36.1306 88.1027 36.014C88.0722 35.8882 88.057 35.7592 88.0574 35.6298C88.0564 35.4696 88.0768 35.31 88.1181 35.1552C88.1551 35.0175 88.2092 34.8851 88.2793 34.761C88.3436 34.6479 88.4231 34.5441 88.5158 34.4527C88.6009 34.3679 88.6954 34.293 88.7975 34.2294C88.984 34.1138 89.192 34.0369 89.4089 34.0034C89.5963 33.9744 89.7855 33.9593 89.9751 33.9582C90.0449 33.9582 90.1164 33.9582 90.1889 33.9654C90.2614 33.9727 90.3275 33.9772 90.39 33.9853C90.4525 33.9935 90.5068 34.0025 90.553 34.0106L90.6545 34.0278C90.7007 34.0387 90.7578 34.0486 90.8248 34.0585C90.8866 34.0679 90.9489 34.0727 91.0114 34.073C91.0485 34.073 91.0667 34.0866 91.0667 34.1137C91.0662 34.1339 91.0647 34.1542 91.0621 34.1743C91.0576 34.2081 91.0548 34.2422 91.054 34.2764C91.054 34.3216 91.054 34.3795 91.0467 34.45C91.0395 34.5205 91.0413 34.6091 91.0413 34.7158C91.0441 34.7409 91.0397 34.7663 91.0286 34.789C91.0244 34.7948 91.0187 34.7994 91.0123 34.8024C91.0058 34.8054 90.9986 34.8067 90.9915 34.8062C90.9715 34.8062 90.9607 34.7845 90.9607 34.7411C90.9546 34.6997 90.9465 34.6587 90.9362 34.6182C90.9215 34.561 90.8956 34.5072 90.8601 34.4599C90.7698 34.3562 90.6535 34.2783 90.5231 34.2339C90.3041 34.1552 90.0718 34.1196 89.8392 34.1291C89.6924 34.1299 89.5459 34.1442 89.4017 34.1715C89.2226 34.2097 89.0552 34.2899 88.9134 34.4057C88.7743 34.5174 88.6661 34.6627 88.5991 34.8279C88.5121 35.0346 88.4698 35.2574 88.475 35.4815C88.474 35.6232 88.4911 35.7645 88.5257 35.9019C88.5553 36.0205 88.5965 36.1359 88.6489 36.2464C88.6916 36.3367 88.7428 36.4226 88.802 36.5031C88.8448 36.5604 88.892 36.6142 88.9433 36.664C89.0992 36.8151 89.2841 36.9332 89.4868 37.0112C89.6749 37.0785 89.8732 37.1124 90.0729 37.1115C90.1577 37.1109 90.2424 37.1058 90.3266 37.0962C90.4049 37.0904 90.4812 37.0682 90.5503 37.0311C90.5736 37.0169 90.5957 37.0009 90.6165 36.9832C90.6253 36.9706 90.6315 36.9563 90.6346 36.9412C90.6377 36.9261 90.6377 36.9105 90.6346 36.8955Z" fill="white"/>
<path d="M94.6443 38.483H94.373V33.4609H94.6443V38.483Z" fill="white"/>
<path d="M98.3235 35.7862V34.1263C98.3235 34.0513 98.3235 33.9907 98.3235 33.9455C98.3235 33.9003 98.319 33.8551 98.3163 33.818C98.3145 33.7496 98.2971 33.6826 98.2655 33.6218C98.2454 33.5965 98.2203 33.5754 98.1918 33.5599C98.1634 33.5444 98.132 33.5347 98.0998 33.5314C98.0726 33.5238 98.0446 33.5196 98.0164 33.5188H97.9258C97.8987 33.5188 97.886 33.5088 97.886 33.489C97.886 33.4691 97.9123 33.4492 97.9657 33.4492H98.1469L98.3226 33.4546L98.4639 33.46H98.5364C98.5935 33.46 98.6841 33.46 98.8082 33.4528C98.9323 33.4456 99.0527 33.4456 99.1705 33.4456C99.3048 33.4434 99.439 33.4552 99.5709 33.4808C99.6636 33.4993 99.7546 33.5259 99.8426 33.5604C99.9035 33.5827 99.9611 33.6131 100.014 33.6508C100.046 33.6749 100.076 33.7008 100.104 33.7285C100.173 33.7984 100.23 33.8791 100.273 33.9672C100.33 34.0791 100.359 34.2033 100.356 34.3288C100.359 34.4957 100.329 34.6615 100.266 34.8161C100.207 34.9591 100.119 35.0882 100.007 35.1949C99.8938 35.3019 99.7603 35.385 99.6144 35.439C99.4563 35.497 99.289 35.5258 99.1207 35.524H99.0681C99.0505 35.5242 99.0329 35.5227 99.0156 35.5195C99.0025 35.5195 98.9895 35.5168 98.9775 35.5113C98.9721 35.5093 98.9674 35.5056 98.9643 35.5007C98.9612 35.4958 98.9598 35.49 98.9603 35.4842C98.9596 35.4757 98.962 35.4672 98.967 35.4603C98.9719 35.4533 98.9792 35.4483 98.9875 35.4462C99.0234 35.4402 99.0598 35.4378 99.0962 35.439C99.2131 35.4399 99.329 35.4184 99.4377 35.3757C99.5406 35.337 99.6349 35.2783 99.7149 35.203C99.791 35.1289 99.8525 35.0412 99.8961 34.9445C99.9421 34.8425 99.9653 34.7318 99.964 34.6199C99.964 34.5801 99.964 34.5295 99.9559 34.4699C99.9503 34.4035 99.9385 34.3378 99.9205 34.2737C99.9005 34.1991 99.8728 34.1267 99.8381 34.0576C99.7977 33.9796 99.7451 33.9085 99.6823 33.847C99.6228 33.7857 99.554 33.7341 99.4785 33.6942C99.4161 33.6615 99.3501 33.636 99.2819 33.6182C99.2268 33.6044 99.1703 33.5968 99.1134 33.5956H98.993C98.9517 33.5954 98.9106 33.5981 98.8697 33.6038C98.8386 33.6067 98.8081 33.6144 98.7792 33.6264C98.752 33.6366 98.7384 33.6683 98.7384 33.7213V35.7853C98.7384 36.0263 98.7384 36.2415 98.7384 36.4308C98.7378 36.579 98.7454 36.7272 98.761 36.8746C98.7651 36.9389 98.7805 37.0019 98.8063 37.0609C98.8213 37.088 98.8431 37.1106 98.8697 37.1265C98.8963 37.1424 98.9266 37.1509 98.9576 37.1513C98.9939 37.1576 99.0355 37.163 99.0808 37.1667C99.1261 37.1703 99.1605 37.1712 99.1841 37.1712C99.2076 37.1712 99.2239 37.1811 99.2239 37.2019C99.2239 37.2227 99.1968 37.2417 99.1433 37.2417C99.0727 37.2417 99.0029 37.2417 98.9323 37.2417L98.7384 37.2372L98.5926 37.2317H98.5246H98.4639L98.3335 37.2372L98.1777 37.2417H98.0418C97.9884 37.2417 97.9612 37.2281 97.9612 37.2019C97.9612 37.1757 97.9748 37.1712 98.001 37.1712C98.0273 37.1712 98.0499 37.1712 98.0771 37.1667C98.1025 37.1631 98.1276 37.158 98.1523 37.1513C98.1762 37.1472 98.1985 37.1366 98.2167 37.1206C98.235 37.1047 98.2484 37.084 98.2556 37.0609C98.2762 37.0004 98.2905 36.938 98.2982 36.8746C98.3138 36.7272 98.3214 36.579 98.3208 36.4308C98.3226 36.2427 98.3235 36.0278 98.3235 35.7862Z" fill="white"/>
<path d="M101.76 35.2492V36.0122C101.76 36.1695 101.76 36.3042 101.76 36.4163C101.76 36.5284 101.767 36.6224 101.773 36.6975C101.777 36.7584 101.787 36.8189 101.801 36.8783C101.808 36.914 101.825 36.9471 101.849 36.9741C101.903 37.0187 101.97 37.0458 102.04 37.0519C102.172 37.0697 102.305 37.0772 102.438 37.0745C102.543 37.0753 102.648 37.0696 102.752 37.0573C102.837 37.0493 102.915 37.0088 102.971 36.9443C103.026 36.8741 103.062 36.791 103.076 36.7029C103.083 36.6658 103.098 36.6478 103.122 36.6478C103.145 36.6478 103.152 36.6695 103.152 36.7129C103.152 36.7228 103.152 36.7454 103.152 36.7807C103.152 36.8159 103.144 36.8548 103.136 36.8964C103.129 36.938 103.123 36.9814 103.116 37.0266C103.111 37.0648 103.102 37.1026 103.091 37.1396C103.086 37.1615 103.079 37.1828 103.068 37.2029C103.059 37.218 103.045 37.2295 103.028 37.2354C103.003 37.2432 102.977 37.2484 102.951 37.2508C102.917 37.2508 102.87 37.2553 102.809 37.2553C102.5 37.2553 102.244 37.2508 102.039 37.2399L101.773 37.2327H101.556H101.491C101.458 37.2327 101.419 37.2327 101.375 37.2381C101.332 37.2435 101.285 37.2435 101.239 37.2453H101.119C101.072 37.2453 101.048 37.2336 101.048 37.2101C101.048 37.2053 101.048 37.2004 101.049 37.1957C101.051 37.1911 101.053 37.1869 101.057 37.1834C101.06 37.18 101.065 37.1774 101.069 37.1759C101.074 37.1744 101.079 37.174 101.084 37.1748C101.106 37.1745 101.129 37.173 101.152 37.1703C101.175 37.1671 101.197 37.1619 101.219 37.1549C101.239 37.1518 101.257 37.1432 101.271 37.1302C101.286 37.1173 101.297 37.1004 101.302 37.0817C101.316 37.0315 101.327 36.9805 101.335 36.9289C101.351 36.8057 101.358 36.6816 101.358 36.5574C101.358 36.3964 101.358 36.2129 101.358 36.005V34.5937C101.358 34.5287 101.358 34.4762 101.358 34.4382C101.358 34.4003 101.354 34.3632 101.35 34.3298C101.348 34.2726 101.334 34.2164 101.31 34.1643C101.294 34.1424 101.272 34.1246 101.248 34.1123C101.223 34.1001 101.196 34.0937 101.169 34.0938C101.145 34.0902 101.121 34.0877 101.096 34.0866H101.018C101.014 34.0873 101.009 34.087 101.004 34.0855C100.999 34.084 100.995 34.0814 100.992 34.078C100.988 34.0745 100.986 34.0703 100.984 34.0657C100.983 34.061 100.982 34.0561 100.983 34.0513C100.983 34.0278 101.007 34.0161 101.053 34.0161H101.214H101.373C101.421 34.0161 101.463 34.0161 101.496 34.0161H101.556H101.622C101.662 34.0161 101.707 34.0161 101.758 34.0161H101.913H102.045C102.092 34.0161 102.115 34.0278 102.115 34.0513C102.115 34.0712 102.104 34.082 102.08 34.082C102.057 34.082 102.041 34.082 102.014 34.082C101.987 34.082 101.96 34.082 101.934 34.0902C101.909 34.0917 101.884 34.099 101.862 34.1115C101.839 34.1241 101.82 34.1415 101.806 34.1625C101.783 34.2159 101.77 34.2728 101.768 34.3307C101.768 34.3644 101.768 34.4006 101.768 34.4392C101.768 34.4771 101.768 34.5296 101.768 34.5946V35.2501L101.76 35.2492Z" fill="white"/>
<path d="M103.798 35.8766V34.5938C103.798 34.5287 103.798 34.4762 103.798 34.4383C103.798 34.4003 103.798 34.3632 103.789 34.3298C103.786 34.2745 103.772 34.2203 103.75 34.1698C103.734 34.1464 103.713 34.1272 103.689 34.1139C103.664 34.1007 103.636 34.0938 103.608 34.0938C103.584 34.0902 103.56 34.0878 103.536 34.0866H103.458C103.453 34.0874 103.448 34.087 103.443 34.0855C103.439 34.084 103.435 34.0814 103.431 34.078C103.428 34.0745 103.425 34.0703 103.424 34.0657C103.422 34.0611 103.422 34.0561 103.423 34.0513C103.423 34.0278 103.446 34.0161 103.493 34.0161H103.652H103.808C103.856 34.0161 103.898 34.0161 103.933 34.0161H104.001H104.069C104.104 34.0161 104.144 34.0161 104.19 34.0161H104.328H104.449C104.499 34.0161 104.524 34.0278 104.524 34.0513C104.524 34.0748 104.51 34.0866 104.484 34.0866H104.436C104.415 34.0876 104.394 34.0909 104.374 34.0965C104.35 34.0983 104.327 34.1059 104.308 34.1187C104.288 34.1315 104.272 34.1491 104.26 34.1698C104.238 34.2217 104.225 34.277 104.222 34.3334C104.222 34.3669 104.216 34.403 104.215 34.441C104.214 34.479 104.215 34.5314 104.215 34.5974V35.8522C104.214 35.9859 104.222 36.1194 104.241 36.2518C104.254 36.3511 104.276 36.4489 104.308 36.5438C104.332 36.6172 104.367 36.6866 104.411 36.7499C104.45 36.8034 104.494 36.8531 104.542 36.8982C104.631 36.9847 104.738 37.0494 104.856 37.0872C104.969 37.1171 105.085 37.1314 105.202 37.1297C105.335 37.1307 105.467 37.1023 105.588 37.0465C105.703 36.9968 105.804 36.922 105.886 36.8277C105.992 36.6999 106.062 36.5465 106.089 36.3829C106.123 36.1877 106.139 35.9898 106.137 35.7916V34.8514C106.137 34.7475 106.137 34.6625 106.137 34.5974C106.137 34.5323 106.137 34.4799 106.132 34.441C106.127 34.4021 106.132 34.3669 106.132 34.3334C106.131 34.2779 106.119 34.2232 106.097 34.1725C106.081 34.1491 106.06 34.1299 106.036 34.1166C106.011 34.1034 105.983 34.0965 105.955 34.0965C105.931 34.0929 105.907 34.0905 105.883 34.0893H105.805C105.8 34.0901 105.795 34.0897 105.791 34.0882C105.786 34.0867 105.782 34.0841 105.778 34.0807C105.775 34.0773 105.772 34.073 105.771 34.0684C105.769 34.0638 105.769 34.0589 105.77 34.054C105.77 34.0305 105.793 34.0188 105.839 34.0188H105.996H106.145C106.19 34.0188 106.228 34.0188 106.26 34.0188H106.318C106.335 34.0188 106.384 34.0188 106.466 34.0188C106.549 34.0188 106.623 34.0134 106.69 34.0134C106.737 34.0134 106.761 34.0251 106.761 34.0486C106.761 34.0534 106.761 34.0584 106.76 34.063C106.758 34.0676 106.755 34.0718 106.752 34.0753C106.749 34.0787 106.744 34.0813 106.74 34.0828C106.735 34.0843 106.73 34.0847 106.725 34.0839H106.677C106.656 34.085 106.635 34.0883 106.615 34.0938C106.591 34.0968 106.567 34.1051 106.547 34.1183C106.526 34.1314 106.509 34.149 106.496 34.1698C106.474 34.2205 106.462 34.2747 106.459 34.3298C106.455 34.3658 106.453 34.402 106.454 34.4383V35.704C106.454 35.8215 106.454 35.939 106.438 36.0583C106.428 36.1753 106.408 36.2912 106.378 36.4046C106.348 36.5153 106.306 36.6223 106.252 36.7237C106.199 36.8234 106.128 36.912 106.041 36.985C105.967 37.0506 105.885 37.1062 105.797 37.1504C105.719 37.1877 105.639 37.218 105.556 37.2408C105.48 37.2621 105.402 37.2763 105.324 37.2833C105.249 37.2897 105.179 37.2933 105.116 37.2933C105.078 37.2933 105.025 37.2933 104.954 37.2879C104.875 37.2837 104.795 37.2722 104.718 37.2535C104.625 37.2316 104.534 37.2013 104.446 37.1631C104.352 37.1214 104.266 37.0635 104.192 36.9922C104.136 36.9392 104.085 36.8811 104.04 36.8187C103.99 36.7475 103.949 36.6707 103.917 36.5899C103.879 36.4913 103.851 36.3889 103.835 36.2844C103.811 36.1498 103.798 36.0133 103.798 35.8766Z" fill="white"/>
<path d="M110.646 34.0685L110.948 36.6957C110.948 36.7318 110.956 36.7734 110.963 36.8186C110.969 36.8633 110.981 36.9069 110.998 36.9488C111.015 36.9899 111.037 37.0288 111.063 37.0645C111.091 37.1002 111.13 37.1257 111.174 37.1369C111.23 37.156 111.289 37.1679 111.348 37.1721C111.399 37.1721 111.438 37.1775 111.461 37.1775C111.484 37.1775 111.496 37.1875 111.496 37.2074C111.496 37.2273 111.488 37.2309 111.471 37.2372C111.45 37.2452 111.428 37.2489 111.406 37.2481H111.267H111.051C110.972 37.2481 110.895 37.2453 110.822 37.2399C110.748 37.2399 110.691 37.2336 110.651 37.23C110.616 37.2277 110.581 37.2211 110.548 37.2101C110.532 37.2038 110.525 37.1947 110.525 37.1848C110.525 37.1748 110.535 37.1567 110.555 37.1495C110.575 37.1423 110.577 37.1305 110.581 37.1025C110.584 37.0681 110.582 37.0333 110.575 36.9994L110.364 34.8297H110.354L109.287 37.0094C109.241 37.0998 109.207 37.164 109.189 37.1902C109.171 37.2164 109.151 37.2327 109.131 37.2327C109.111 37.2327 109.092 37.2191 109.073 37.192C109.054 37.1649 109.024 37.1134 108.983 37.0365C108.952 36.9832 108.914 36.9127 108.867 36.8259C108.82 36.7391 108.771 36.6451 108.721 36.5492C108.671 36.4534 108.622 36.3585 108.575 36.2681C108.528 36.1777 108.491 36.1044 108.464 36.0475C108.438 35.9905 108.386 35.8902 108.33 35.7763L108.159 35.43C108.102 35.3125 108.05 35.2031 108.001 35.1009L107.897 34.8821H107.877L107.706 36.8105C107.706 36.8439 107.706 36.8792 107.706 36.9163V37.0266C107.705 37.0562 107.715 37.0851 107.735 37.1074C107.754 37.1298 107.782 37.1438 107.811 37.1468C107.844 37.1565 107.878 37.1634 107.912 37.1676C107.943 37.1676 107.966 37.1721 107.983 37.1721C107.999 37.1721 108.018 37.1821 108.018 37.2029C108.018 37.2236 107.991 37.2426 107.937 37.2426H107.809L107.684 37.2381L107.583 37.2327H107.525H107.467L107.369 37.2381L107.256 37.2426H107.153C107.102 37.2426 107.077 37.2291 107.077 37.2029C107.077 37.1766 107.092 37.1721 107.122 37.1721H107.175C107.202 37.1698 107.228 37.1658 107.253 37.1604C107.286 37.157 107.316 37.1434 107.34 37.1216C107.364 37.0998 107.38 37.0709 107.386 37.0392C107.403 36.9664 107.416 36.8928 107.425 36.8186L107.746 34.0314C107.753 33.9808 107.77 33.9564 107.797 33.9564C107.817 33.9575 107.836 33.9643 107.852 33.9758C107.868 33.9873 107.88 34.0032 107.887 34.0215L109.225 36.6731L110.514 34.0233C110.538 33.9772 110.561 33.9537 110.585 33.9537C110.609 33.9537 110.636 33.9925 110.646 34.0685Z" fill="white"/>
<path d="M112.281 36.0022V34.5937C112.281 34.5286 112.281 34.4762 112.281 34.4382C112.281 34.4002 112.281 34.3632 112.273 34.3297C112.27 34.2708 112.256 34.213 112.233 34.1588C112.217 34.1357 112.196 34.1168 112.172 34.1037C112.147 34.0906 112.12 34.0838 112.092 34.0838C112.068 34.0797 112.044 34.0773 112.019 34.0766H111.941C111.918 34.0766 111.906 34.0684 111.906 34.0513C111.906 34.0341 111.93 34.016 111.977 34.016H112.137H112.298C112.349 34.016 112.389 34.016 112.427 34.016H112.489C112.543 34.016 112.617 34.016 112.711 34.016C112.806 34.016 112.903 34.0106 113.008 34.0106C113.163 34.0059 113.319 34.0298 113.466 34.0811C113.572 34.1189 113.669 34.177 113.752 34.252C113.817 34.3106 113.867 34.3837 113.899 34.4653C113.923 34.5287 113.936 34.5956 113.939 34.6633C113.94 34.7421 113.927 34.8204 113.901 34.8947C113.876 34.9644 113.842 35.0303 113.8 35.0909C113.758 35.1513 113.71 35.2076 113.657 35.2591C113.604 35.3106 113.548 35.3621 113.491 35.4119C113.583 35.4421 113.671 35.4809 113.755 35.5276C113.847 35.5773 113.932 35.6397 114.007 35.7129C114.083 35.7883 114.147 35.8756 114.195 35.9715C114.246 36.0735 114.273 36.1864 114.271 36.3006C114.271 36.421 114.248 36.5404 114.203 36.6522C114.157 36.7672 114.087 36.8709 113.997 36.956C113.896 37.0495 113.779 37.122 113.65 37.1694C113.492 37.2258 113.326 37.2531 113.159 37.2498H112.99C112.918 37.2498 112.847 37.2444 112.777 37.2372L112.588 37.2299H112.489H112.43C112.396 37.2299 112.355 37.2299 112.308 37.2299C112.261 37.2299 112.218 37.2353 112.168 37.2372H112.042C111.995 37.2372 111.971 37.2254 111.971 37.2019C111.971 37.1856 111.983 37.1766 112.007 37.1766C112.029 37.1766 112.052 37.1742 112.074 37.1694L112.142 37.1567C112.163 37.1546 112.181 37.1462 112.196 37.1328C112.211 37.1193 112.222 37.1014 112.226 37.0817C112.239 37.0286 112.25 36.9749 112.258 36.9207C112.274 36.7975 112.281 36.6734 112.281 36.5492C112.281 36.3937 112.281 36.2101 112.281 36.0022ZM112.664 34.2149V35.3395C112.664 35.3658 112.674 35.3811 112.694 35.3847C112.714 35.3884 112.735 35.392 112.777 35.3974C112.84 35.403 112.903 35.4054 112.966 35.4046C113.057 35.4069 113.148 35.4011 113.238 35.3875C113.299 35.3744 113.354 35.3429 113.396 35.297C113.445 35.2395 113.486 35.1752 113.517 35.1063C113.553 35.0205 113.57 34.928 113.566 34.8351C113.566 34.7528 113.554 34.671 113.532 34.5919C113.51 34.5119 113.472 34.4369 113.421 34.3713C113.369 34.304 113.303 34.249 113.227 34.2104C113.139 34.1659 113.042 34.1442 112.943 34.1471C112.916 34.1471 112.881 34.1489 112.837 34.1525C112.797 34.1554 112.757 34.1605 112.717 34.1679C112.682 34.1796 112.664 34.1941 112.664 34.2149ZM112.664 35.5755V36.3666C112.664 36.457 112.664 36.532 112.664 36.5971C112.664 36.6622 112.664 36.7038 112.664 36.72C112.664 36.7707 112.671 36.8104 112.674 36.8484C112.676 36.8777 112.683 36.9065 112.695 36.9334C112.705 36.9557 112.719 36.9755 112.738 36.9913C112.761 37.0116 112.787 37.0286 112.815 37.0419C112.882 37.0699 112.952 37.0867 113.024 37.0916C113.103 37.0988 113.162 37.1015 113.205 37.1015C113.281 37.1014 113.356 37.0932 113.43 37.0771C113.505 37.0599 113.577 37.0263 113.638 36.9786C113.706 36.9258 113.76 36.8568 113.794 36.7779C113.838 36.6725 113.859 36.5586 113.855 36.4443C113.854 36.387 113.848 36.3298 113.837 36.2734C113.824 36.2016 113.803 36.1316 113.774 36.0646C113.741 35.9888 113.698 35.9178 113.646 35.8539C113.585 35.7805 113.512 35.717 113.431 35.6659C113.366 35.6231 113.293 35.5947 113.216 35.5827C113.149 35.5746 113.088 35.5656 113.035 35.5556C113.012 35.5509 112.99 35.5481 112.967 35.5475C112.934 35.5475 112.901 35.5475 112.866 35.5475H112.685C112.672 35.5448 112.664 35.5556 112.664 35.5755Z" fill="white"/>
<path d="M115.623 35.2492V36.0023C115.623 36.2102 115.623 36.3937 115.623 36.5546C115.622 36.6787 115.628 36.8027 115.64 36.9262C115.643 36.9787 115.655 37.0302 115.675 37.079C115.688 37.1011 115.706 37.1195 115.728 37.1323C115.75 37.1452 115.776 37.152 115.801 37.1522C115.835 37.1586 115.871 37.164 115.912 37.1676C115.952 37.1712 115.982 37.1721 116.002 37.1721C116.007 37.1713 116.012 37.1717 116.017 37.1732C116.021 37.1747 116.025 37.1773 116.029 37.1807C116.032 37.1842 116.035 37.1884 116.036 37.193C116.038 37.1976 116.038 37.2026 116.037 37.2074C116.037 37.2309 116.014 37.2426 115.967 37.2426H115.786L115.604 37.2381L115.471 37.2327H115.413H115.353L115.235 37.2381L115.096 37.2426H114.976C114.929 37.2426 114.905 37.2309 114.905 37.2074C114.904 37.2026 114.905 37.1976 114.906 37.193C114.908 37.1884 114.91 37.1842 114.914 37.1807C114.917 37.1773 114.921 37.1747 114.926 37.1732C114.931 37.1717 114.936 37.1713 114.94 37.1721C114.963 37.1718 114.986 37.1703 115.008 37.1676C115.031 37.1644 115.054 37.1592 115.076 37.1522C115.096 37.1488 115.114 37.1402 115.129 37.1273C115.144 37.1144 115.155 37.0977 115.162 37.079C115.177 37.0293 115.188 36.9781 115.192 36.9262C115.202 36.8358 115.209 36.7156 115.212 36.5546C115.216 36.3937 115.212 36.2102 115.212 36.0023V34.5937C115.212 34.5287 115.212 34.4762 115.212 34.4382C115.212 34.4003 115.208 34.3632 115.204 34.3298C115.202 34.2734 115.188 34.218 115.164 34.167C115.154 34.149 115.139 34.1336 115.122 34.1219C115.104 34.1102 115.084 34.1024 115.064 34.0992C115.039 34.0927 115.013 34.0884 114.988 34.0866H114.928C114.923 34.0873 114.918 34.087 114.913 34.0855C114.909 34.084 114.905 34.0814 114.901 34.078C114.898 34.0745 114.895 34.0703 114.894 34.0657C114.892 34.061 114.892 34.0561 114.892 34.0513C114.892 34.0278 114.916 34.0161 114.963 34.0161H115.091H115.232C115.277 34.0161 115.316 34.0161 115.35 34.0161H115.411H115.469C115.504 34.0161 115.544 34.0161 115.589 34.0161H115.73H115.854C115.901 34.0161 115.924 34.0278 115.924 34.0513C115.925 34.0561 115.925 34.061 115.923 34.0657C115.922 34.0703 115.919 34.0745 115.916 34.078C115.912 34.0814 115.908 34.084 115.903 34.0855C115.899 34.087 115.894 34.0873 115.889 34.0866H115.841C115.82 34.0876 115.799 34.0909 115.778 34.0965C115.755 34.0992 115.732 34.1068 115.711 34.119C115.691 34.1312 115.673 34.1475 115.66 34.167C115.637 34.2194 115.624 34.2755 115.622 34.3325C115.622 34.3659 115.622 34.4021 115.622 34.441C115.622 34.4798 115.622 34.5314 115.622 34.5965V35.2519L115.623 35.2492Z" fill="white"/>
<path d="M117.212 34.6462L117.263 36.6605C117.263 36.7509 117.271 36.8205 117.278 36.8783C117.283 36.9278 117.293 36.9766 117.308 37.0239C117.317 37.0578 117.334 37.0889 117.358 37.1143C117.379 37.1331 117.405 37.1459 117.433 37.1514C117.475 37.162 117.517 37.169 117.559 37.1722C117.603 37.1722 117.635 37.1767 117.655 37.1767C117.66 37.1759 117.665 37.1763 117.67 37.1778C117.674 37.1793 117.679 37.1818 117.682 37.1853C117.685 37.1887 117.688 37.1929 117.69 37.1976C117.691 37.2022 117.691 37.2071 117.691 37.2119C117.691 37.2354 117.663 37.2472 117.61 37.2472C117.482 37.2472 117.377 37.2472 117.296 37.24C117.214 37.2327 117.162 37.2318 117.142 37.2318C117.121 37.2318 117.071 37.2318 116.989 37.24C116.906 37.2481 116.815 37.2472 116.717 37.2472C116.67 37.2472 116.646 37.2354 116.646 37.2119C116.645 37.2071 116.646 37.2022 116.647 37.1976C116.649 37.1929 116.651 37.1887 116.655 37.1853C116.658 37.1818 116.662 37.1793 116.667 37.1778C116.672 37.1763 116.677 37.1759 116.681 37.1767C116.699 37.1767 116.724 37.1767 116.759 37.1722C116.794 37.1689 116.829 37.1619 116.863 37.1514C116.888 37.1458 116.911 37.1318 116.928 37.1116C116.948 37.0851 116.961 37.054 116.966 37.0212C116.976 36.9689 116.982 36.9161 116.984 36.863C116.984 36.7979 116.984 36.7165 116.984 36.6198V34.1734C116.981 34.1149 116.987 34.0563 117.002 33.9998C117.013 33.9709 117.028 33.9573 117.045 33.9573C117.062 33.9588 117.079 33.9637 117.095 33.9718C117.11 33.9798 117.124 33.9909 117.135 34.0043L117.219 34.0875C117.235 34.1047 117.286 34.1571 117.369 34.2457L117.686 34.5802L118.119 35.0323C118.28 35.2004 118.446 35.3704 118.617 35.5449C118.728 35.6588 118.838 35.7733 118.947 35.8884L119.253 36.213C119.349 36.3133 119.434 36.4019 119.505 36.4788C119.576 36.5556 119.63 36.6107 119.664 36.6442L119.618 34.5052C119.62 34.407 119.608 34.309 119.583 34.2141C119.573 34.1861 119.556 34.1615 119.533 34.1428C119.51 34.1241 119.482 34.1122 119.453 34.1083C119.412 34.102 119.37 34.0966 119.327 34.0938C119.283 34.0911 119.252 34.0884 119.236 34.0884C119.22 34.0884 119.209 34.0839 119.206 34.0731C119.203 34.0653 119.201 34.057 119.201 34.0486C119.201 34.0279 119.23 34.0179 119.287 34.0179C119.387 34.0179 119.482 34.0179 119.573 34.0233C119.664 34.0288 119.722 34.0233 119.754 34.0233C119.786 34.0233 119.828 34.0233 119.895 34.0233C119.962 34.0233 120.04 34.0179 120.131 34.0179C120.184 34.0179 120.212 34.0279 120.212 34.0486C120.21 34.0579 120.206 34.0664 120.199 34.0731C120.194 34.0784 120.189 34.0826 120.182 34.0853C120.176 34.088 120.169 34.089 120.162 34.0884H120.116C120.094 34.0893 120.073 34.0927 120.051 34.0984C120.019 34.1025 119.988 34.1146 119.961 34.1336C119.94 34.1521 119.925 34.1754 119.915 34.2014C119.904 34.2366 119.898 34.2731 119.895 34.3099C119.895 34.3533 119.895 34.4067 119.895 34.4699L119.885 36.9706C119.885 37.0411 119.885 37.0962 119.885 37.1369C119.885 37.1776 119.885 37.2074 119.88 37.2273C119.881 37.2413 119.877 37.2551 119.87 37.2671C119.866 37.2717 119.859 37.2743 119.853 37.2743C119.84 37.274 119.828 37.2706 119.818 37.2644C119.797 37.2536 119.778 37.2412 119.76 37.2273C119.734 37.2083 119.703 37.1821 119.664 37.1487C119.625 37.1152 119.573 37.07 119.516 37.0131L119.382 36.8856C119.303 36.8105 119.209 36.7165 119.097 36.6044L118.735 36.2374C118.604 36.1054 118.48 35.9791 118.363 35.8586L117.988 35.4644L117.648 35.1073C117.544 34.9988 117.453 34.9045 117.376 34.8243C117.3 34.7421 117.246 34.6833 117.212 34.6462Z" fill="white"/>
<path d="M123.281 36.8955V36.1541C123.281 36.0674 123.279 35.9977 123.275 35.9453C123.274 35.9031 123.266 35.8613 123.253 35.8215C123.242 35.7934 123.222 35.7702 123.196 35.7564C123.162 35.7405 123.126 35.7287 123.09 35.7211C123.065 35.7166 123.041 35.7141 123.016 35.7139H122.938C122.933 35.7146 122.928 35.7143 122.924 35.7128C122.919 35.7113 122.915 35.7087 122.912 35.7053C122.908 35.7018 122.906 35.6976 122.904 35.693C122.903 35.6883 122.902 35.6834 122.903 35.6786C122.903 35.6551 122.926 35.6434 122.974 35.6434H123.138H123.301H123.432H123.497H123.552H123.671H123.809H123.93C123.976 35.6434 124 35.6551 124 35.6786C124.001 35.6834 124 35.6883 123.999 35.693C123.997 35.6976 123.995 35.7018 123.991 35.7053C123.988 35.7087 123.984 35.7113 123.979 35.7128C123.974 35.7143 123.969 35.7146 123.965 35.7139H123.921C123.9 35.7149 123.878 35.7183 123.858 35.7238C123.833 35.7256 123.81 35.7326 123.789 35.7443C123.767 35.756 123.749 35.7721 123.734 35.7916C123.708 35.8438 123.693 35.9013 123.692 35.9598C123.688 36.0267 123.686 36.0945 123.686 36.1632V36.8783C123.69 36.9387 123.686 36.9994 123.677 37.0591C123.672 37.0708 123.666 37.0815 123.657 37.0905C123.649 37.0995 123.638 37.1067 123.627 37.1115C123.554 37.1495 123.477 37.1798 123.398 37.2019C123.315 37.2255 123.233 37.2444 123.148 37.2598C123.064 37.2752 122.983 37.286 122.902 37.2924C122.821 37.2987 122.749 37.3023 122.686 37.3023C122.601 37.3023 122.504 37.2978 122.387 37.2896C122.262 37.28 122.138 37.2601 122.016 37.23C121.879 37.1952 121.746 37.1489 121.617 37.0917C121.476 37.0279 121.344 36.9452 121.226 36.8457C121.153 36.7824 121.087 36.7115 121.03 36.6342C120.964 36.5467 120.907 36.4524 120.861 36.353C120.811 36.2442 120.771 36.1306 120.743 36.014C120.713 35.8882 120.698 35.7592 120.698 35.6298C120.697 35.4696 120.717 35.3099 120.759 35.1552C120.795 35.0176 120.849 34.8852 120.919 34.761C120.983 34.6479 121.063 34.5441 121.156 34.4527C121.241 34.3681 121.335 34.2932 121.437 34.2294C121.624 34.114 121.832 34.0372 122.049 34.0034C122.236 33.9744 122.425 33.9593 122.615 33.9582C122.686 33.9582 122.757 33.9582 122.829 33.9654C122.9 33.9727 122.968 33.9772 123.03 33.9853C123.091 33.9935 123.147 34.0025 123.194 34.0106L123.294 34.0278C123.341 34.0387 123.398 34.0486 123.465 34.0585C123.527 34.0679 123.59 34.0728 123.652 34.073C123.688 34.073 123.707 34.0866 123.707 34.1137C123.707 34.134 123.705 34.1542 123.702 34.1743C123.698 34.2082 123.695 34.2423 123.695 34.2764C123.695 34.3216 123.692 34.3795 123.686 34.45C123.686 34.5205 123.686 34.6091 123.686 34.7158C123.689 34.7409 123.684 34.7661 123.674 34.789C123.669 34.7949 123.664 34.7996 123.657 34.8026C123.65 34.8056 123.643 34.8068 123.636 34.8062C123.616 34.8062 123.606 34.7845 123.606 34.7411C123.606 34.7149 123.594 34.6733 123.581 34.6182C123.566 34.561 123.541 34.5072 123.505 34.4599C123.415 34.3562 123.299 34.2783 123.168 34.2339C122.949 34.1552 122.716 34.1195 122.484 34.1291C122.337 34.13 122.19 34.1442 122.046 34.1715C121.867 34.2098 121.7 34.2901 121.558 34.4057C121.419 34.5177 121.311 34.6629 121.243 34.8279C121.157 35.0347 121.115 35.2574 121.12 35.4815C121.119 35.6232 121.136 35.7645 121.17 35.9019C121.2 36.0206 121.241 36.1359 121.294 36.2464C121.336 36.3368 121.388 36.4229 121.447 36.5031C121.489 36.5608 121.537 36.6147 121.589 36.664C121.744 36.815 121.929 36.9331 122.132 37.0112C122.32 37.0783 122.518 37.1123 122.718 37.1115C122.803 37.1109 122.888 37.1058 122.973 37.0962C123.051 37.0904 123.127 37.0682 123.196 37.0311C123.22 37.0172 123.241 37.0011 123.262 36.9832C123.271 36.9707 123.277 36.9565 123.281 36.9414C123.284 36.9262 123.284 36.9106 123.281 36.8955Z" fill="white"/>
<path d="M40.7954 17.8045C40.7954 14.2787 40.7954 13.6259 40.7492 12.8828C40.703 12.0935 40.5164 11.722 39.7527 11.5602C39.4537 11.5081 39.1503 11.4848 38.8469 11.4905C38.5914 11.4905 38.4519 11.4435 38.4519 11.2808C38.4519 11.1181 38.615 11.072 38.9637 11.072C40.1966 11.072 41.6614 11.1416 42.127 11.1416C43.2665 11.1416 44.1742 11.072 44.965 11.072C49.17 11.072 49.9128 13.324 49.9128 14.5553C49.9128 16.4592 48.8194 17.5965 47.5404 18.6181C49.4481 19.2681 51.7743 20.9162 51.7743 23.632C51.7743 26.1164 49.8431 28.6947 45.5629 28.6947C45.2839 28.6947 44.6099 28.6486 43.9323 28.6251C43.2348 28.579 42.5364 28.5555 42.1877 28.5555C41.9322 28.5555 41.4204 28.5555 40.8615 28.579C40.327 28.579 39.7219 28.6251 39.2572 28.6251C38.9547 28.6251 38.7916 28.5555 38.7916 28.3937C38.7916 28.2771 38.8822 28.2075 39.1639 28.2075C39.4454 28.2087 39.7262 28.1784 40.0009 28.1171C40.4665 28.0266 40.5825 27.514 40.6758 26.8405C40.7917 25.8659 40.7917 24.0316 40.7917 21.8962L40.7954 17.8045ZM43.5872 18.1995C43.5872 18.3849 43.657 18.431 43.7494 18.4545C43.9595 18.5006 44.3083 18.5241 44.8427 18.5241C45.6109 18.5241 46.1227 18.4337 46.5177 18.0829C47.1228 17.5956 47.4715 16.7603 47.4715 15.6221C47.4715 14.0671 46.5657 12.0239 44.5637 12.0239C44.307 12.0131 44.0499 12.0289 43.7965 12.0709C43.6334 12.1171 43.5872 12.2102 43.5872 12.4651V18.1995ZM46.6572 20.0565C46.1689 19.7084 45.6335 19.5457 44.7268 19.4996C44.3083 19.4761 44.0755 19.4761 43.7303 19.4761C43.6397 19.4761 43.5908 19.5222 43.5908 19.6388V25.1409C43.5908 26.6724 43.6606 27.0674 44.4061 27.3694C45.0339 27.6243 45.5683 27.6478 46.1037 27.6478C47.1508 27.6478 48.9182 27.0909 48.9182 24.6762C48.9164 23.2342 48.4254 21.2869 46.6572 20.0565Z" fill="white"/>
<path d="M55.8913 19.4065C55.8913 16.4113 55.9149 15.8544 55.8687 15.2279C55.8216 14.5309 55.6359 14.3456 54.9845 14.1602C54.7243 14.108 54.4591 14.0844 54.1937 14.0897C53.9612 14.0897 53.845 14.0201 53.845 13.8809C53.845 13.7417 53.9845 13.7001 54.287 13.7001C55.3795 13.7001 56.7519 13.7462 57.357 13.7462C57.8688 13.7462 59.2412 13.7001 59.984 13.7001C60.2865 13.7001 60.426 13.7462 60.426 13.8809C60.426 14.0156 60.3092 14.0897 60.0999 14.0897C59.8965 14.0912 59.6939 14.1149 59.4957 14.1602C58.9603 14.2506 58.7973 14.5309 58.7511 15.2279C58.704 15.8544 58.704 16.4113 58.704 19.4065V22.1693C58.704 25.0478 59.2629 26.1616 60.263 26.9508C61.1688 27.6741 62.1471 27.741 62.8447 27.741C63.7288 27.741 64.7759 27.4851 65.5894 26.6959C66.7299 25.6282 66.7761 23.9105 66.7761 21.8908V19.4065C66.7761 16.4113 66.7525 15.8544 66.7299 15.2279C66.6828 14.5544 66.5206 14.3456 65.8693 14.1602C65.6244 14.1101 65.3747 14.0865 65.1247 14.0897C64.8916 14.0897 64.7753 14.0201 64.7759 13.8809C64.7759 13.7417 64.9154 13.7001 65.1945 13.7001C66.2407 13.7001 67.6131 13.7462 67.6403 13.7462C67.8731 13.7462 69.2454 13.7001 70.0363 13.7001C70.3153 13.7001 70.4548 13.7462 70.4548 13.8809C70.4548 14.0156 70.3388 14.0897 70.106 14.0897C69.9023 14.0913 69.6994 14.1149 69.5009 14.1602C68.9429 14.2506 68.8034 14.5309 68.7572 15.2279C68.7336 15.8544 68.7101 16.4113 68.7101 19.4065V21.5166C68.7101 23.7215 68.4773 26.0432 66.7561 27.4589C65.314 28.6667 63.7559 28.8756 62.4298 28.8756C61.36 28.8756 59.243 28.8286 57.7547 27.5294C56.7066 26.6263 55.8913 25.1635 55.8913 22.3085V19.4065Z" fill="white"/>
<path d="M73.9894 19.4065C73.9894 16.4113 73.9894 15.8544 73.9659 15.2279C73.9188 14.5544 73.7331 14.3456 73.0818 14.1602C72.8134 14.107 72.54 14.0833 72.2665 14.0897C72.0572 14.0897 71.9177 14.0201 71.9177 13.8809C71.9177 13.7417 72.0808 13.7001 72.3833 13.7001C73.4532 13.7001 74.7558 13.7462 75.3373 13.7462C75.9651 13.7462 77.4308 13.7001 78.6636 13.7001C81.2227 13.7001 84.6649 13.7001 86.8979 15.9521C87.9215 16.9737 88.8283 18.6218 88.8283 20.966C88.8283 23.4503 87.7584 25.3308 86.5953 26.4681C85.6659 27.3929 83.5027 28.7852 79.7344 28.7852C78.9898 28.7852 78.1038 28.7156 77.2886 28.6694C76.4733 28.5998 75.7296 28.5528 75.2178 28.5528C74.9859 28.5528 74.5438 28.5763 74.0555 28.5763C73.5664 28.5998 73.0591 28.6224 72.6361 28.6224C72.3806 28.6224 72.2411 28.5528 72.2411 28.4136C72.2411 28.3232 72.3109 28.2048 72.5663 28.2048C72.8098 28.2107 73.0531 28.1874 73.291 28.1351C73.7095 28.0447 73.8264 27.6714 73.8961 27.091C73.9867 26.2547 73.9867 24.6997 73.9867 22.8889L73.9894 19.4065ZM76.7342 21.5889C76.7342 23.6782 76.7568 25.187 76.7804 25.5812C76.8039 26.0694 76.8501 26.7655 77.0132 26.9743C77.2686 27.3459 78.083 27.7636 79.6882 27.7636C81.5488 27.7636 82.9212 27.439 84.154 26.4174C85.4802 25.3262 85.8987 23.5615 85.8987 21.5193C85.8987 19.0114 84.9023 17.3868 83.991 16.5976C82.1068 14.926 79.8739 14.7171 78.2687 14.7171C77.8502 14.7171 77.1753 14.7632 77.0132 14.8564C76.8266 14.926 76.7568 15.0191 76.7568 15.2505C76.7342 15.9241 76.7342 17.5495 76.7342 19.1045V21.5889Z" fill="white"/>
<path d="M93.0868 19.4065C93.0868 16.4113 93.0868 15.8544 93.0633 15.2279C93.0171 14.5544 92.8305 14.3456 92.1792 14.1602C91.9108 14.107 91.6374 14.0833 91.3639 14.0897C91.1546 14.0897 91.0151 14.0201 91.0151 13.8809C91.0151 13.7417 91.1782 13.7001 91.4807 13.7001C92.5506 13.7001 93.8532 13.7462 94.4347 13.7462C95.0625 13.7462 96.5282 13.7001 97.761 13.7001C100.32 13.7001 103.762 13.7001 105.995 15.9521C107.019 16.9737 107.927 18.6218 107.927 20.966C107.927 23.4503 106.856 25.3308 105.693 26.4681C104.763 27.3929 102.6 28.7852 98.8291 28.7852C98.0853 28.7852 97.1985 28.7156 96.3832 28.6694C95.568 28.5998 94.8252 28.5528 94.3134 28.5528C94.0806 28.5528 93.6385 28.5763 93.1502 28.5763C92.6611 28.5998 92.1538 28.6224 91.7308 28.6224C91.4753 28.6224 91.3358 28.5528 91.3358 28.4136C91.3358 28.3232 91.4056 28.2048 91.661 28.2048C91.9045 28.2107 92.1478 28.1874 92.3857 28.1351C92.8042 28.0447 92.9211 27.6714 92.9908 27.091C93.0814 26.2547 93.0814 24.6997 93.0814 22.8889L93.0868 19.4065ZM95.8316 21.5889C95.8316 23.6782 95.8542 25.187 95.8778 25.5812C95.9013 26.0694 95.9475 26.7655 96.1106 26.9743C96.366 27.3459 97.1804 27.7636 98.7856 27.7636C100.646 27.7636 102.019 27.439 103.251 26.4174C104.578 25.3262 104.996 23.5615 104.996 21.5193C104.996 19.0114 104 17.3868 103.088 16.5976C101.204 14.926 98.9713 14.7171 97.367 14.7171C96.9476 14.7171 96.2736 14.7632 96.1106 14.8564C95.924 14.926 95.8542 15.0191 95.8542 15.2505C95.8316 15.9241 95.8316 17.5495 95.8316 19.1045V21.5889Z" fill="white"/>
<path d="M110.532 10.1255C110.3 9.89311 110.276 9.8235 110.276 9.70687C110.276 9.63726 110.416 9.52606 110.532 9.52606C110.997 9.52606 112.021 9.82802 112.463 9.96724C113.045 10.13 113.137 10.2918 113.137 10.6399C113.137 12.0565 111.625 14.54 110.579 15.6122C110.439 15.7514 110.346 15.793 110.207 15.793C110.188 15.7938 110.169 15.7907 110.152 15.7839C110.135 15.7772 110.119 15.767 110.106 15.7539C110.093 15.7408 110.083 15.7252 110.076 15.7079C110.069 15.6907 110.066 15.6722 110.067 15.6538C110.067 15.6077 110.091 15.538 110.183 15.3518C110.601 14.5382 111.089 13.1694 111.089 11.7302C111.091 10.9563 110.742 10.3298 110.532 10.1255Z" fill="white"/>
<path d="M115.208 28.3675C114.882 28.2283 114.812 28.1351 114.812 27.694C114.812 26.6263 114.902 25.3958 114.929 25.0722C114.929 24.7702 115.019 24.5614 115.184 24.5614C115.371 24.5614 115.393 24.7467 115.393 24.886C115.407 25.2336 115.469 25.5776 115.58 25.9075C116.022 27.3703 117.557 27.8576 118.836 27.8576C120.604 27.8576 121.674 26.7429 121.674 25.3506C121.674 24.4909 121.464 23.6329 119.65 22.5643L118.464 21.8682C116.045 20.4525 115.254 19.1289 115.254 17.3877C115.254 14.973 117.58 13.418 120.417 13.418C121.396 13.409 122.372 13.5179 123.325 13.7426C123.506 13.7896 123.604 13.8592 123.604 13.9984C123.604 14.2533 123.534 14.8121 123.534 16.3661C123.534 16.7838 123.444 16.9926 123.278 16.9926C123.138 16.9926 123.069 16.8766 123.069 16.6446C123.035 16.1652 122.848 15.7093 122.534 15.3445C122.232 14.973 121.58 14.4161 120.254 14.4161C118.788 14.4161 117.463 15.1818 117.463 16.5289C117.463 17.4112 117.788 18.1073 119.626 19.1289L120.463 19.5927C123.162 21.079 123.996 22.5878 123.996 24.3752C123.996 25.8379 123.438 27.0222 121.95 28.0664C120.973 28.7626 119.624 28.8801 118.53 28.8801C117.347 28.8783 116.092 28.7617 115.208 28.3675Z" fill="white"/>
</g>
<defs>
<clipPath id="clip0_1239_12441">
<rect width="124" height="48" fill="white"/>
</clipPath>
</defs>
</svg>
