<svg width="40" height="40" viewBox="0 0 40 40" fill="none" xmlns="http://www.w3.org/2000/svg">
<circle cx="20" cy="20" r="19.5" stroke="#CAF908"/>
<g clip-path="url(#clip0_1442_380)">
<path d="M27.5 11H25.25V10.25C25.25 10.0511 25.171 9.86032 25.0303 9.71967C24.8897 9.57902 24.6989 9.5 24.5 9.5C24.3011 9.5 24.1103 9.57902 23.9697 9.71967C23.829 9.86032 23.75 10.0511 23.75 10.25V11H16.25V10.25C16.25 10.0511 16.171 9.86032 16.0303 9.71967C15.8897 9.57902 15.6989 9.5 15.5 9.5C15.3011 9.5 15.1103 9.57902 14.9697 9.71967C14.829 9.86032 14.75 10.0511 14.75 10.25V11H12.5C12.1022 11 11.7206 11.158 11.4393 11.4393C11.158 11.7206 11 12.1022 11 12.5V27.5C11 27.8978 11.158 28.2794 11.4393 28.5607C11.7206 28.842 12.1022 29 12.5 29H27.5C27.8978 29 28.2794 28.842 28.5607 28.5607C28.842 28.2794 29 27.8978 29 27.5V12.5C29 12.1022 28.842 11.7206 28.5607 11.4393C28.2794 11.158 27.8978 11 27.5 11ZM15.875 25.25C15.6525 25.25 15.435 25.184 15.25 25.0604C15.065 24.9368 14.9208 24.7611 14.8356 24.5555C14.7505 24.35 14.7282 24.1238 14.7716 23.9055C14.815 23.6873 14.9222 23.4868 15.0795 23.3295C15.2368 23.1722 15.4373 23.065 15.6555 23.0216C15.8738 22.9782 16.1 23.0005 16.3055 23.0856C16.5111 23.1708 16.6868 23.315 16.8104 23.5C16.934 23.685 17 23.9025 17 24.125C17 24.4234 16.8815 24.7095 16.6705 24.9205C16.4595 25.1315 16.1734 25.25 15.875 25.25ZM20 25.25C19.7775 25.25 19.56 25.184 19.375 25.0604C19.19 24.9368 19.0458 24.7611 18.9606 24.5555C18.8755 24.35 18.8532 24.1238 18.8966 23.9055C18.94 23.6873 19.0472 23.4868 19.2045 23.3295C19.3618 23.1722 19.5623 23.065 19.7805 23.0216C19.9988 22.9782 20.225 23.0005 20.4305 23.0856C20.6361 23.1708 20.8118 23.315 20.9354 23.5C21.059 23.685 21.125 23.9025 21.125 24.125C21.125 24.4234 21.0065 24.7095 20.7955 24.9205C20.5845 25.1315 20.2984 25.25 20 25.25ZM20 21.5C19.7775 21.5 19.56 21.434 19.375 21.3104C19.19 21.1868 19.0458 21.0111 18.9606 20.8055C18.8755 20.6 18.8532 20.3738 18.8966 20.1555C18.94 19.9373 19.0472 19.7368 19.2045 19.5795C19.3618 19.4222 19.5623 19.315 19.7805 19.2716C19.9988 19.2282 20.225 19.2505 20.4305 19.3356C20.6361 19.4208 20.8118 19.565 20.9354 19.75C21.059 19.935 21.125 20.1525 21.125 20.375C21.125 20.6734 21.0065 20.9595 20.7955 21.1705C20.5845 21.3815 20.2984 21.5 20 21.5ZM24.125 25.25C23.9025 25.25 23.685 25.184 23.5 25.0604C23.315 24.9368 23.1708 24.7611 23.0856 24.5555C23.0005 24.35 22.9782 24.1238 23.0216 23.9055C23.065 23.6873 23.1722 23.4868 23.3295 23.3295C23.4868 23.1722 23.6873 23.065 23.9055 23.0216C24.1238 22.9782 24.35 23.0005 24.5555 23.0856C24.7611 23.1708 24.9368 23.315 25.0604 23.5C25.184 23.685 25.25 23.9025 25.25 24.125C25.25 24.4234 25.1315 24.7095 24.9205 24.9205C24.7095 25.1315 24.4234 25.25 24.125 25.25ZM24.125 21.5C23.9025 21.5 23.685 21.434 23.5 21.3104C23.315 21.1868 23.1708 21.0111 23.0856 20.8055C23.0005 20.6 22.9782 20.3738 23.0216 20.1555C23.065 19.9373 23.1722 19.7368 23.3295 19.5795C23.4868 19.4222 23.6873 19.315 23.9055 19.2716C24.1238 19.2282 24.35 19.2505 24.5555 19.3356C24.7611 19.4208 24.9368 19.565 25.0604 19.75C25.184 19.935 25.25 20.1525 25.25 20.375C25.25 20.6734 25.1315 20.9595 24.9205 21.1705C24.7095 21.3815 24.4234 21.5 24.125 21.5ZM27.5 15.5H12.5V12.5H14.75V13.25C14.75 13.4489 14.829 13.6397 14.9697 13.7803C15.1103 13.921 15.3011 14 15.5 14C15.6989 14 15.8897 13.921 16.0303 13.7803C16.171 13.6397 16.25 13.4489 16.25 13.25V12.5H23.75V13.25C23.75 13.4489 23.829 13.6397 23.9697 13.7803C24.1103 13.921 24.3011 14 24.5 14C24.6989 14 24.8897 13.921 25.0303 13.7803C25.171 13.6397 25.25 13.4489 25.25 13.25V12.5H27.5V15.5Z" fill="#CAF908"/>
</g>
<defs>
<clipPath id="clip0_1442_380">
<rect width="24" height="24" fill="white" transform="translate(8 8)"/>
</clipPath>
</defs>
</svg>
