<svg width="40" height="40" viewBox="0 0 40 40" fill="none" xmlns="http://www.w3.org/2000/svg">
<circle cx="20" cy="20" r="19.5" stroke="#CAF908"/>
<path d="M29.5897 27.6301C27.4869 26.5979 26.2813 24.3882 26.2813 21.5645V19.9417C26.2821 19.6411 26.1922 19.3473 26.0235 19.0986C25.8547 18.8499 25.6149 18.6579 25.3353 18.5476L22.6494 17.4732C22.4654 17.3996 22.318 17.2561 22.2395 17.0741C22.161 16.8921 22.1577 16.6864 22.2303 16.502L24.3228 11.1892C24.7813 10.0136 24.2188 8.64668 23.0319 8.20605C22.4794 8.00059 21.8684 8.02014 21.3301 8.2605C20.7919 8.50085 20.3695 8.94282 20.1538 9.49136L18.0547 14.822C18.0185 14.9139 17.9645 14.9978 17.8958 15.0688C17.8271 15.1398 17.7451 15.1965 17.6544 15.2357C17.5637 15.2749 17.4662 15.2958 17.3674 15.2972C17.2686 15.2986 17.1705 15.2805 17.0788 15.2439L14.3853 14.1657C14.1104 14.0545 13.8085 14.0277 13.5183 14.0888C13.2281 14.1499 12.9627 14.2962 12.756 14.5089C10.7825 16.5395 9.78127 18.9123 9.78127 21.5645C9.77611 24.2742 10.8231 26.88 12.7016 28.8329C12.7726 28.9067 12.8578 28.9652 12.952 29.005C13.0463 29.0448 13.1477 29.065 13.25 29.0645H29.2813C29.4725 29.0648 29.6566 28.9922 29.796 28.8613C29.9354 28.7304 30.0196 28.5513 30.0313 28.3604C30.0379 28.2087 29.9995 28.0584 29.921 27.9285C29.8424 27.7985 29.7271 27.6947 29.5897 27.6301ZM18.3228 27.5645C17.2133 26.4999 16.4252 25.145 16.0485 23.6542C16.003 23.4664 15.8886 23.3026 15.7279 23.1952C15.5673 23.0879 15.3722 23.0449 15.1813 23.0748C15.0796 23.0932 14.9828 23.1323 14.897 23.1898C14.8112 23.2473 14.7382 23.322 14.6826 23.409C14.6269 23.4961 14.5899 23.5937 14.5737 23.6957C14.5576 23.7977 14.5627 23.902 14.5888 24.002C14.9163 25.2934 15.5018 26.5053 16.31 27.5645H13.5725C12.0939 25.9161 11.2778 23.7788 11.2813 21.5645C11.272 20.3909 11.5194 19.2294 12.006 18.1614L24.9247 23.3298C25.206 25.0229 25.9138 26.4704 26.9769 27.5664L18.3228 27.5645Z" fill="#CAF908"/>
</svg>
