<svg width="40" height="40" viewBox="0 0 40 40" fill="none" xmlns="http://www.w3.org/2000/svg">
<circle cx="20" cy="20" r="19.5" stroke="#CAF908"/>
<path d="M30.4466 20.4688L27.4466 12.9688C27.3905 12.8301 27.2942 12.7113 27.17 12.6278C27.0459 12.5442 26.8996 12.4997 26.75 12.5C26.6954 12.5008 26.641 12.5074 26.5878 12.5197L20.75 13.8125V11.75C20.75 11.5511 20.671 11.3603 20.5303 11.2197C20.3897 11.079 20.1989 11 20 11C19.8011 11 19.6103 11.079 19.4697 11.2197C19.329 11.3603 19.25 11.5511 19.25 11.75V14.1481L13.0878 15.5197C12.969 15.5456 12.8583 15.6 12.7652 15.6783C12.6721 15.7565 12.5994 15.8562 12.5535 15.9688L9.55345 23.4688C9.51756 23.5581 9.49941 23.6537 9.50001 23.75C9.50001 25.9353 11.8006 26.75 13.25 26.75C14.6994 26.75 17 25.9353 17 23.75C17.0006 23.6537 16.9825 23.5581 16.9466 23.4688L14.2738 16.7909L19.25 15.6875V27.5H17.75C17.5511 27.5 17.3603 27.579 17.2197 27.7197C17.079 27.8603 17 28.0511 17 28.25C17 28.4489 17.079 28.6397 17.2197 28.7803C17.3603 28.921 17.5511 29 17.75 29H22.25C22.4489 29 22.6397 28.921 22.7803 28.7803C22.921 28.6397 23 28.4489 23 28.25C23 28.0511 22.921 27.8603 22.7803 27.7197C22.6397 27.579 22.4489 27.5 22.25 27.5H20.75V15.3519L25.5313 14.2906L23.0535 20.4688C23.0176 20.5581 22.9994 20.6537 23 20.75C23 22.9353 25.3006 23.75 26.75 23.75C28.1994 23.75 30.5 22.9353 30.5 20.75C30.5006 20.6537 30.4825 20.5581 30.4466 20.4688ZM15.4466 23.75H11.0581L13.25 18.2694L15.4466 23.75ZM24.5628 20.75L26.75 15.2694L28.9419 20.75H24.5628Z" fill="#CAF908"/>
</svg>
